<?xml version="1.0" encoding="utf-8"?>
<!-- Generator: Adobe Illustrator 26.0.0, SVG Export Plug-In . SVG Version: 6.00 Build 0)  -->
<svg version="1.1" id="Capa_1" xmlns="http://www.w3.org/2000/svg" xmlns:xlink="http://www.w3.org/1999/xlink" x="0px" y="0px"
	 viewBox="0 0 100 100" style="enable-background:new 0 0 100 100;" xml:space="preserve">
<style type="text/css">
	.st0{fill:#FFFFFF;}
	.st1{fill:#ECF0F1;}
	.st2{fill:#FACD01;}
	.st3{fill:#7061C5;}
	.st4{fill:#1226AA;}
</style>
<path class="st0" d="M20,0.1h60c11,0,20,9,20,20v60c0,11-9,20-20,20H20c-11,0-20-9-20-20v-60C0,9,9,0.1,20,0.1z"/>
<path class="st1" d="M60.6,33.4v-8.8h-15h-7.5h-4.8c-2.2,0-4,1.8-4,4v42c0,2.2,1.8,4,4,4h32c2.2,0,4-1.8,4-4V33.4H60.6z"/>
<path class="st2" d="M36.3,60.9c1,0,1.9,0.8,1.9,1.9c0,1-0.8,1.9-1.9,1.9c-1.1,0-1.9-0.8-1.9-1.9C34.4,61.7,35.2,60.9,36.3,60.9z"/>
<path class="st2" d="M36.3,52.1c1,0,1.9,0.8,1.9,1.9s-0.8,1.9-1.9,1.9c-1.1,0-1.9-0.8-1.9-1.9S35.2,52.1,36.3,52.1z"/>
<path class="st2" d="M36.3,43.4c1,0,1.9,0.8,1.9,1.9s-0.9,1.8-1.9,1.8c-1,0-1.9-0.8-1.9-1.9C34.4,44.1,35.2,43.4,36.3,43.4z"/>
<path class="st3" d="M60.6,24.6c3.4,3.4,5.3,5.3,8.8,8.8h-8.8V24.6z"/>
<path class="st4" d="M60.6,63.4c0.7,0,1.3,0.6,1.3,1.3c0,0.7-0.6,1.3-1.3,1.3c-0.7,0-1.3-0.6-1.3-1.3C59.4,63.9,59.9,63.4,60.6,63.4
	z"/>
<path class="st4" d="M54.4,50.9c0.7,0,1.3,0.6,1.3,1.3c0,0.7-0.6,1.3-1.3,1.3c-0.7,0-1.3-0.6-1.3-1.3C53.1,51.5,53.7,50.9,54.4,50.9
	z"/>
<path class="st4" d="M69.4,34.6h-8.8c-0.7,0-1.3-0.6-1.3-1.3v-8.8c0-0.7,0.6-1.3,1.3-1.3c0.7,0,1.3,0.6,1.3,1.3v7.6h7.5
	c0.7,0,1.3,0.6,1.3,1.3C70.6,34,70.1,34.6,69.4,34.6z"/>
<path class="st4" d="M65.4,75.9h-32c-2.9,0-5.3-2.4-5.3-5.3v-42c0-2.9,2.4-5.3,5.3-5.3h27.3c0.3,0,0.6,0.1,0.9,0.4l8.8,8.8
	c0.2,0.2,0.4,0.6,0.4,0.9v37.3C70.6,73.5,68.3,75.9,65.4,75.9z M33.4,25.9c-1.5,0-2.8,1.2-2.8,2.8v42c0,1.5,1.2,2.8,2.8,2.8h32
	c1.5,0,2.8-1.2,2.8-2.8V33.9l-8-8H33.4z"/>
<path class="st4" d="M41.9,38.4c-1.3,0-2.6-0.5-3.5-1.5c-0.9-1-1.5-2.2-1.5-3.5v-3.1c0-1.7,1.4-3.1,3.1-3.1c0.8,0,1.6,0.3,2.2,0.9
	c0.6,0.6,0.9,1.4,0.9,2.2v1.8c0,0.7-0.6,1.3-1.3,1.3c-0.7,0-1.3-0.6-1.3-1.3v-1.9c0-0.2-0.1-0.4-0.2-0.4c-0.1-0.1-0.2-0.2-0.4-0.2
	c-0.3,0-0.6,0.3-0.6,0.6v3.1c0,0.7,0.3,1.3,0.7,1.8c0.5,0.5,1.1,0.7,1.8,0.7c1.4,0,2.5-1.1,2.5-2.5v-10c0-0.7-0.3-1.3-0.7-1.8
	c-0.5-0.5-1.1-0.7-1.8-0.7c-1.4,0-2.5,1.1-2.5,2.5v1.3c0,0.7-0.6,1.3-1.3,1.3c-0.7,0-1.3-0.6-1.3-1.3v-1.3c0-2.8,2.2-5,5-5
	c1.3,0,2.6,0.5,3.5,1.5c0.9,0.9,1.5,2.2,1.5,3.5v10C46.9,36.1,44.6,38.4,41.9,38.4z"/>
<path class="st4" d="M50.6,44.6h-8.8c-0.7,0-1.3-0.6-1.3-1.3c0-0.7,0.6-1.3,1.3-1.3h8.8c0.7,0,1.3,0.6,1.3,1.3
	C51.9,44,51.3,44.6,50.6,44.6z"/>
<path class="st4" d="M60.6,48.4H41.9c-0.7,0-1.3-0.6-1.3-1.3c0-0.7,0.6-1.3,1.3-1.3h18.8c0.7,0,1.3,0.6,1.3,1.3
	C61.9,47.8,61.3,48.4,60.6,48.4z"/>
<path class="st4" d="M50.6,53.4h-8.8c-0.7,0-1.3-0.6-1.3-1.3c0-0.7,0.6-1.3,1.3-1.3h8.8c0.7,0,1.3,0.6,1.3,1.3
	C51.9,52.8,51.3,53.4,50.6,53.4z"/>
<path class="st4" d="M60.6,57.1H41.9c-0.7,0-1.3-0.6-1.3-1.3c0-0.7,0.6-1.3,1.3-1.3h18.8c0.7,0,1.3,0.6,1.3,1.3
	C62,56.5,61.3,57.1,60.6,57.1z"/>
<path class="st4" d="M50.6,62.1h-8.8c-0.7,0-1.3-0.6-1.3-1.3c0-0.7,0.6-1.3,1.3-1.3h8.8c0.7,0,1.3,0.6,1.3,1.3
	C51.9,61.5,51.3,62.1,50.6,62.1z"/>
<path class="st4" d="M56.9,65.9h-15c-0.7,0-1.3-0.6-1.3-1.3c0-0.7,0.6-1.3,1.3-1.3h15c0.7,0,1.3,0.6,1.3,1.3
	C58.1,65.3,57.6,65.9,56.9,65.9z"/>
</svg>
