<?xml version="1.0" encoding="utf-8"?>
<!-- Generator: Adobe Illustrator 26.0.0, SVG Export Plug-In . SVG Version: 6.00 Build 0)  -->
<svg version="1.1" id="Capa_1" xmlns="http://www.w3.org/2000/svg" xmlns:xlink="http://www.w3.org/1999/xlink" x="0px" y="0px"
	 viewBox="0 0 100 100" style="enable-background:new 0 0 100 100;" xml:space="preserve">
<style type="text/css">
	.st0{fill:#FFFFFF;}
	.st1{fill:#7061C5;}
	.st2{fill:#AEA1DE;}
	.st3{fill:#ECF0F1;}
	.st4{fill:#1226AA;}
	.st5{fill:#FACD01;}
</style>
<path class="st0" d="M20,0.1h60c11,0,20,9,20,20v60c0,11-9,20-20,20H20c-11,0-20-9-20-20v-60C0,9,9,0.1,20,0.1z"/>
<polygon class="st1" points="67.8,69.5 67.8,73.2 46.5,73.2 46.5,69.5 46.5,68.2 67.8,68.2 "/>
<path class="st2" d="M70.2,30.7H27.8c-2.8,0-5.1,2.3-5.1,5.1v28.6c0,2.8,2.3,5.1,5.1,5.1h18.7v-1.3h21.3v1.3h2.4
	c2.8,0,5.1-2.3,5.1-5.1V35.8C75.3,33,73,30.7,70.2,30.7z"/>
<polygon class="st3" points="27.8,35.7 27.8,60.7 27.8,64.5 70.3,64.5 70.3,35.7 "/>
<path class="st4" d="M62.8,59.5c0.7,0,1.3,0.6,1.3,1.3c0,0.7-0.6,1.3-1.3,1.3c-0.7,0-1.3-0.6-1.3-1.3C61.5,60.1,62.1,59.5,62.8,59.5
	z"/>
<path class="st4" d="M41.5,55.7c-0.7,0-1.3-0.6-1.3-1.3V43.1l-1.8,1.2c-0.6,0.4-1.4,0.2-1.7-0.3c-0.4-0.6-0.2-1.4,0.3-1.7l3.8-2.5
	c0.4-0.3,0.9-0.3,1.3-0.1c0.4,0.2,0.7,0.6,0.7,1.1v13.8C42.8,55.2,42.2,55.7,41.5,55.7z"/>
<path class="st4" d="M59,55.7c-0.7,0-1.3-0.6-1.3-1.3V43.1l-1.8,1.2c-0.6,0.4-1.4,0.2-1.7-0.3c-0.3-0.5-0.2-1.4,0.3-1.7l3.8-2.5
	c0.4-0.3,0.9-0.3,1.3-0.1c0.4,0.2,0.7,0.6,0.7,1.1v13.8C60.3,55.2,59.7,55.7,59,55.7z"/>
<path class="st4" d="M50.3,52c-0.7,0-1.3-0.6-1.3-1.3v-5c0-0.7,0.6-1.3,1.3-1.3c0.7,0,1.3,0.6,1.3,1.3v5C51.5,51.4,50.9,52,50.3,52z
	"/>
<path class="st4" d="M52.8,49.5h-5c-0.7,0-1.3-0.6-1.3-1.3c0-0.7,0.6-1.3,1.3-1.3h5c0.7,0,1.3,0.6,1.3,1.3
	C54,48.9,53.4,49.5,52.8,49.5z"/>
<path class="st4" d="M70.2,70.7h-2.4c-0.7,0-1.3-0.6-1.3-1.3c0-0.7,0.6-1.3,1.3-1.3h2.4c2.1,0,3.8-1.7,3.8-3.8V35.8
	c0-2.1-1.7-3.8-3.8-3.8H27.8c-2.1,0-3.8,1.7-3.8,3.8v28.6c0,2.1,1.7,3.8,3.8,3.8h18.7c0.7,0,1.3,0.6,1.3,1.3c0,0.7-0.6,1.3-1.3,1.3
	H27.8c-3.5,0-6.3-2.8-6.3-6.3V35.8c0-3.5,2.8-6.3,6.3-6.3h42.3c3.5,0,6.3,2.8,6.3,6.3v28.6C76.5,67.9,73.7,70.7,70.2,70.7z"/>
<path class="st4" d="M70.3,65.7H27.8c-0.7,0-1.3-0.6-1.3-1.3V35.7c0-0.7,0.6-1.3,1.3-1.3h42.5c0.7,0,1.3,0.6,1.3,1.3v28.8
	C71.5,65.2,70.9,65.7,70.3,65.7z M29,63.2h40V37H29V63.2z"/>
<path class="st4" d="M67.8,74.5H46.5c-0.7,0-1.3-0.6-1.3-1.3v-5c0-0.7,0.6-1.3,1.3-1.3h21.3c0.7,0,1.3,0.6,1.3,1.3v5
	C69,73.9,68.4,74.5,67.8,74.5z M47.8,72h18.8v-2.5H47.8V72z"/>
<path class="st4" d="M59,62H27.8c-0.7,0-1.3-0.6-1.3-1.3c0-0.7,0.6-1.3,1.3-1.3H59c0.7,0,1.3,0.6,1.3,1.3C60.3,61.4,59.7,62,59,62z"
	/>
<path class="st0" d="M20,0.1h60c11,0,20,9,20,20v60c0,11-9,20-20,20H20c-11,0-20-9-20-20v-60C0,9,9,0.1,20,0.1z"/>
<polygon class="st5" points="67.8,69.5 67.8,73.2 46.5,73.2 46.5,69.5 46.5,68.2 67.8,68.2 "/>
<path class="st2" d="M70.2,30.7H27.8c-2.8,0-5.1,2.3-5.1,5.1v28.6c0,2.8,2.3,5.1,5.1,5.1h18.7v-1.3h21.3v1.3h2.4
	c2.8,0,5.1-2.3,5.1-5.1V35.8C75.3,33,73,30.7,70.2,30.7z"/>
<polygon class="st3" points="27.8,35.7 27.8,60.7 27.8,64.5 70.3,64.5 70.3,35.7 "/>
<path class="st4" d="M62.8,59.5c0.7,0,1.3,0.6,1.3,1.3c0,0.7-0.6,1.3-1.3,1.3c-0.7,0-1.3-0.6-1.3-1.3C61.5,60.1,62.1,59.5,62.8,59.5
	z"/>
<path class="st4" d="M41.5,55.7c-0.7,0-1.3-0.6-1.3-1.3V43.1l-1.8,1.2c-0.6,0.4-1.4,0.2-1.7-0.3c-0.4-0.6-0.2-1.4,0.3-1.7l3.8-2.5
	c0.4-0.3,0.9-0.3,1.3-0.1c0.4,0.2,0.7,0.6,0.7,1.1v13.8C42.8,55.2,42.2,55.7,41.5,55.7z"/>
<path class="st4" d="M59,55.7c-0.7,0-1.3-0.6-1.3-1.3V43.1l-1.8,1.2c-0.6,0.4-1.4,0.2-1.7-0.3c-0.3-0.5-0.2-1.4,0.3-1.7l3.8-2.5
	c0.4-0.3,0.9-0.3,1.3-0.1c0.4,0.2,0.7,0.6,0.7,1.1v13.8C60.3,55.2,59.7,55.7,59,55.7z"/>
<path class="st4" d="M50.3,52c-0.7,0-1.3-0.6-1.3-1.3v-5c0-0.7,0.6-1.3,1.3-1.3c0.7,0,1.3,0.6,1.3,1.3v5C51.5,51.4,50.9,52,50.3,52z
	"/>
<path class="st4" d="M52.8,49.5h-5c-0.7,0-1.3-0.6-1.3-1.3c0-0.7,0.6-1.3,1.3-1.3h5c0.7,0,1.3,0.6,1.3,1.3
	C54,48.9,53.4,49.5,52.8,49.5z"/>
<path class="st4" d="M70.2,70.7h-2.4c-0.7,0-1.3-0.6-1.3-1.3c0-0.7,0.6-1.3,1.3-1.3h2.4c2.1,0,3.8-1.7,3.8-3.8V35.8
	c0-2.1-1.7-3.8-3.8-3.8H27.8c-2.1,0-3.8,1.7-3.8,3.8v28.6c0,2.1,1.7,3.8,3.8,3.8h18.7c0.7,0,1.3,0.6,1.3,1.3c0,0.7-0.6,1.3-1.3,1.3
	H27.8c-3.5,0-6.3-2.8-6.3-6.3V35.8c0-3.5,2.8-6.3,6.3-6.3h42.3c3.5,0,6.3,2.8,6.3,6.3v28.6C76.5,67.9,73.7,70.7,70.2,70.7z"/>
<path class="st4" d="M70.3,65.7H27.8c-0.7,0-1.3-0.6-1.3-1.3V35.7c0-0.7,0.6-1.3,1.3-1.3h42.5c0.7,0,1.3,0.6,1.3,1.3v28.8
	C71.5,65.2,70.9,65.7,70.3,65.7z M29,63.2h40V37H29V63.2z"/>
<path class="st4" d="M67.8,74.5H46.5c-0.7,0-1.3-0.6-1.3-1.3v-5c0-0.7,0.6-1.3,1.3-1.3h21.3c0.7,0,1.3,0.6,1.3,1.3v5
	C69,73.9,68.4,74.5,67.8,74.5z M47.8,72h18.8v-2.5H47.8V72z"/>
<path class="st4" d="M59,62H27.8c-0.7,0-1.3-0.6-1.3-1.3c0-0.7,0.6-1.3,1.3-1.3H59c0.7,0,1.3,0.6,1.3,1.3C60.3,61.4,59.7,62,59,62z"
	/>
</svg>
