<?xml version="1.0" encoding="utf-8"?>
<!-- Generator: Adobe Illustrator 26.0.0, SVG Export Plug-In . SVG Version: 6.00 Build 0)  -->
<svg version="1.1" id="Capa_1" xmlns="http://www.w3.org/2000/svg" xmlns:xlink="http://www.w3.org/1999/xlink" x="0px" y="0px"
	 viewBox="0 0 100 100" style="enable-background:new 0 0 100 100;" xml:space="preserve">
<style type="text/css">
	.st0{fill:#FFFFFF;}
	.st1{fill:#ECF0F1;}
	.st2{fill:#FACD01;}
	.st3{fill:#D8F2F1;}
	.st4{fill:#D6CFEE;}
	.st5{fill:#7061C5;}
	.st6{fill:#1226AA;}
</style>
<path class="st0" d="M20,0.1h60c11,0,20,9,20,20v60c0,11-9,20-20,20H20c-11,0-20-9-20-20v-60C0,9,9,0.1,20,0.1z"/>
<polygon class="st1" points="36.3,46.9 36.3,51.9 36.3,56.9 36.3,70.6 36.3,76.9 45,76.9 45,64.4 55,64.4 55,76.9 63.8,76.9 
	63.8,70.6 63.8,56.9 63.8,51.9 63.8,46.9 "/>
<rect x="50" y="20.6" class="st2" width="8.8" height="5"/>
<rect x="52.5" y="51.9" class="st3" width="5" height="5"/>
<rect x="42.5" y="51.9" class="st3" width="5" height="5"/>
<rect x="45" y="64.4" class="st2" width="10" height="12.5"/>
<polygon class="st4" points="77.5,51.9 77.5,56.9 75,56.9 63.8,56.9 63.8,51.9 "/>
<rect x="63.8" y="70.6" class="st4" width="11.3" height="6.3"/>
<rect x="63.8" y="56.9" class="st1" width="11.3" height="13.8"/>
<polygon class="st4" points="67.5,41.9 67.5,46.9 63.8,46.9 36.3,46.9 32.5,46.9 32.5,41.9 "/>
<polygon class="st5" points="67.5,41.9 32.5,41.9 50,29.4 "/>
<rect x="25" y="70.6" class="st4" width="11.3" height="6.3"/>
<rect x="25" y="56.9" class="st1" width="11.3" height="13.8"/>
<polygon class="st4" points="36.3,51.9 36.3,56.9 25,56.9 22.5,56.9 22.5,51.9 "/>
<path class="st6" d="M63.8,53.1c-0.7,0-1.3-0.6-1.3-1.3v-5c0-0.7,0.6-1.3,1.3-1.3c0.7,0,1.3,0.6,1.3,1.3v5
	C65,52.5,64.4,53.1,63.8,53.1z"/>
<path class="st6" d="M36.3,53.1c-0.7,0-1.3-0.6-1.3-1.3v-5c0-0.7,0.6-1.3,1.3-1.3c0.7,0,1.3,0.6,1.3,1.3v5
	C37.5,52.5,36.9,53.1,36.3,53.1z"/>
<path class="st6" d="M75,78.1c-0.7,0-1.3-0.6-1.3-1.3v-20c0-0.7,0.6-1.3,1.3-1.3c0.7,0,1.3,0.6,1.3,1.3v20
	C76.3,77.5,75.7,78.1,75,78.1z"/>
<path class="st6" d="M63.8,78.1c-0.7,0-1.3-0.6-1.3-1.3v-20c0-0.7,0.6-1.3,1.3-1.3c0.7,0,1.3,0.6,1.3,1.3v20
	C65,77.5,64.4,78.1,63.8,78.1z"/>
<path class="st6" d="M77.5,58.1H63.8c-0.7,0-1.3-0.6-1.3-1.3v-5c0-0.7,0.6-1.3,1.3-1.3h13.8c0.7,0,1.3,0.6,1.3,1.3v5
	C78.8,57.5,78.2,58.1,77.5,58.1z M65,55.6h11.3v-2.5H65V55.6z"/>
<path class="st6" d="M36.3,78.1c-0.7,0-1.3-0.6-1.3-1.3v-20c0-0.7,0.6-1.3,1.3-1.3c0.7,0,1.3,0.6,1.3,1.3v20
	C37.5,77.5,36.9,78.1,36.3,78.1z"/>
<path class="st6" d="M25,78.1c-0.7,0-1.3-0.6-1.3-1.3v-20c0-0.7,0.6-1.3,1.3-1.3c0.7,0,1.3,0.6,1.3,1.3v20
	C26.3,77.5,25.7,78.1,25,78.1z"/>
<path class="st6" d="M36.3,58.1H22.5c-0.7,0-1.3-0.6-1.3-1.3v-5c0-0.7,0.6-1.3,1.3-1.3h13.8c0.7,0,1.3,0.6,1.3,1.3v5
	C37.5,57.5,36.9,58.1,36.3,58.1z M23.8,55.6H35v-2.5H23.8V55.6z"/>
<path class="st6" d="M77.5,78.1H55c-0.7,0-1.3-0.6-1.3-1.3c0-0.7,0.6-1.3,1.3-1.3h22.5c0.7,0,1.3,0.6,1.3,1.3
	C78.8,77.5,78.2,78.1,77.5,78.1z"/>
<path class="st6" d="M45,78.1H22.5c-0.7,0-1.3-0.6-1.3-1.3c0-0.7,0.6-1.3,1.3-1.3H45c0.7,0,1.3,0.6,1.3,1.3
	C46.3,77.5,45.7,78.1,45,78.1z"/>
<path class="st6" d="M55,78.1H45c-0.7,0-1.3-0.6-1.3-1.3V64.4c0-0.7,0.6-1.3,1.3-1.3h10c0.7,0,1.3,0.6,1.3,1.3v12.5
	C56.3,77.5,55.7,78.1,55,78.1z M46.3,75.6h7.5v-10h-7.5V75.6z"/>
<path class="st6" d="M75,71.9H63.8c-0.7,0-1.3-0.6-1.3-1.3c0-0.7,0.6-1.3,1.3-1.3H75c0.7,0,1.3,0.6,1.3,1.3
	C76.3,71.3,75.7,71.9,75,71.9z"/>
<path class="st6" d="M36.3,71.9H25c-0.7,0-1.3-0.6-1.3-1.3c0-0.7,0.6-1.3,1.3-1.3h11.3c0.7,0,1.3,0.6,1.3,1.3
	C37.5,71.3,36.9,71.9,36.3,71.9z"/>
<path class="st6" d="M67.5,48.1h-35c-0.7,0-1.3-0.6-1.3-1.3v-5c0-0.7,0.6-1.3,1.3-1.3c0.7,0,1.3,0.6,1.3,1.3v3.8h32.5v-3.8
	c0-0.7,0.6-1.3,1.3-1.3c0.7,0,1.3,0.6,1.3,1.3v5C68.8,47.5,68.2,48.1,67.5,48.1z"/>
<path class="st6" d="M67.5,43.1L67.5,43.1h-35c-0.5,0-1-0.4-1.2-0.9c-0.2-0.5,0-1.1,0.5-1.4l17.5-12.5c0.4-0.3,1-0.3,1.5,0
	l17.5,12.5c0.3,0.2,0.6,0.6,0.6,1.1C68.8,42.5,68.2,43.1,67.5,43.1z M36.4,40.6h27.2L50,30.9L36.4,40.6z"/>
<path class="st6" d="M47.5,58.1h-5c-0.7,0-1.3-0.6-1.3-1.3v-5c0-0.7,0.6-1.3,1.3-1.3h5c0.7,0,1.3,0.6,1.3,1.3v5
	C48.8,57.5,48.2,58.1,47.5,58.1z M43.8,55.6h2.5v-2.5h-2.5V55.6z"/>
<path class="st6" d="M57.5,58.1h-5c-0.7,0-1.3-0.6-1.3-1.3v-5c0-0.7,0.6-1.3,1.3-1.3h5c0.7,0,1.3,0.6,1.3,1.3v5
	C58.8,57.5,58.2,58.1,57.5,58.1z M53.8,55.6h2.5v-2.5h-2.5V55.6z"/>
<path class="st6" d="M50,21.9c-0.7,0-1.3-0.6-1.3-1.3v-1.3c0-0.7,0.6-1.3,1.3-1.3c0.7,0,1.3,0.6,1.3,1.3v1.3
	C51.3,21.3,50.7,21.9,50,21.9z"/>
<path class="st6" d="M50,30.6c-0.7,0-1.3-0.6-1.3-1.3v-3.8c0-0.7,0.6-1.3,1.3-1.3c0.7,0,1.3,0.6,1.3,1.3v3.8
	C51.3,30,50.7,30.6,50,30.6z"/>
<path class="st6" d="M58.8,26.9H50c-0.7,0-1.3-0.6-1.3-1.3v-5c0-0.7,0.6-1.3,1.3-1.3h8.8c0.7,0,1.3,0.6,1.3,1.3v5
	C60,26.3,59.4,26.9,58.8,26.9z M51.3,24.4h6.3v-2.5h-6.3V24.4z"/>
<path class="st6" d="M67.5,65.6c-0.7,0-1.3-0.6-1.3-1.3v-1.2c0-0.7,0.6-1.3,1.3-1.3c0.7,0,1.3,0.6,1.3,1.3v1.3
	C68.8,65,68.2,65.6,67.5,65.6z"/>
<path class="st6" d="M71.3,65.6c-0.7,0-1.3-0.6-1.3-1.3v-1.2c0-0.7,0.6-1.3,1.3-1.3c0.7,0,1.3,0.6,1.3,1.3v1.3
	C72.5,65,71.9,65.6,71.3,65.6z"/>
<path class="st6" d="M32.5,65.6c-0.7,0-1.3-0.6-1.3-1.3v-1.2c0-0.7,0.6-1.3,1.3-1.3c0.7,0,1.3,0.6,1.3,1.3v1.3
	C33.8,65,33.2,65.6,32.5,65.6z"/>
<path class="st6" d="M28.8,65.6c-0.7,0-1.3-0.6-1.3-1.3v-1.2c0-0.7,0.6-1.3,1.3-1.3c0.7,0,1.2,0.6,1.2,1.3v1.3
	C30,65,29.4,65.6,28.8,65.6z"/>
</svg>
