<?xml version="1.0" encoding="utf-8"?>
<!-- Generator: Adobe Illustrator 26.0.0, SVG Export Plug-In . SVG Version: 6.00 Build 0)  -->
<svg version="1.1" id="Capa_1" xmlns="http://www.w3.org/2000/svg" xmlns:xlink="http://www.w3.org/1999/xlink" x="0px" y="0px"
	 viewBox="0 0 100 100" style="enable-background:new 0 0 100 100;" xml:space="preserve">
<style type="text/css">
	.st0{fill:#FACD01;}
	.st1{fill:#D6CFEE;}
	.st2{fill:#7061C5;}
	.st3{fill:#ECF0F1;}
	.st4{fill:#1226AA;}
	.st5{fill:#AEA1DE;}
</style>
<g>
	<path class="st0" d="M65,71.1c0.3,0,0.4,0,0.6,0c0.1,0,0.1,0,0.3,0c0.1,0,0.1,0,0.3,0c0.1,0,0.1,0,0.3,0c0.1,0,0.1,0,0.3,0
		c0.1,0,0.3,0,0.5-0.1h0.1c0.1,0,0.1,0,0.3,0c0.4-0.1,0.6-0.3,0.9-0.4v8.7l-3.2-3.2l-3.2,3.2v-8.8c0.3,0.1,0.6,0.3,0.9,0.4
		c0,0,0.1,0,0.3,0h0.1c0.1,0,0.3,0.1,0.4,0.1c0.1,0,0.1,0,0.3,0c0.1,0,0.1,0,0.3,0c0.1,0,0.1,0,0.3,0c0.1,0,0.1,0,0.3,0
		C64.5,71.1,64.8,71.1,65,71.1z"/>
	<path class="st0" d="M65,55c4.5,0,8.1,3.6,8.1,8.1c0,3.3-1.9,6.2-4.9,7.3l0,0c-0.3,0.1-0.6,0.3-0.9,0.4c-0.1,0-0.1,0-0.3,0H67
		c-0.1,0-0.3,0.1-0.4,0.1c-0.1,0-0.1,0-0.3,0c-0.1,0-0.1,0-0.3,0s-0.1,0-0.3,0c-0.1,0-0.1,0-0.3,0c-0.3,0-0.4,0-0.6,0
		c-0.3,0-0.4,0-0.6,0c-0.1,0-0.1,0-0.3,0c-0.1,0-0.1,0-0.3,0c-0.1,0-0.1,0-0.3,0s-0.1,0-0.3,0c-0.1,0-0.3,0-0.4-0.1h-0.1
		c-0.1,0-0.1,0-0.3,0c-0.4-0.1-0.6-0.3-0.9-0.4l0,0c-2.8-1.3-4.9-4.1-4.9-7.3C57,58.6,60.6,55,65,55z"/>
	<path class="st1" d="M40.2,90.3c0,5.1,3.6,7.8,7.6,8.2H12.6c-4.2,0-7.8-2.8-7.8-8.2h7.3h0.5H40.2z"/>
	<path class="st2" d="M66.6,39v6.4H57V39c0-2.7,2.2-4.9,4.9-4.9c1.3,0,2.6,0.5,3.5,1.4C66.1,36.6,66.6,37.7,66.6,39z"/>
	<path class="st3" d="M57,34.3h-1.7H18.8c-3.6,0-6.5,2.9-6.5,6.5v23.8v25.6h0.4h27.6c0,5.1,3.6,7.8,7.6,8.2h1.7
		c4-0.3,7.6-3.1,7.6-8.2v-6.4v-3.2V63.1V45.4V39c0-2.7,2.2-4.9,4.9-4.9L57,34.3L57,34.3z"/>
	<path class="st4" d="M33,75.9c0.9,0,1.7,0.8,1.7,1.7c0,0.9-0.8,1.7-1.7,1.7c-0.9,0-1.7-0.8-1.7-1.7C31.3,76.6,32.1,75.9,33,75.9z"
		/>
	<path class="st4" d="M49.4,100.2h-1.7c-0.9,0-1.7-0.8-1.7-1.7c0-0.9,0.8-1.7,1.7-1.7h1.7c2.8-0.3,6-2.1,6-6.7V45.3
		c0-0.9,0.8-1.7,1.7-1.7c0.9,0,1.7,0.8,1.7,1.7v44.9l0,0C58.5,96.7,54,99.8,49.4,100.2C49.5,100.2,49.4,100.2,49.4,100.2z"/>
	<path class="st4" d="M47.7,100.2H12.6c-2.6,0-4.9-0.9-6.5-2.6c-1.8-1.8-2.8-4.4-2.8-7.3c0-0.9,0.8-1.7,1.7-1.7h35.4
		c0.9,0,1.7,0.8,1.7,1.7c0,4.5,3.2,6.4,6,6.7c0.9,0.1,1.5,0.8,1.4,1.7C49.3,99.5,48.5,100.2,47.7,100.2z M6.6,92c0.6,3.7,3.5,5,6,5
		h28.3c-1.2-1.3-2.1-2.9-2.3-5H6.6z"/>
	<path class="st4" d="M12.1,92c-0.9,0-1.7-0.8-1.7-1.7V40.8c0-4.5,3.7-8.2,8.2-8.2h43.1c0.9,0,1.7,0.8,1.7,1.7
		c0,0.9-0.8,1.7-1.7,1.7H18.8c-2.7,0-5,2.2-5,5v49.5C13.8,91.2,13,92,12.1,92z"/>
	<path class="st4" d="M66.6,47.1H57c-0.9,0-1.7-0.8-1.7-1.7V39c0-3.6,2.8-6.4,6.4-6.4c1.7,0,3.3,0.6,4.5,1.9
		c1.2,1.2,1.9,2.8,1.9,4.5v6.4C68.2,46.3,67.5,47.1,66.6,47.1z M58.6,43.9H65V39c0-0.9-0.4-1.7-0.9-2.3c-0.6-0.5-1.5-0.9-2.3-0.9
		c-1.8,0-3.2,1.4-3.2,3.2V43.9z"/>
	<path class="st4" d="M68.2,80.7c-0.4,0-0.8-0.1-1.2-0.5L65,78.1L63,80.2c-0.5,0.5-1.2,0.6-1.8,0.4c-0.6-0.3-1-0.8-1-1.5v-8.6
		c0-0.5,0.3-1,0.8-1.3c0.5-0.3,1-0.4,1.5-0.1c0.3,0.1,0.5,0.3,0.8,0.3h0.1l0,0h0.1c0.9,0.3,1.4,1.2,1.2,1.9c-0.1,0.6-0.6,1-1.3,1.2
		v2.8l0.5-0.5c0.6-0.6,1.7-0.6,2.3,0l0.5,0.5v-2.8c-0.6-0.1-1-0.5-1.3-1.2c-0.3-0.8,0.3-1.7,1-1.9h0.1l0,0h0.1
		c0.3-0.1,0.5-0.1,0.8-0.3c0.5-0.3,1-0.1,1.5,0.1c0.5,0.3,0.8,0.8,0.8,1.3v8.7c0,0.6-0.4,1.3-1,1.5C68.6,80.7,68.4,80.7,68.2,80.7z"
		/>
	<path d="M64.4,72.7C64.4,72.7,64.3,72.7,64.4,72.7c-0.3,0-0.3,0-0.4,0c-0.1,0-0.1,0-0.3,0l0,0c-0.1,0-0.1,0-0.3,0s-0.1,0-0.3,0
		c-0.9-0.1-1.4-1-1.3-1.8c0.1-0.9,1-1.4,1.8-1.3h0.1l0,0H64l0,0h0.1l0,0h0.1c0.9,0,1.5,0.8,1.5,1.7C65.9,72.1,65.2,72.7,64.4,72.7z"
		/>
	<path d="M65.7,72.7c-0.9,0-1.5-0.6-1.5-1.5c0-0.9,0.6-1.7,1.5-1.7h0.1l0,0h0.1l0,0h0.1l0,0h0.1c0.9-0.1,1.7,0.4,1.8,1.3
		c0.1,0.9-0.4,1.7-1.3,1.8c-0.1,0-0.1,0-0.3,0c-0.1,0-0.1,0-0.3,0l0,0c-0.1,0-0.1,0-0.3,0C65.9,72.6,65.8,72.7,65.7,72.7L65.7,72.7z
		"/>
	<path class="st4" d="M65,72.7c-0.3,0-0.5,0-0.8,0c-0.1,0-0.1,0-0.3,0c-0.1,0-0.1,0-0.3,0c-0.1,0-0.1,0-0.3,0s-0.1,0-0.3,0
		c-0.3,0-0.4-0.1-0.5-0.1h-0.1c-0.1,0-0.1,0-0.3-0.1c-0.4-0.1-0.8-0.3-1.2-0.4c-3.5-1.5-5.8-5-5.8-8.8c0-5.3,4.4-9.6,9.6-9.6
		c5.3,0,9.6,4.4,9.6,9.6c0,3.8-2.3,7.3-5.8,8.8c-0.4,0.1-0.8,0.3-1.2,0.4c-0.1,0-0.1,0-0.3,0.1c-0.1,0-0.1,0-0.3,0
		c-0.1,0-0.4,0.1-0.5,0.1c-0.1,0-0.1,0-0.3,0c-0.1,0-0.1,0-0.3,0c-0.1,0-0.1,0-0.3,0c-0.1,0-0.1,0-0.3,0
		C65.6,72.7,65.3,72.7,65,72.7z M65,56.7c-3.6,0-6.4,2.8-6.4,6.4c0,2.6,1.5,4.9,3.8,5.9c0.3,0.1,0.5,0.3,0.8,0.3l0,0c0,0,0,0,0.1,0
		h0.1l0,0c0.1,0,0.3,0,0.4,0.1H64l0,0c0,0,0,0,0.1,0l0,0h0.1l0,0h0.1l0,0c0.3,0,0.6,0,1,0l0,0h0.1l0,0h0.1l0,0c0,0,0,0,0.1,0l0,0
		h0.1c0.1,0,0.3,0,0.4-0.1c0,0,0,0,0.1,0h0.1c0,0,0,0,0.1,0l0,0c0.3-0.1,0.5-0.1,0.8-0.3c2.3-1,3.8-3.3,3.8-5.9
		C71.5,59.5,68.5,56.7,65,56.7z"/>
	<path class="st4" d="M31.3,51.8H20.1c-0.9,0-1.7-0.8-1.7-1.7c0-0.9,0.8-1.7,1.7-1.7h11.3c0.9,0,1.7,0.8,1.7,1.7
		C33,51.2,32.2,51.8,31.3,51.8z"/>
	<path class="st4" d="M44.1,59.9h-24c-0.9,0-1.7-0.8-1.7-1.7c0-0.9,0.8-1.7,1.7-1.7h24.1c0.9,0,1.7,0.8,1.7,1.7
		C45.8,59.1,45,59.9,44.1,59.9z"/>
	<path class="st4" d="M44.1,64.7h-24c-0.9,0-1.7-0.8-1.7-1.7c0-0.9,0.8-1.7,1.7-1.7h24.1c0.9,0,1.7,0.8,1.7,1.7
		C45.8,64,45,64.7,44.1,64.7z"/>
	<path class="st4" d="M44.1,69.5h-24c-0.9,0-1.7-0.8-1.7-1.7c0-0.9,0.8-1.7,1.7-1.7h24.1c0.9,0,1.7,0.8,1.7,1.7
		C45.9,68.8,45,69.5,44.1,69.5z"/>
	<path class="st4" d="M44.1,74.3h-24c-0.9,0-1.7-0.8-1.7-1.7c0-0.9,0.8-1.7,1.7-1.7h24.1c0.9,0,1.7,0.8,1.7,1.7
		C45.9,73.5,45,74.3,44.1,74.3z"/>
	<path class="st4" d="M28.1,79.1h-8.1c-0.9,0-1.7-0.8-1.7-1.7c0-0.9,0.8-1.7,1.7-1.7h8.1c0.9,0,1.7,0.8,1.7,1.7
		C29.8,78.4,29,79.1,28.1,79.1z"/>
	<path class="st4" d="M44.1,85.5h-6.4c-0.9,0-1.7-0.8-1.7-1.7c0-0.9,0.8-1.7,1.7-1.7h6.4c0.9,0,1.7,0.8,1.7,1.7
		C45.8,84.8,45,85.5,44.1,85.5z"/>
</g>
<g>
	<path class="st0" d="M92.5,41.1c1.8,0,3.2,1.4,3.2,3.2c0,1.8-1.4,3.2-3.2,3.2c-1.8,0-3.2-1.4-3.2-3.2
		C89.3,42.5,90.8,41.1,92.5,41.1z"/>
	<polygon class="st2" points="81.7,26.2 81.7,39.3 63.7,50.2 63.7,37.4 	"/>
	<polygon class="st2" points="63.7,37.4 63.7,50.2 45.6,39.3 45.6,26.2 	"/>
	<polygon class="st5" points="92.5,19.5 81.7,26.2 63.7,37.4 45.6,26.2 34.9,19.5 63.7,1.6 	"/>
	<path class="st4" d="M63.7,51.7c-0.3,0-0.5-0.1-0.8-0.3L44.9,40.7c-0.5-0.3-0.8-0.8-0.8-1.4V26.2c0-0.9,0.8-1.7,1.7-1.7
		c0.9,0,1.7,0.8,1.7,1.7v12.2l17,10.4c0.8,0.5,1,1.4,0.5,2.2C64.7,51.5,64.2,51.7,63.7,51.7z"/>
	<path class="st4" d="M63.7,51.7c-0.3,0-0.5-0.1-0.8-0.3c-0.5-0.3-0.8-0.8-0.8-1.4V37.2c0-0.9,0.8-1.7,1.7-1.7
		c0.9,0,1.7,0.8,1.7,1.7v10l14.9-8.8V26.2c0-0.9,0.8-1.7,1.7-1.7c0.9,0,1.7,0.8,1.7,1.7v13.1c0,0.5-0.3,1-0.8,1.4L64.5,51.5
		C64.2,51.7,64,51.7,63.7,51.7z"/>
	<path class="st4" d="M92.5,42.6c-0.9,0-1.7-0.8-1.7-1.7V21.1H63.7c-0.9,0-1.7-0.8-1.7-1.7c0-0.9,0.8-1.7,1.7-1.7h28.8
		c0.9,0,1.7,0.8,1.7,1.7V41C94.1,42,93.4,42.6,92.5,42.6z"/>
	<path class="st4" d="M92.5,49c-2.7,0-4.9-2.2-4.9-4.9s2.2-4.9,4.9-4.9c2.7,0,4.9,2.2,4.9,4.9S95.1,49,92.5,49z M92.5,42.6
		c-0.9,0-1.7,0.8-1.7,1.7c0,0.9,0.8,1.7,1.7,1.7c0.9,0,1.7-0.8,1.7-1.7C94.2,43.4,93.4,42.6,92.5,42.6z"/>
	<path class="st4" d="M63.7,38.9c-0.3,0-0.6-0.1-0.9-0.3L44.7,27.5L34,20.8c-0.5-0.3-0.8-0.8-0.8-1.4c0-0.5,0.3-1,0.8-1.4L62.8,0.2
		c0.5-0.3,1.2-0.3,1.7,0L93.3,18c0.5,0.3,0.8,0.8,0.8,1.4c0,0.6-0.3,1-0.8,1.4l-10.8,6.7L64.5,38.8C64.2,38.9,64,38.9,63.7,38.9z
		 M37.9,19.5l25.8,15.9l25.8-16L63.7,3.5L37.9,19.5z"/>
</g>
</svg>
