<?xml version="1.0" encoding="utf-8"?>
<!-- Generator: Adobe Illustrator 26.0.0, SVG Export Plug-In . SVG Version: 6.00 Build 0)  -->
<svg version="1.1" id="Capa_1" xmlns="http://www.w3.org/2000/svg" xmlns:xlink="http://www.w3.org/1999/xlink" x="0px" y="0px"
	 viewBox="0 0 100 100" style="enable-background:new 0 0 100 100;" xml:space="preserve">
<style type="text/css">
	.st0{fill:#1226AA;}
	.st1{fill:#FFFFFF;}
	.st2{fill:#FACD01;}
	.st3{fill:#AEA1DE;}
	.st4{fill:#ECF0F1;}
</style>
<path class="st0" d="M37.5,68.4c0.7,0,1.3,0.6,1.3,1.3c0,0.7-0.6,1.3-1.3,1.3c-0.7,0-1.3-0.6-1.3-1.3C36.2,69,36.8,68.4,37.5,68.4z"
	/>
<path class="st0" d="M61.2,70.9h-20c-0.7,0-1.3-0.6-1.3-1.3c0-0.7,0.6-1.3,1.3-1.3h20c0.7,0,1.3,0.6,1.3,1.3
	C62.5,70.3,61.9,70.9,61.2,70.9z"/>
<path class="st0" d="M57.5,74.7h-5c-0.7,0-1.3-0.6-1.3-1.3c0-0.7,0.6-1.3,1.3-1.3h5c0.7,0,1.3,0.6,1.3,1.3
	C58.7,74.1,58.2,74.7,57.5,74.7z"/>
<path class="st1" d="M20,0.1h60c11,0,20,9,20,20v60c0,11-9,20-20,20H20c-11,0-20-9-20-20v-60C0,9,9,0.1,20,0.1z"/>
<polygon class="st2" points="55,30.4 55,40.4 52.5,37.9 50,40.4 50,30.4 "/>
<polygon class="st3" points="62.5,71.6 62.5,76.6 38.8,76.6 38.8,71.6 42.5,71.6 58.8,71.6 "/>
<polygon class="st4" points="58.8,62.9 58.8,71.6 42.5,71.6 42.5,62.9 50.6,62.9 "/>
<polygon class="st3" points="62.5,27.9 62.5,30.4 55,30.4 50,30.4 38.8,30.4 38.8,27.9 38.8,24.1 62.5,24.1 "/>
<path class="st4" d="M38.8,35.4v-5H50v10l2.5-2.5l2.5,2.5v-10h7.5v11.9c0,6.6-5.3,11.9-11.9,11.9s-11.9-5.3-11.9-11.9L38.8,35.4
	L38.8,35.4z"/>
<path class="st0" d="M50.6,55.4c-7.2,0-13.1-5.9-13.1-13.1c0-0.7,0.6-1.3,1.3-1.3c0.7,0,1.3,0.6,1.3,1.3c0,5.9,4.8,10.6,10.6,10.6
	c5.8,0,10.6-4.8,10.6-10.6c0-0.7,0.6-1.3,1.3-1.3c0.7,0,1.3,0.6,1.3,1.3C63.8,49.5,57.9,55.4,50.6,55.4z"/>
<path class="st0" d="M62.5,29.1c-0.7,0-1.3-0.6-1.3-1.3v-2.5H40v2.5c0,0.7-0.6,1.3-1.3,1.3c-0.7,0-1.3-0.6-1.3-1.3V24
	c0-0.7,0.6-1.3,1.3-1.3h23.8c0.7,0,1.3,0.6,1.3,1.3v3.8C63.8,28.6,63.2,29.1,62.5,29.1z"/>
<path class="st0" d="M58.8,72.9c-0.7,0-1.3-0.6-1.3-1.3v-7.5H43.8v7.5c0,0.7-0.6,1.3-1.3,1.3c-0.7,0-1.3-0.6-1.3-1.3v-8.8
	c0-0.7,0.6-1.3,1.3-1.3h16.3c0.7,0,1.3,0.6,1.3,1.3v8.8C60,72.3,59.4,72.9,58.8,72.9z"/>
<path class="st0" d="M62.5,77.9c-0.7,0-1.3-0.6-1.3-1.3v-3.8H40v3.8c0,0.7-0.6,1.3-1.3,1.3c-0.7,0-1.3-0.6-1.3-1.3v-5
	c0-0.7,0.6-1.3,1.3-1.3h23.8c0.7,0,1.3,0.6,1.3,1.3v5C63.8,77.3,63.2,77.9,62.5,77.9z"/>
<path class="st0" d="M50.6,64.1c-0.7,0-1.3-0.6-1.3-1.3V54c0-0.7,0.6-1.3,1.3-1.3c0.7,0,1.3,0.6,1.3,1.3v8.8
	C51.9,63.6,51.3,64.1,50.6,64.1z"/>
<path class="st0" d="M62.5,31.6H55c-0.7,0-1.3-0.6-1.3-1.3c0-0.7,0.6-1.3,1.3-1.3h7.5c0.7,0,1.3,0.6,1.3,1.3
	C63.8,31.1,63.2,31.6,62.5,31.6z"/>
<path class="st0" d="M50,31.6H38.8c-0.7,0-1.3-0.6-1.3-1.3c0-0.7,0.6-1.3,1.3-1.3H50c0.7,0,1.3,0.6,1.3,1.3
	C51.3,31.1,50.7,31.6,50,31.6z"/>
<path class="st0" d="M62.5,44.1c-0.7,0-1.3-0.6-1.3-1.3v-15c0-0.7,0.6-1.3,1.3-1.3H70c0.7,0,1.3,0.6,1.3,1.3v7.5
	C71.3,40.2,67.3,44.1,62.5,44.1z M63.8,29.1v12.4c2.8-0.6,5-3.1,5-6.1v-6.3H63.8z"/>
<path class="st0" d="M38.8,44.1c-4.8,0-8.8-3.9-8.8-8.8v-7.5c0-0.7,0.6-1.3,1.3-1.3h7.5c0.7,0,1.3,0.6,1.3,1.3v15
	C40,43.6,39.4,44.1,38.8,44.1z M32.5,29.1v6.3c0,3,2.2,5.5,5,6.1V29.1H32.5z"/>
<path class="st0" d="M55,41.6c-0.3,0-0.6-0.1-0.9-0.4l-1.6-1.6l-1.6,1.6c-0.4,0.4-0.9,0.5-1.4,0.3c-0.5-0.2-0.8-0.6-0.8-1.2v-10
	c0-0.7,0.6-1.3,1.3-1.3h5c0.7,0,1.3,0.6,1.3,1.3v10c0,0.5-0.3,1-0.8,1.2C55.3,41.6,55.2,41.6,55,41.6z M52.5,36.6
	c0.3,0,0.6,0.1,0.9,0.4l0.4,0.4v-5.7h-2.5v5.7l0.4-0.4C51.9,36.7,52.2,36.6,52.5,36.6z"/>
<path class="st0" d="M66.3,77.9H35c-0.7,0-1.3-0.6-1.3-1.3c0-0.7,0.6-1.3,1.3-1.3h31.2c0.7,0,1.3,0.6,1.3,1.3
	C67.5,77.3,66.9,77.9,66.3,77.9z"/>
<path class="st0" d="M45,36.6h-6.3c-0.7,0-1.3-0.6-1.3-1.3c0-0.7,0.6-1.3,1.3-1.3H45c0.7,0,1.3,0.6,1.3,1.3
	C46.3,36.1,45.7,36.6,45,36.6z"/>
</svg>
