<?xml version="1.0" encoding="utf-8"?>
<!-- Generator: Adobe Illustrator 26.0.0, SVG Export Plug-In . SVG Version: 6.00 Build 0)  -->
<svg version="1.1" id="Capa_1" xmlns="http://www.w3.org/2000/svg" xmlns:xlink="http://www.w3.org/1999/xlink" x="0px" y="0px"
	 viewBox="0 0 100 100" style="enable-background:new 0 0 100 100;" xml:space="preserve">
<style type="text/css">
	.st0{fill:#FFFFFF;}
	.st1{fill:#AEA1DE;}
	.st2{fill:#ECF0F1;}
	.st3{fill:#1226AA;}
	.st4{fill:#FACD01;}
</style>
<path class="st0" d="M20,0.1h60c11,0,20,9,20,20v60c0,11-9,20-20,20H20c-11,0-20-9-20-20v-60C0,9,9,0.1,20,0.1z"/>
<polygon class="st1" points="34,53.2 29,53.2 29,75.7 71.3,75.7 71.3,53.2 "/>
<polygon class="st2" points="34.1,24.5 29.1,24.5 29.1,47 71.4,47 71.4,24.5 "/>
<path class="st3" d="M46.6,38.5v2.8h-8.4v-2.8H41v-5c-0.5,0.6-2.1,1.4-3.2,1.4V32c0.5,0,1.4-0.5,1.8-0.7c0.3-0.2,1.2-0.8,1.4-1.1
	h3.1v8.3H46.6L46.6,38.5z"/>
<path class="st3" d="M34.1,39.5c0.7,0,1.3,0.6,1.3,1.3c0,0.7-0.6,1.3-1.3,1.3c-0.7,0-1.3-0.6-1.3-1.3C32.9,40,33.4,39.5,34.1,39.5z"
	/>
<path class="st3" d="M46.2,67.3v2.8h-9.7c0-2.5,0.7-3.8,2.9-5c1.6-0.9,2-1.1,2.5-1.4c0.2-0.2,0.4-0.3,0.5-0.5
	c0.1-0.1,0.2-0.3,0.2-0.5c0-0.4-0.1-0.7-0.4-0.9c-0.3-0.2-0.6-0.3-1.1-0.3c-0.5,0-1,0.1-1.4,0.4c-0.4,0.3-0.8,0.6-1.2,1l-2-2.3
	c0.8-0.9,2.7-1.9,5.1-1.9c1.4,0,2.5,0.3,3.2,0.9c0.7,0.6,1.1,1.4,1.1,2.5c0,0.4-0.1,0.8-0.2,1.2c-0.1,0.3-0.3,0.6-0.5,0.9
	c-0.2,0.3-0.5,0.5-0.7,0.7c-0.5,0.3-0.8,0.6-1.5,1c-0.5,0.3-1.7,1-2.1,1.4H46.2L46.2,67.3z"/>
<path class="st3" d="M35.3,69.5c0,0.7-0.6,1.3-1.3,1.3c-0.7,0-1.3-0.6-1.3-1.3c0-0.7,0.6-1.3,1.3-1.3C34.7,68.2,35.3,68.8,35.3,69.5
	z"/>
<path class="st3" d="M71.3,77H29c-0.7,0-1.3-0.6-1.3-1.3V53.2c0-0.7,0.6-1.3,1.3-1.3h42.3c0.7,0,1.3,0.6,1.3,1.3v22.5
	C72.6,76.4,72,77,71.3,77z M30.3,74.5h39.8v-20H30.3V74.5z"/>
<path class="st3" d="M34,67c-0.7,0-1.3-0.6-1.3-1.3V53.2c0-0.7,0.6-1.3,1.3-1.3c0.7,0,1.3,0.6,1.3,1.3v12.5C35.3,66.4,34.7,67,34,67
	z"/>
<path class="st3" d="M71.4,48.2H29.1c-0.7,0-1.3-0.6-1.3-1.3V24.5c0-0.7,0.6-1.3,1.3-1.3h42.3c0.7,0,1.3,0.6,1.3,1.3V47
	C72.7,47.7,72.1,48.2,71.4,48.2z M30.4,45.7h39.8v-20H30.4V45.7z"/>
<path class="st3" d="M34.1,38.2c-0.7,0-1.3-0.6-1.3-1.3V24.5c0-0.7,0.6-1.3,1.3-1.3c0.7,0,1.3,0.6,1.3,1.3V37
	C35.4,37.7,34.8,38.2,34.1,38.2z"/>
<g>
	<path class="st4" d="M50,30c0.7,0,1.3,0.6,1.3,1.3c0,0.7-0.6,1.3-1.3,1.3c-0.7,0-1.3-0.6-1.3-1.3C48.7,30.6,49.3,30,50,30z"/>
	<path class="st4" d="M54.2,30c0.7,0,1.3,0.6,1.3,1.3c0,0.7-0.6,1.3-1.3,1.3c-0.7,0-1.3-0.6-1.3-1.3C52.9,30.6,53.5,30,54.2,30z"/>
	<path class="st4" d="M58.4,30c0.7,0,1.3,0.6,1.3,1.3c0,0.7-0.6,1.3-1.3,1.3c-0.7,0-1.3-0.6-1.3-1.3C57.1,30.6,57.7,30,58.4,30z"/>
	<path class="st4" d="M62.6,30c0.7,0,1.3,0.6,1.3,1.3c0,0.7-0.6,1.3-1.3,1.3c-0.7,0-1.3-0.6-1.3-1.3C61.3,30.6,61.9,30,62.6,30z"/>
	<path class="st4" d="M66.9,30c0.7,0,1.3,0.6,1.3,1.3c0,0.7-0.6,1.3-1.3,1.3c-0.7,0-1.3-0.6-1.3-1.3C65.6,30.6,66.2,30,66.9,30z"/>
	<path class="st4" d="M50,34.4c0.7,0,1.3,0.6,1.3,1.3c0,0.7-0.6,1.3-1.3,1.3c-0.7,0-1.3-0.6-1.3-1.3C48.7,35,49.3,34.4,50,34.4z"/>
	<path class="st4" d="M54.2,34.4c0.7,0,1.3,0.6,1.3,1.3c0,0.7-0.6,1.3-1.3,1.3c-0.7,0-1.3-0.6-1.3-1.3C52.9,35,53.5,34.4,54.2,34.4z
		"/>
	<path class="st4" d="M58.4,34.4c0.7,0,1.3,0.6,1.3,1.3c0,0.7-0.6,1.3-1.3,1.3c-0.7,0-1.3-0.6-1.3-1.3C57.1,35,57.7,34.4,58.4,34.4z
		"/>
	<path class="st4" d="M62.6,34.4c0.7,0,1.3,0.6,1.3,1.3c0,0.7-0.6,1.3-1.3,1.3c-0.7,0-1.3-0.6-1.3-1.3C61.3,35,61.9,34.4,62.6,34.4z
		"/>
	<path class="st4" d="M66.9,34.4c0.7,0,1.3,0.6,1.3,1.3c0,0.7-0.6,1.3-1.3,1.3c-0.7,0-1.3-0.6-1.3-1.3C65.6,35,66.2,34.4,66.9,34.4z
		"/>
	<path class="st4" d="M50,38.7c0.7,0,1.3,0.6,1.3,1.3c0,0.7-0.6,1.3-1.3,1.3c-0.7,0-1.3-0.6-1.3-1.3C48.7,39.3,49.3,38.7,50,38.7z"
		/>
	<path class="st4" d="M54.2,38.7c0.7,0,1.3,0.6,1.3,1.3c0,0.7-0.6,1.3-1.3,1.3c-0.7,0-1.3-0.6-1.3-1.3
		C52.9,39.3,53.5,38.7,54.2,38.7z"/>
	<path class="st4" d="M58.4,38.7c0.7,0,1.3,0.6,1.3,1.3c0,0.7-0.6,1.3-1.3,1.3c-0.7,0-1.3-0.6-1.3-1.3
		C57.1,39.3,57.7,38.7,58.4,38.7z"/>
	<path class="st4" d="M62.6,38.7c0.7,0,1.3,0.6,1.3,1.3c0,0.7-0.6,1.3-1.3,1.3c-0.7,0-1.3-0.6-1.3-1.3
		C61.3,39.3,61.9,38.7,62.6,38.7z"/>
	<path class="st4" d="M66.9,38.7c0.7,0,1.3,0.6,1.3,1.3c0,0.7-0.6,1.3-1.3,1.3c-0.7,0-1.3-0.6-1.3-1.3
		C65.6,39.3,66.2,38.7,66.9,38.7z"/>
</g>
<g>
	<path class="st4" d="M50,58.8c0.7,0,1.3,0.6,1.3,1.3c0,0.7-0.6,1.3-1.3,1.3c-0.7,0-1.3-0.6-1.3-1.3C48.7,59.4,49.3,58.8,50,58.8z"
		/>
	<path class="st4" d="M54.2,58.8c0.7,0,1.3,0.6,1.3,1.3c0,0.7-0.6,1.3-1.3,1.3c-0.7,0-1.3-0.6-1.3-1.3
		C52.9,59.4,53.5,58.8,54.2,58.8z"/>
	<path class="st4" d="M58.4,58.8c0.7,0,1.3,0.6,1.3,1.3c0,0.7-0.6,1.3-1.3,1.3c-0.7,0-1.3-0.6-1.3-1.3
		C57.1,59.4,57.7,58.8,58.4,58.8z"/>
	<path class="st4" d="M62.6,58.8c0.7,0,1.3,0.6,1.3,1.3c0,0.7-0.6,1.3-1.3,1.3c-0.7,0-1.3-0.6-1.3-1.3
		C61.3,59.4,61.9,58.8,62.6,58.8z"/>
	<path class="st4" d="M66.9,58.8c0.7,0,1.3,0.6,1.3,1.3c0,0.7-0.6,1.3-1.3,1.3c-0.7,0-1.3-0.6-1.3-1.3
		C65.6,59.4,66.2,58.8,66.9,58.8z"/>
	<path class="st4" d="M50,63.2c0.7,0,1.3,0.6,1.3,1.3c0,0.7-0.6,1.3-1.3,1.3c-0.7,0-1.3-0.6-1.3-1.3C48.7,63.8,49.3,63.2,50,63.2z"
		/>
	<path class="st4" d="M54.2,63.2c0.7,0,1.3,0.6,1.3,1.3c0,0.7-0.6,1.3-1.3,1.3c-0.7,0-1.3-0.6-1.3-1.3
		C52.9,63.8,53.5,63.2,54.2,63.2z"/>
	<path class="st4" d="M58.4,63.2c0.7,0,1.3,0.6,1.3,1.3c0,0.7-0.6,1.3-1.3,1.3c-0.7,0-1.3-0.6-1.3-1.3
		C57.1,63.8,57.7,63.2,58.4,63.2z"/>
	<path class="st4" d="M62.6,63.2c0.7,0,1.3,0.6,1.3,1.3c0,0.7-0.6,1.3-1.3,1.3c-0.7,0-1.3-0.6-1.3-1.3
		C61.3,63.8,61.9,63.2,62.6,63.2z"/>
	<path class="st4" d="M66.9,63.2c0.7,0,1.3,0.6,1.3,1.3c0,0.7-0.6,1.3-1.3,1.3c-0.7,0-1.3-0.6-1.3-1.3
		C65.6,63.8,66.2,63.2,66.9,63.2z"/>
	<path class="st4" d="M50,67.5c0.7,0,1.3,0.6,1.3,1.3c0,0.7-0.6,1.3-1.3,1.3c-0.7,0-1.3-0.6-1.3-1.3C48.7,68.1,49.3,67.5,50,67.5z"
		/>
	<path class="st4" d="M54.2,67.5c0.7,0,1.3,0.6,1.3,1.3c0,0.7-0.6,1.3-1.3,1.3c-0.7,0-1.3-0.6-1.3-1.3
		C52.9,68.1,53.5,67.5,54.2,67.5z"/>
	<path class="st4" d="M58.4,67.5c0.7,0,1.3,0.6,1.3,1.3c0,0.7-0.6,1.3-1.3,1.3c-0.7,0-1.3-0.6-1.3-1.3
		C57.1,68.1,57.7,67.5,58.4,67.5z"/>
	<path class="st4" d="M62.6,67.5c0.7,0,1.3,0.6,1.3,1.3c0,0.7-0.6,1.3-1.3,1.3c-0.7,0-1.3-0.6-1.3-1.3
		C61.3,68.1,61.9,67.5,62.6,67.5z"/>
	<path class="st4" d="M66.9,67.5c0.7,0,1.3,0.6,1.3,1.3c0,0.7-0.6,1.3-1.3,1.3c-0.7,0-1.3-0.6-1.3-1.3
		C65.6,68.1,66.2,67.5,66.9,67.5z"/>
</g>
</svg>
