<?xml version="1.0" encoding="utf-8"?>
<!-- Generator: Adobe Illustrator 26.0.0, SVG Export Plug-In . SVG Version: 6.00 Build 0)  -->
<svg version="1.1" id="Capa_1" xmlns="http://www.w3.org/2000/svg" xmlns:xlink="http://www.w3.org/1999/xlink" x="0px" y="0px"
	 viewBox="0 0 100 100" style="enable-background:new 0 0 100 100;" xml:space="preserve">
<style type="text/css">
	.st0{fill:#FFFFFF;}
	.st1{fill:#FACD01;}
	.st2{fill:#D6CFEE;}
	.st3{fill:#AEA1DE;}
	.st4{fill:#ECF0F1;}
	.st5{fill:#1226AA;}
</style>
<path class="st0" d="M20,0.1h60c11,0,20,9,20,20v60c0,11-9,20-20,20H20c-11,0-20-9-20-20v-60C0,9,9,0.1,20,0.1z"/>
<path class="st1" d="M22.5,59.8v3.4c0,2.3,1.8,4.1,4.1,4.1h17.1h12.5h17.1c2.3,0,4.1-1.8,4.1-4.1v-3.4H22.5z"/>
<path class="st2" d="M26.6,28.2c-2.3,0-4.1,1.8-4.1,4.1v22.5v5h55V32.3c0-2.3-1.8-4.1-4.1-4.1H26.6z"/>
<path class="st3" d="M66.3,28.2v20.4c0,0-7.8-3.8-16.3,0v-25c8.1-4.2,16.3,0,16.3,0V28.2z"/>
<path class="st4" d="M50,23.5v25c-8.5-3.8-16.3,0-16.3,0V28.2v-4.6C33.8,23.5,41.9,19.3,50,23.5z"/>
<path class="st5" d="M71.3,62.3c0.7,0,1.3,0.6,1.3,1.3s-0.6,1.3-1.3,1.3c-0.7,0-1.3-0.7-1.3-1.4C70,62.8,70.6,62.3,71.3,62.3z"/>
<path class="st5" d="M67.5,62.3c0.7,0,1.3,0.6,1.3,1.3s-0.6,1.3-1.3,1.3c-0.7,0-1.3-0.6-1.3-1.3C66.3,62.8,66.8,62.3,67.5,62.3z"/>
<path class="st5" d="M63.8,62.3c0.7,0,1.3,0.6,1.3,1.3s-0.6,1.3-1.3,1.3c-0.7,0-1.3-0.6-1.3-1.3C62.5,62.8,63.1,62.3,63.8,62.3z"/>
<path class="st5" d="M55,53.5c0.7,0,1.3,0.6,1.3,1.3c0,0.7-0.6,1.3-1.3,1.3c-0.7,0-1.3-0.6-1.3-1.3C53.8,54.1,54.3,53.5,55,53.5z"/>
<path class="st5" d="M51.3,53.5c0.7,0,1.3,0.6,1.3,1.3c0,0.7-0.6,1.3-1.3,1.3c-0.7,0-1.3-0.6-1.3-1.3C50,54.1,50.6,53.5,51.3,53.5z"
	/>
<path class="st5" d="M77.5,61h-55c-0.7,0-1.3-0.6-1.3-1.3c0-0.7,0.6-1.3,1.3-1.3h55c0.7,0,1.3,0.6,1.3,1.3
	C78.8,60.4,78.2,61,77.5,61z"/>
<path class="st5" d="M56.3,78.5c-0.7,0-1.3-0.6-1.3-1.3v-10c0-0.7,0.6-1.3,1.3-1.3c0.7,0,1.3,0.6,1.3,1.3v10
	C57.5,78,56.9,78.5,56.3,78.5z"/>
<path class="st5" d="M43.8,78.5c-0.7,0-1.3-0.6-1.3-1.3v-10c0-0.7,0.6-1.3,1.3-1.3c0.7,0,1.3,0.6,1.3,1.3v10
	C45,78,44.4,78.5,43.8,78.5z"/>
<path class="st5" d="M60,78.5H40c-0.7,0-1.3-0.6-1.3-1.3c0-0.7,0.6-1.3,1.3-1.3h20c0.7,0,1.3,0.6,1.3,1.3C61.3,78,60.7,78.5,60,78.5
	z"/>
<path class="st5" d="M47.5,78.5c-0.7,0-1.3-0.6-1.3-1.3v-5c0-0.7,0.6-1.3,1.3-1.3c0.7,0,1.3,0.6,1.3,1.3v5
	C48.8,78,48.2,78.5,47.5,78.5z"/>
<path class="st5" d="M52.5,78.5c-0.7,0-1.3-0.6-1.3-1.3v-5c0-0.7,0.6-1.3,1.3-1.3c0.7,0,1.3,0.6,1.3,1.3v5
	C53.8,78,53.2,78.5,52.5,78.5z"/>
<path class="st5" d="M73.4,68.5H26.6c-3,0-5.4-2.4-5.4-5.4V32.3c0-3,2.4-5.4,5.4-5.4h7.1c0.7,0,1.3,0.6,1.3,1.3
	c0,0.7-0.6,1.3-1.3,1.3h-7.1c-1.6,0-2.9,1.3-2.9,2.9v30.9c0,1.6,1.3,2.9,2.9,2.9h46.8c1.6,0,2.9-1.3,2.9-2.9v-31
	c0-1.6-1.3-2.9-2.9-2.9h-7.1c-0.7,0-1.3-0.6-1.3-1.3c0-0.7,0.6-1.3,1.3-1.3h7.1c3,0,5.4,2.4,5.4,5.4v30.9
	C78.8,66.1,76.3,68.5,73.4,68.5z"/>
<path class="st5" d="M50,49.8c-0.2,0-0.3,0-0.5-0.1c-7.8-3.5-15.1-0.1-15.2,0c-0.4,0.2-0.8,0.2-1.2-0.1c-0.4-0.2-0.6-0.6-0.6-1.1
	v-25c0-0.5,0.3-0.9,0.7-1.1c0.4-0.2,8.8-4.4,17.4,0c0.6,0.3,0.9,1.1,0.5,1.7c-0.3,0.6-1.1,0.9-1.7,0.5C43.3,21.5,37,23.5,35,24.3
	v22.4c2.9-1,9-2.2,15.5,0.7c0.6,0.3,0.9,1,0.6,1.7C50.9,49.5,50.5,49.8,50,49.8z"/>
<path class="st5" d="M66.2,49.8c-0.2,0-0.4,0-0.5-0.1c-0.1,0-3.3-1.6-7.7-1.6c-2.6,0-5.1,0.5-7.5,1.6c-0.4,0.2-0.8,0.1-1.2-0.1
	c-0.4-0.2-0.6-0.6-0.6-1v-25c0-0.5,0.3-0.9,0.7-1.1c2.6-1.3,5.4-2,8.4-2c5.1,0,8.8,1.9,9,2c0.4,0.2,0.7,0.6,0.7,1.1v25
	c0,0.4-0.2,0.8-0.6,1.1C66.7,49.7,66.5,49.8,66.2,49.8z M58,45.6c3,0,5.5,0.6,7,1.1V24.3c-1.2-0.5-3.9-1.4-7.2-1.4
	c-2.3,0-4.5,0.5-6.6,1.4v22.4C53.4,46,55.6,45.6,58,45.6z"/>
<path class="st5" d="M45,31c-0.1,0-0.2,0-0.2,0l-6.3-1.3c-0.7-0.1-1.1-0.8-1-1.5c0.1-0.7,0.8-1.1,1.5-1l6.3,1.3
	c0.7,0.1,1.1,0.8,1,1.5C46.1,30.6,45.6,31,45,31z"/>
<path class="st5" d="M45,34.8c-0.1,0-0.2,0-0.2,0l-6.3-1.3c-0.7-0.1-1.1-0.8-1-1.5c0.1-0.7,0.8-1.1,1.5-1l6.3,1.3
	c0.7,0.1,1.1,0.8,1,1.5C46.1,34.4,45.6,34.8,45,34.8z"/>
<path class="st5" d="M45,38.5c-0.1,0-0.2,0-0.2,0l-6.3-1.3c-0.7-0.1-1.1-0.8-1-1.5c0.1-0.7,0.8-1.1,1.5-1l6.3,1.3
	c0.7,0.1,1.1,0.8,1,1.5C46.1,38.1,45.6,38.5,45,38.5z"/>
<path class="st5" d="M45,42.3c-0.1,0-0.2,0-0.2,0L38.5,41c-0.7-0.1-1.1-0.8-1-1.5c0.1-0.7,0.8-1.1,1.5-1l6.3,1.3
	c0.7,0.1,1.1,0.8,1,1.5C46.1,41.9,45.6,42.3,45,42.3z"/>
<path class="st5" d="M55,31c-0.6,0-1.1-0.4-1.2-1c-0.1-0.7,0.3-1.3,1-1.5l6.3-1.3c0.7-0.1,1.3,0.3,1.5,1c0.1,0.7-0.3,1.3-1,1.5
	L55.3,31C55.2,31,55.1,31,55,31z"/>
<path class="st5" d="M55,34.8c-0.6,0-1.1-0.4-1.2-1c-0.1-0.7,0.3-1.3,1-1.5l6.2-1.2c0.7-0.1,1.3,0.3,1.5,1c0.1,0.7-0.3,1.3-1,1.5
	l-6.3,1.3C55.2,34.8,55.1,34.8,55,34.8z"/>
<path class="st5" d="M55,38.5c-0.6,0-1.1-0.4-1.2-1c-0.1-0.7,0.3-1.3,1-1.5l6.3-1.3c0.7-0.1,1.3,0.3,1.5,1c0.1,0.7-0.3,1.3-1,1.5
	l-6.3,1.3C55.2,38.5,55.1,38.5,55,38.5z"/>
<path class="st5" d="M55,42.3c-0.6,0-1.1-0.4-1.2-1c-0.1-0.7,0.3-1.3,1-1.5l6.3-1.3c0.7-0.1,1.3,0.3,1.5,1c0.1,0.7-0.3,1.3-1,1.5
	l-6.3,1.3C55.2,42.3,55.1,42.3,55,42.3z"/>
<path class="st5" d="M47.5,56h-25c-0.7,0-1.3-0.6-1.3-1.3c0-0.7,0.6-1.3,1.3-1.3h25c0.7,0,1.3,0.6,1.3,1.3
	C48.8,55.4,48.2,56,47.5,56z"/>
</svg>
