<?xml version="1.0" encoding="utf-8"?>
<!-- Generator: Adobe Illustrator 26.0.0, SVG Export Plug-In . SVG Version: 6.00 Build 0)  -->
<svg version="1.1" id="Capa_1" xmlns="http://www.w3.org/2000/svg" xmlns:xlink="http://www.w3.org/1999/xlink" x="0px" y="0px"
	 viewBox="0 0 100 100" style="enable-background:new 0 0 100 100;" xml:space="preserve">
<style type="text/css">
	.st0{fill:#FFFFFF;}
	.st1{fill:#ECF0F1;}
	.st2{fill:#FACD01;}
	.st3{fill:#7061C5;}
	.st4{fill:#1226AA;}
</style>
<path class="st0" d="M20,0.1h60c11,0,20,9,20,20v60c0,11-9,20-20,20H20c-11,0-20-9-20-20v-60C0,9,9,0.1,20,0.1z"/>
<polygon class="st1" points="32.9,78.2 67.9,78.2 67.9,27 60.4,27 60.4,30.7 40.4,30.7 40.4,27 32.9,27 "/>
<path class="st2" d="M32.9,63.2c2.1,0,3.8,1.7,3.8,3.8v5h-3.8h-3.8v-5C29.1,64.9,30.8,63.2,32.9,63.2z"/>
<path class="st2" d="M36.6,54.5v5c0,2.1-1.7,3.8-3.8,3.8S29,61.6,29,59.5v-5h3.8H36.6z"/>
<path class="st3" d="M60.4,27v3.8h-20V27v-2.5h7.5c0-1.4,1.1-2.5,2.5-2.5c1.4,0,2.5,1.1,2.5,2.5h7.5V27z"/>
<path class="st4" d="M45.4,60.7c0.7,0,1.3,0.6,1.3,1.3c0,0.7-0.6,1.3-1.3,1.3c-0.7,0-1.3-0.6-1.3-1.3C44.1,61.3,44.7,60.7,45.4,60.7
	z"/>
<path class="st4" d="M32.9,55.7c-0.7,0-1.3-0.6-1.3-1.3V27c0-0.7,0.6-1.3,1.3-1.3h7.5c0.7,0,1.3,0.6,1.3,1.3c0,0.7-0.6,1.3-1.3,1.3
	h-6.3v26.3C34.1,55.2,33.6,55.7,32.9,55.7z"/>
<path class="st4" d="M67.9,79.5h-35c-0.7,0-1.3-0.6-1.3-1.3v-6.3c0-0.7,0.6-1.3,1.3-1.3c0.7,0,1.3,0.6,1.3,1.3v5h32.5V28.2h-6.3
	c-0.7,0-1.3-0.6-1.3-1.3c0-0.7,0.6-1.3,1.3-1.3h7.5c0.7,0,1.3,0.6,1.3,1.3v51.3C69.1,78.9,68.6,79.5,67.9,79.5z"/>
<path class="st4" d="M60.4,32h-20c-0.7,0-1.3-0.6-1.3-1.3v-6.3c0-0.7,0.6-1.3,1.3-1.3h6.5c0.5-1.5,1.9-2.5,3.5-2.5s3,1,3.5,2.5h6.5
	c0.7,0,1.3,0.6,1.3,1.3v6.3C61.6,31.4,61.1,32,60.4,32z M41.6,29.5h17.5v-3.8h-6.3c-0.7,0-1.3-0.6-1.3-1.3c0-0.7-0.6-1.3-1.3-1.3
	c-0.7,0-1.3,0.6-1.3,1.3c0,0.7-0.6,1.3-1.3,1.3h-6.3v3.8H41.6z"/>
<path class="st4" d="M32.9,64.5c-2.8,0-5-2.2-5-5v-5c0-0.7,0.6-1.3,1.3-1.3c0.7,0,1.3,0.6,1.3,1.3v5c0,1.4,1.1,2.5,2.5,2.5
	c1.4,0,2.5-1.1,2.5-2.5v-5c0-0.7,0.6-1.3,1.3-1.3c0.7,0,1.3,0.6,1.3,1.3v5C37.9,62.2,35.6,64.5,32.9,64.5z"/>
<path class="st4" d="M36.6,73.2c-0.7,0-1.3-0.6-1.3-1.3v-5c0-1.4-1.1-2.5-2.5-2.5c-1.4,0-2.5,1.1-2.5,2.5v5c0,0.7-0.6,1.3-1.3,1.3
	c-0.7,0-1.3-0.6-1.3-1.3v-5c0-2.8,2.2-5,5-5c2.8,0,5,2.2,5,5v5C37.9,72.7,37.3,73.2,36.6,73.2z"/>
<path class="st4" d="M37.9,55.7h-10c-0.7,0-1.3-0.6-1.3-1.3c0-0.7,0.6-1.3,1.3-1.3h10c0.7,0,1.3,0.6,1.3,1.3
	C39.2,55.1,38.6,55.7,37.9,55.7z"/>
<path class="st4" d="M37.9,73.2h-10c-0.7,0-1.3-0.6-1.3-1.3c0-0.7,0.6-1.3,1.3-1.3h10c0.7,0,1.3,0.6,1.3,1.3
	C39.1,72.7,38.6,73.2,37.9,73.2z"/>
<path class="st4" d="M61.6,38.2H45.4c-0.7,0-1.3-0.6-1.3-1.3c0-0.7,0.6-1.3,1.3-1.3h16.3c0.7,0,1.3,0.6,1.3,1.3
	C62.9,37.7,62.3,38.2,61.6,38.2z"/>
<path class="st4" d="M61.6,43.2H45.4c-0.7,0-1.3-0.6-1.3-1.3c0-0.7,0.6-1.3,1.3-1.3h16.3c0.7,0,1.3,0.6,1.3,1.3
	C62.9,42.7,62.3,43.2,61.6,43.2z"/>
<path class="st4" d="M61.6,48.2H45.4c-0.7,0-1.3-0.6-1.3-1.3c0-0.7,0.6-1.3,1.3-1.3h16.3c0.7,0,1.3,0.6,1.3,1.3
	C62.9,47.7,62.3,48.2,61.6,48.2z"/>
<path class="st4" d="M61.6,53.2H45.4c-0.7,0-1.3-0.6-1.3-1.3c0-0.7,0.6-1.3,1.3-1.3h16.3c0.7,0,1.3,0.6,1.3,1.3
	C63,52.6,62.3,53.2,61.6,53.2z"/>
<path class="st4" d="M61.6,58.2H45.4c-0.7,0-1.3-0.6-1.3-1.3c0-0.7,0.6-1.3,1.3-1.3h16.3c0.7,0,1.3,0.6,1.3,1.3
	C63,57.6,62.3,58.2,61.6,58.2z"/>
<path class="st4" d="M61.6,63.2H49.1c-0.7,0-1.3-0.6-1.3-1.3c0-0.7,0.6-1.3,1.3-1.3h12.5c0.7,0,1.3,0.6,1.3,1.3
	C62.9,62.6,62.3,63.2,61.6,63.2z"/>
<path class="st4" d="M38.2,42.1c-0.3,0-0.6-0.1-0.9-0.4l-1.8-1.8c-0.5-0.5-0.5-1.3,0-1.8c0.5-0.5,1.3-0.5,1.8,0l0.9,0.9l2.7-2.7
	c0.5-0.5,1.3-0.5,1.8,0s0.5,1.3,0,1.8l-3.5,3.5C38.9,42,38.6,42.1,38.2,42.1z"/>
<path class="st4" d="M38.2,49.3c-0.3,0-0.6-0.1-0.9-0.4l-1.7-1.8c-0.5-0.5-0.5-1.3,0-1.8c0.5-0.5,1.3-0.5,1.8,0l0.9,0.9l2.7-2.7
	c0.5-0.5,1.3-0.5,1.8,0c0.5,0.5,0.5,1.3,0,1.8l-3.5,3.5C38.9,49.1,38.6,49.3,38.2,49.3z"/>
</svg>
