<?xml version="1.0" encoding="utf-8"?>
<!-- Generator: Adobe Illustrator 26.0.0, SVG Export Plug-In . SVG Version: 6.00 Build 0)  -->
<svg version="1.1" id="Capa_1" xmlns="http://www.w3.org/2000/svg" xmlns:xlink="http://www.w3.org/1999/xlink" x="0px" y="0px"
	 viewBox="0 0 100 100" style="enable-background:new 0 0 100 100;" xml:space="preserve">
<style type="text/css">
	.st0{fill:#FACD01;}
	.st1{fill:#1226AA;}
</style>
<path class="st0" d="M50,0c27.6,0,50,22.4,50,50s-22.4,50-50,50C22.4,100,0,77.6,0,50S22.4,0,50,0z"/>
<path class="st1" d="M50,82.3c-0.9,0-1.6-0.8-1.6-1.6V19.3c0-0.9,0.8-1.6,1.6-1.6c0.9,0,1.6,0.8,1.6,1.6v61.5
	C51.6,81.6,50.9,82.3,50,82.3z"/>
<path class="st1" d="M27.7,41.6c-0.6-0.6-0.6-1.7,0-2.3l21.1-21.1c0.6-0.6,1.7-0.6,2.3,0c0.6,0.6,0.6,1.7,0,2.3L30,41.7
	C29.4,42.2,28.4,42.2,27.7,41.6z"/>
<path class="st1" d="M48.8,18.1c0.6-0.6,1.7-0.6,2.3,0l21.1,21.1c0.6,0.6,0.6,1.7,0,2.3c-0.6,0.6-1.7,0.6-2.3,0L48.7,20.4
	C48.2,19.8,48.2,18.8,48.8,18.1z"/>
</svg>
