<?xml version="1.0" encoding="utf-8"?>
<!-- Generator: Adobe Illustrator 26.0.0, SVG Export Plug-In . SVG Version: 6.00 Build 0)  -->
<svg version="1.1" id="Capa_1" xmlns="http://www.w3.org/2000/svg" xmlns:xlink="http://www.w3.org/1999/xlink" x="0px" y="0px"
	 viewBox="0 0 158.7 158.7" style="enable-background:new 0 0 158.7 158.7;" xml:space="preserve">
<style type="text/css">
	.st0{fill:none;}
	.st1{fill:#FFFFFF;}
	.st2{fill-rule:evenodd;clip-rule:evenodd;fill:#FFFFFF;}
	.st3{fill:#FFCD00;}
</style>
<line class="st0" x1="-0.4" y1="158.7" x2="-0.4" y2="0"/>
<line class="st0" x1="-0.4" y1="158.7" x2="-0.4" y2="0"/>
<g>
	<path class="st1" d="M125.4,42.6c-2.2-0.1-4.5-0.4-7-0.9c-1.1-10.2-9.7-18.1-20.2-18.1c-6.3,0-11.8,2.8-15.6,7.3
		c-2.4-0.9-3.8-1.5-3.8-1.5c-11.3,6.5-45.7,13.4-45.7,13.4c-4.7,71,46.1,92.3,46.1,92.3C134.5,105.7,125.4,42.6,125.4,42.6z
		 M79.3,129.5c0,0-45.8-19.2-41.5-83.1c0,0,30.9-6.2,41.1-12.1c0,0,1.8,0.8,4.7,1.9c2.7-5.5,8.4-9.3,15-9.3
		c9.2,0,16.7,7.5,16.7,16.7c0,0.7,0,1.3-0.1,1.9c2,0.3,3.9,0.6,5.7,0.7C120.8,46.3,128.9,103,79.3,129.5z"/>
	<path class="st1" d="M86.5,65.7c0,1-0.1,1.9-0.4,2.8c-0.3,0.9-0.7,1.6-1.3,2.3c-0.6,0.7-1.2,1.2-2,1.5c-0.8,0.4-1.7,0.6-2.7,0.6
		c-1,0-1.9-0.2-2.7-0.6c-0.8-0.4-1.5-0.9-2.1-1.5c-0.6-0.7-1-1.4-1.3-2.3c-0.3-0.9-0.4-1.8-0.4-2.8c0-1,0.2-1.9,0.4-2.8
		c0.3-0.9,0.7-1.6,1.3-2.3c0.6-0.7,1.2-1.2,2.1-1.5c0.8-0.4,1.7-0.6,2.7-0.6c1,0,1.9,0.2,2.7,0.6c0.8,0.4,1.5,0.9,2,1.5
		c0.6,0.7,1,1.4,1.3,2.3C86.3,63.8,86.5,64.7,86.5,65.7 M83.8,65.7c0-0.6-0.1-1.2-0.2-1.8c-0.1-0.6-0.4-1.1-0.7-1.6
		c-0.3-0.5-0.7-0.8-1.2-1.1c-0.5-0.3-1.1-0.4-1.7-0.4c-0.7,0-1.2,0.1-1.7,0.4c-0.5,0.3-0.9,0.7-1.2,1.1c-0.3,0.5-0.5,1-0.7,1.6
		c-0.1,0.6-0.2,1.2-0.2,1.8c0,0.6,0.1,1.2,0.2,1.8s0.4,1.1,0.7,1.6c0.3,0.5,0.7,0.8,1.2,1.1c0.5,0.3,1.1,0.4,1.7,0.4
		c0.7,0,1.2-0.1,1.7-0.4c0.5-0.3,0.9-0.7,1.2-1.1c0.3-0.5,0.5-1,0.7-1.6C83.7,66.9,83.8,66.3,83.8,65.7"/>
	<path class="st1" d="M66.9,91.9c0,0.8-0.2,1.5-0.5,2c-0.3,0.6-0.7,1-1.3,1.3c-0.5,0.3-1.1,0.6-1.8,0.7c-0.7,0.2-1.3,0.2-2,0.2
		c-0.5,0-1.1-0.1-1.8-0.2c-0.7-0.1-1.3-0.4-1.9-0.7c-0.6-0.4-1.1-0.9-1.5-1.5c-0.4-0.6-0.6-1.5-0.6-2.5h2.7c0,0.5,0.1,1,0.2,1.3
		c0.2,0.4,0.4,0.7,0.7,0.9c0.3,0.2,0.6,0.4,1,0.5c0.4,0.1,0.8,0.2,1.3,0.2c0.3,0,0.6,0,0.9-0.1c0.3-0.1,0.6-0.2,0.8-0.4
		c0.2-0.2,0.4-0.4,0.6-0.6c0.2-0.3,0.2-0.6,0.2-1c0-0.4-0.1-0.7-0.2-0.9c-0.2-0.2-0.4-0.4-0.7-0.6c-0.3-0.2-0.7-0.3-1.1-0.4
		c-0.4-0.1-0.9-0.3-1.5-0.4c-0.5-0.1-1.1-0.3-1.6-0.5c-0.5-0.2-1-0.4-1.4-0.7c-0.4-0.3-0.8-0.6-1-1.1c-0.3-0.4-0.4-1-0.4-1.7
		c0-0.7,0.1-1.4,0.4-1.9c0.3-0.5,0.7-1,1.1-1.3c0.5-0.3,1-0.6,1.6-0.7c0.6-0.2,1.2-0.2,1.9-0.2c0.7,0,1.4,0.1,2,0.2
		c0.6,0.2,1.2,0.4,1.7,0.7c0.5,0.3,0.9,0.8,1.1,1.4c0.3,0.6,0.4,1.2,0.5,2h-2.6c0-0.4-0.1-0.8-0.2-1.1c-0.1-0.3-0.3-0.5-0.6-0.7
		c-0.2-0.2-0.5-0.3-0.9-0.4c-0.3-0.1-0.7-0.1-1-0.1c-0.3,0-0.5,0-0.8,0.1c-0.3,0.1-0.6,0.2-0.8,0.3c-0.2,0.1-0.5,0.3-0.6,0.5
		c-0.2,0.2-0.2,0.5-0.2,0.9c0,0.4,0.1,0.7,0.4,0.9c0.2,0.2,0.6,0.4,0.9,0.6c0.4,0.2,0.8,0.3,1.3,0.4c0.5,0.1,1,0.2,1.5,0.4
		c0.5,0.1,1,0.3,1.5,0.5c0.5,0.2,0.9,0.4,1.3,0.7c0.4,0.3,0.7,0.7,0.9,1.1C66.8,90.7,66.9,91.2,66.9,91.9"/>
	<path class="st1" d="M104.4,93.3c-0.1,0.3-0.2,0.6-0.3,0.8c-0.2,0.2-0.4,0.4-0.7,0.6c-0.3,0.1-0.7,0.2-1.2,0.2h-7.5V81.2h2.7v11.4
		h4.1c0.5,0,0.9-0.1,1.1-0.3c0.2-0.2,0.3-0.5,0.3-0.9l1.8,0.9C104.4,92.7,104.4,93,104.4,93.3"/>
	<g>
		<path class="st1" d="M77,109.3c-0.1,0-0.2,0-0.2,0.1c-0.1,0.1-0.1,0.2-0.1,0.5v1.7c0,0.3,0.1,0.5,0.3,0.5c0.1,0,0.3-0.1,0.4-0.2
			v-2.1C77.3,109.5,77.2,109.3,77,109.3z"/>
		<path class="st1" d="M41.9,49.3c-0.8,11.9,0.4,22.1,2.7,30.8l32.1-40.5C66,44.4,41.9,49.3,41.9,49.3z"/>
		<path class="st1" d="M64.9,114.2c7.7,7,14.3,9.8,14.3,9.8c5.7-3,10.5-6.5,14.6-10.2L79.7,95.4L64.9,114.2z M74.5,114.2h-2.9v-0.2
			h0.6v-4.4h-0.6v-0.2H72c0.3,0,0.5,0,0.8-0.1c0.3,0,0.7-0.1,1-0.3v4.9h0.6V114.2z M78.8,113.1c-0.3,0.4-0.6,0.7-1.1,0.9
			c-0.4,0.2-0.9,0.3-1.4,0.3c-0.5,0-0.9-0.1-1.1-0.3c-0.3-0.2-0.4-0.4-0.4-0.7c0-0.2,0.1-0.4,0.2-0.5c0.1-0.1,0.3-0.2,0.5-0.2
			c0.2,0,0.4,0.1,0.5,0.2c0.1,0.1,0.2,0.3,0.2,0.5c0,0.3-0.1,0.5-0.4,0.6c0.2,0.1,0.4,0.1,0.6,0.1c0.2,0,0.4,0,0.5-0.1
			c0.2-0.1,0.3-0.1,0.3-0.2c0-0.1,0.1-0.2,0.1-0.4v-1.2c-0.1,0.1-0.3,0.1-0.4,0.2c-0.1,0-0.3,0-0.5,0c-0.5,0-0.9-0.1-1.3-0.4
			c-0.3-0.3-0.5-0.6-0.5-1.1c0-0.5,0.2-0.9,0.6-1.2c0.4-0.3,0.9-0.5,1.5-0.5c0.6,0,1,0.1,1.4,0.4c0.3,0.3,0.6,0.6,0.7,1
			c0.1,0.3,0.2,0.7,0.2,1.1C79.2,112.2,79,112.7,78.8,113.1z M84.8,114.1c0.2,0,0.3,0,0.4-0.1c0.1-0.1,0.2-0.1,0.2-0.2
			c0-0.1,0-0.2,0-0.3v-1.9c0-0.3-0.1-0.5-0.4-0.5c-0.2,0-0.5,0.1-0.8,0.3l0.2-2.2c0.4,0.1,0.9,0.1,1.4,0.1c0.6,0,1.2,0,1.6-0.2
			c-0.2,0.9-0.8,1.4-1.8,1.4h-1.2l-0.1,0.6c0.3-0.1,0.7-0.2,1-0.2c0.6,0,1,0.2,1.4,0.5c0.4,0.3,0.5,0.7,0.5,1.2c0,0.6-0.2,1-0.7,1.3
			c-0.4,0.3-1,0.5-1.7,0.5c-0.5,0-0.9-0.1-1.2-0.3c-0.3-0.2-0.4-0.4-0.4-0.7c0-0.2,0.1-0.4,0.2-0.5c0.1-0.1,0.3-0.2,0.5-0.2
			c0.2,0,0.4,0.1,0.5,0.2c0.1,0.1,0.2,0.3,0.2,0.5c0,0.4-0.2,0.6-0.7,0.7v0C84.4,114.1,84.6,114.1,84.8,114.1z M79.9,109.1
			c0,0.1,0,0.2,0,0.3v0.1c0.3-0.2,0.8-0.3,1.3-0.3c0.3,0,0.6,0,1,0.1c0.4,0.1,0.6,0.1,0.8,0.1c0.3,0,0.6-0.1,0.7-0.2l0.1,0.1
			c-0.3,0.3-0.6,0.7-0.9,1.3c-0.3,0.6-0.4,1.3-0.4,2.1v0.1c0,0.3,0,0.6-0.1,0.8c-0.1,0.2-0.2,0.4-0.3,0.6c-0.2,0.1-0.4,0.2-0.7,0.2
			c-0.3,0-0.5-0.1-0.7-0.3s-0.3-0.4-0.3-0.7c0-0.3,0.1-0.7,0.3-1c0.2-0.3,0.5-0.8,1-1.3c0.4-0.3,0.6-0.6,0.8-0.7
			c0.1-0.1,0.3-0.3,0.4-0.5l0,0c-0.2,0.2-0.5,0.4-0.8,0.5c-0.4,0.1-0.8,0.2-1.2,0.2l-0.7,0c-0.2,0-0.4,0-0.5,0.1
			c-0.1,0.1-0.2,0.2-0.3,0.4h-0.2c0.2-0.5,0.3-1.1,0.3-1.6c0-0.1,0-0.2,0-0.3H79.9z"/>
		<path class="st1" d="M116.6,49.1c-9.1-0.6-21.8-4.7-29.9-7.7c-1.5-0.6-1.2,2.2-1.2,2.2l28.2,37.3
			C118.7,63.7,116.6,49.1,116.6,49.1z"/>
	</g>
	<path class="st2" d="M81.2,89.9L99,67.6l13.3,17.6c0.3-0.8,0.5-1.6,0.8-2.3L80.1,39c-0.3-0.1-0.5-0.2-0.7-0.3L45.2,82.8
		c0.3,0.9,0.6,1.8,0.9,2.7l14.1-18.3l18.1,22.7l-16.6,21.2c0.6,0.6,1.2,1.3,1.8,1.8l16.2-20.4l15.4,20c0.6-0.6,1.3-1.2,1.9-1.9
		L81.2,89.9z M79.7,88.3l-18-22.4l18-23.4l17.7,23.4L79.7,88.3z"/>
	<path class="st3" d="M112.4,43.7c0,7.6-6.2,13.7-13.7,13.7c-1,0-2-0.1-2.9-0.3C93.4,54,85.1,43,84.9,42.8
		c0.5-7.2,6.4-12.9,13.7-12.9C106.3,29.9,112.4,36.1,112.4,43.7"/>
</g>
</svg>
