<?xml version="1.0" encoding="utf-8"?>
<!-- Generator: Adobe Illustrator 26.0.0, SVG Export Plug-In . SVG Version: 6.00 Build 0)  -->
<svg version="1.1" id="Capa_1" xmlns="http://www.w3.org/2000/svg" xmlns:xlink="http://www.w3.org/1999/xlink" x="0px" y="0px"
	 viewBox="0 0 93.2 158.7" style="enable-background:new 0 0 93.2 158.7;" xml:space="preserve">
<style type="text/css">
	.st0{fill:#FFFFFF;}
	.st1{fill-rule:evenodd;clip-rule:evenodd;fill:#FFFFFF;}
	.st2{fill:#FFCD00;}
</style>
<g>
	<path class="st0" d="M92.6,42.6c-2.2-0.1-4.5-0.4-7-0.9c-1.1-10.2-9.7-18.1-20.2-18.1c-6.3,0-11.8,2.8-15.6,7.3
		C47.4,30,46,29.4,46,29.4C34.7,35.9,0.3,42.8,0.3,42.8c-4.7,71,46.1,92.3,46.1,92.3C101.7,105.7,92.6,42.6,92.6,42.6z M46.5,129.5
		c0,0-45.8-19.2-41.5-83.1c0,0,30.9-6.2,41.1-12.1c0,0,1.8,0.8,4.7,1.9c2.7-5.5,8.4-9.3,15-9.3c9.2,0,16.7,7.5,16.7,16.7
		c0,0.7,0,1.3-0.1,1.9c2,0.3,3.9,0.6,5.7,0.7C88,46.3,96.1,103,46.5,129.5z"/>
	<path class="st0" d="M53.7,65.7c0,1-0.1,1.9-0.4,2.8s-0.7,1.6-1.3,2.3c-0.6,0.7-1.2,1.2-2,1.5c-0.8,0.4-1.7,0.6-2.7,0.6
		s-1.9-0.2-2.7-0.6c-0.8-0.4-1.5-0.9-2.1-1.5c-0.6-0.7-1-1.4-1.3-2.3s-0.4-1.8-0.4-2.8s0.2-1.9,0.4-2.8c0.3-0.9,0.7-1.6,1.3-2.3
		c0.6-0.7,1.2-1.2,2.1-1.5c0.8-0.4,1.7-0.6,2.7-0.6s1.9,0.2,2.7,0.6c0.8,0.4,1.5,0.9,2,1.5c0.6,0.7,1,1.4,1.3,2.3
		C53.5,63.8,53.7,64.7,53.7,65.7 M51,65.7c0-0.6-0.1-1.2-0.2-1.8c-0.1-0.6-0.4-1.1-0.7-1.6c-0.3-0.5-0.7-0.8-1.2-1.1
		s-1.1-0.4-1.7-0.4c-0.7,0-1.2,0.1-1.7,0.4c-0.5,0.3-0.9,0.7-1.2,1.1c-0.3,0.5-0.5,1-0.7,1.6c-0.1,0.6-0.2,1.2-0.2,1.8
		s0.1,1.2,0.2,1.8s0.4,1.1,0.7,1.6c0.3,0.5,0.7,0.8,1.2,1.1c0.5,0.3,1.1,0.4,1.7,0.4c0.7,0,1.2-0.1,1.7-0.4s0.9-0.7,1.2-1.1
		c0.3-0.5,0.5-1,0.7-1.6C50.9,66.9,51,66.3,51,65.7"/>
	<path class="st0" d="M34.1,91.9c0,0.8-0.2,1.5-0.5,2c-0.3,0.6-0.7,1-1.3,1.3c-0.5,0.3-1.1,0.6-1.8,0.7c-0.7,0.2-1.3,0.2-2,0.2
		c-0.5,0-1.1-0.1-1.8-0.2s-1.3-0.4-1.9-0.7c-0.6-0.4-1.1-0.9-1.5-1.5s-0.6-1.5-0.6-2.5h2.7c0,0.5,0.1,1,0.2,1.3
		c0.2,0.4,0.4,0.7,0.7,0.9c0.3,0.2,0.6,0.4,1,0.5s0.8,0.2,1.3,0.2c0.3,0,0.6,0,0.9-0.1c0.3-0.1,0.6-0.2,0.8-0.4
		c0.2-0.2,0.4-0.4,0.6-0.6c0.2-0.3,0.2-0.6,0.2-1s-0.1-0.7-0.2-0.9c-0.2-0.2-0.4-0.4-0.7-0.6s-0.7-0.3-1.1-0.4
		c-0.4-0.1-0.9-0.3-1.5-0.4c-0.5-0.1-1.1-0.3-1.6-0.5s-1-0.4-1.4-0.7c-0.4-0.3-0.8-0.6-1-1.1c-0.3-0.4-0.4-1-0.4-1.7
		s0.1-1.4,0.4-1.9c0.3-0.5,0.7-1,1.1-1.3c0.5-0.3,1-0.6,1.6-0.7c0.6-0.2,1.2-0.2,1.9-0.2s1.4,0.1,2,0.2c0.6,0.2,1.2,0.4,1.7,0.7
		c0.5,0.3,0.9,0.8,1.1,1.4c0.3,0.6,0.4,1.2,0.5,2h-2.6c0-0.4-0.1-0.8-0.2-1.1c-0.1-0.3-0.3-0.5-0.6-0.7c-0.2-0.2-0.5-0.3-0.9-0.4
		c-0.3-0.1-0.7-0.1-1-0.1s-0.5,0-0.8,0.1s-0.6,0.2-0.8,0.3c-0.2,0.1-0.5,0.3-0.6,0.5c-0.2,0.2-0.2,0.5-0.2,0.9s0.1,0.7,0.4,0.9
		c0.2,0.2,0.6,0.4,0.9,0.6c0.4,0.2,0.8,0.3,1.3,0.4s1,0.2,1.5,0.4c0.5,0.1,1,0.3,1.5,0.5c0.5,0.2,0.9,0.4,1.3,0.7
		c0.4,0.3,0.7,0.7,0.9,1.1C34,90.7,34.1,91.2,34.1,91.9"/>
	<path class="st0" d="M71.6,93.3c-0.1,0.3-0.2,0.6-0.3,0.8c-0.2,0.2-0.4,0.4-0.7,0.6c-0.3,0.1-0.7,0.2-1.2,0.2h-7.5V81.2h2.7v11.4
		h4.1c0.5,0,0.9-0.1,1.1-0.3c0.2-0.2,0.3-0.5,0.3-0.9l1.8,0.9C71.6,92.7,71.6,93,71.6,93.3"/>
	<g>
		<path class="st0" d="M44.2,109.3c-0.1,0-0.2,0-0.2,0.1c-0.1,0.1-0.1,0.2-0.1,0.5v1.7c0,0.3,0.1,0.5,0.3,0.5c0.1,0,0.3-0.1,0.4-0.2
			v-2.1C44.5,109.5,44.4,109.3,44.2,109.3z"/>
		<path class="st0" d="M9.1,49.3c-0.8,11.9,0.4,22.1,2.7,30.8l32.1-40.5C33.2,44.4,9.1,49.3,9.1,49.3z"/>
		<path class="st0" d="M32.1,114.2c7.7,7,14.3,9.8,14.3,9.8c5.7-3,10.5-6.5,14.6-10.2L46.9,95.4L32.1,114.2z M41.7,114.2h-2.9V114
			h0.6v-4.4h-0.6v-0.2h0.4c0.3,0,0.5,0,0.8-0.1c0.3,0,0.7-0.1,1-0.3v4.9h0.6L41.7,114.2L41.7,114.2z M46,113.1
			c-0.3,0.4-0.6,0.7-1.1,0.9c-0.4,0.2-0.9,0.3-1.4,0.3s-0.9-0.1-1.1-0.3c-0.3-0.2-0.4-0.4-0.4-0.7c0-0.2,0.1-0.4,0.2-0.5
			s0.3-0.2,0.5-0.2s0.4,0.1,0.5,0.2s0.2,0.3,0.2,0.5c0,0.3-0.1,0.5-0.4,0.6c0.2,0.1,0.4,0.1,0.6,0.1s0.4,0,0.5-0.1
			c0.2-0.1,0.3-0.1,0.3-0.2s0.1-0.2,0.1-0.4v-1.2c-0.1,0.1-0.3,0.1-0.4,0.2c-0.1,0-0.3,0-0.5,0c-0.5,0-0.9-0.1-1.3-0.4
			c-0.3-0.3-0.5-0.6-0.5-1.1s0.2-0.9,0.6-1.2c0.4-0.3,0.9-0.5,1.5-0.5s1,0.1,1.4,0.4c0.3,0.3,0.6,0.6,0.7,1c0.1,0.3,0.2,0.7,0.2,1.1
			C46.4,112.2,46.2,112.7,46,113.1z M52,114.1c0.2,0,0.3,0,0.4-0.1s0.2-0.1,0.2-0.2s0-0.2,0-0.3v-1.9c0-0.3-0.1-0.5-0.4-0.5
			c-0.2,0-0.5,0.1-0.8,0.3l0.2-2.2c0.4,0.1,0.9,0.1,1.4,0.1c0.6,0,1.2,0,1.6-0.2c-0.2,0.9-0.8,1.4-1.8,1.4h-1.2l-0.1,0.6
			c0.3-0.1,0.7-0.2,1-0.2c0.6,0,1,0.2,1.4,0.5s0.5,0.7,0.5,1.2c0,0.6-0.2,1-0.7,1.3c-0.4,0.3-1,0.5-1.7,0.5c-0.5,0-0.9-0.1-1.2-0.3
			c-0.3-0.2-0.4-0.4-0.4-0.7c0-0.2,0.1-0.4,0.2-0.5s0.3-0.2,0.5-0.2s0.4,0.1,0.5,0.2s0.2,0.3,0.2,0.5c0,0.4-0.2,0.6-0.7,0.7l0,0
			C51.6,114.1,51.8,114.1,52,114.1z M47.1,109.1c0,0.1,0,0.2,0,0.3v0.1c0.3-0.2,0.8-0.3,1.3-0.3c0.3,0,0.6,0,1,0.1s0.6,0.1,0.8,0.1
			c0.3,0,0.6-0.1,0.7-0.2l0.1,0.1c-0.3,0.3-0.6,0.7-0.9,1.3c-0.3,0.6-0.4,1.3-0.4,2.1v0.1c0,0.3,0,0.6-0.1,0.8
			c-0.1,0.2-0.2,0.4-0.3,0.6c-0.2,0.1-0.4,0.2-0.7,0.2c-0.3,0-0.5-0.1-0.7-0.3s-0.3-0.4-0.3-0.7c0-0.3,0.1-0.7,0.3-1
			c0.2-0.3,0.5-0.8,1-1.3c0.4-0.3,0.6-0.6,0.8-0.7c0.1-0.1,0.3-0.3,0.4-0.5l0,0c-0.2,0.2-0.5,0.4-0.8,0.5c-0.4,0.1-0.8,0.2-1.2,0.2
			h-0.7c-0.2,0-0.4,0-0.5,0.1s-0.2,0.2-0.3,0.4h-0.2c0.2-0.5,0.3-1.1,0.3-1.6c0-0.1,0-0.2,0-0.3L47.1,109.1L47.1,109.1z"/>
		<path class="st0" d="M83.8,49.1c-9.1-0.6-21.8-4.7-29.9-7.7c-1.5-0.6-1.2,2.2-1.2,2.2l28.2,37.3C85.9,63.7,83.8,49.1,83.8,49.1z"
			/>
	</g>
	<path class="st1" d="M48.4,89.9l17.8-22.3l13.3,17.6c0.3-0.8,0.5-1.6,0.8-2.3L47.3,39c-0.3-0.1-0.5-0.2-0.7-0.3L12.4,82.8
		c0.3,0.9,0.6,1.8,0.9,2.7l14.1-18.3l18.1,22.7l-16.6,21.2c0.6,0.6,1.2,1.3,1.8,1.8l16.2-20.4l15.4,20c0.6-0.6,1.3-1.2,1.9-1.9
		L48.4,89.9z M46.9,88.3l-18-22.4l18-23.4l17.7,23.4L46.9,88.3z"/>
	<path class="st2" d="M79.6,43.7c0,7.6-6.2,13.7-13.7,13.7c-1,0-2-0.1-2.9-0.3C60.6,54,52.3,43,52.1,42.8
		c0.5-7.2,6.4-12.9,13.7-12.9C73.5,29.9,79.6,36.1,79.6,43.7"/>
</g>
</svg>
