<?xml version="1.0" encoding="utf-8"?>
<!-- Generator: Adobe Illustrator 26.0.0, SVG Export Plug-In . SVG Version: 6.00 Build 0)  -->
<svg version="1.1" id="Capa_1" xmlns="http://www.w3.org/2000/svg" xmlns:xlink="http://www.w3.org/1999/xlink" x="0px" y="0px"
	 viewBox="0 0 492.6 111.5" style="enable-background:new 0 0 492.6 111.5;" xml:space="preserve">
<style type="text/css">
	.st0{fill:#FFFFFF;}
	.st1{fill:#FFCD00;}
	.st2{fill-rule:evenodd;clip-rule:evenodd;fill:#FFFFFF;}
</style>
<path class="st0" d="M424.1,26.8l-5.3,4.6c-1.8-2.6-3.7-3.9-5.6-3.9c-0.9,0-1.7,0.2-2.3,0.7c-0.6,0.5-0.9,1.1-0.9,1.7
	s0.2,1.2,0.6,1.8c0.6,0.7,2.3,2.3,5.2,4.8c2.7,2.3,4.4,3.7,4.9,4.3c1.4,1.5,2.5,2.8,3.1,4.2c0.6,1.3,0.9,2.8,0.9,4.4
	c0,3.1-1.1,5.6-3.2,7.6s-4.9,3-8.3,3c-2.7,0-5-0.7-7-2s-3.7-3.4-5.1-6.1l6-3.6c1.8,3.3,3.9,5,6.2,5c1.2,0,2.2-0.4,3.1-1.1
	c0.8-0.7,1.2-1.5,1.2-2.5c0-0.8-0.3-1.7-0.9-2.5s-2-2.1-4.1-3.9c-4.1-3.3-6.7-5.9-7.9-7.7c-1.2-1.8-1.8-3.6-1.8-5.4
	c0-2.6,1-4.8,3-6.7s4.4-2.8,7.3-2.8c1.9,0,3.6,0.4,5.3,1.3C420.3,22.9,422.1,24.5,424.1,26.8"/>
<path class="st0" d="M449.1,20.8c5.3,0,9.8,1.9,13.6,5.7s5.7,8.5,5.7,14c0,5.4-1.9,10.1-5.6,13.8c-3.7,3.8-8.3,5.7-13.7,5.7
	c-5.6,0-10.3-1.9-14-5.8s-5.6-8.5-5.6-13.8c0-3.6,0.9-6.9,2.6-9.8c1.7-3,4.1-5.4,7.1-7.1C442.4,21.6,445.7,20.8,449.1,20.8
	 M449.1,27.7c-3.5,0-6.4,1.2-8.7,3.6c-2.4,2.4-3.5,5.5-3.5,9.2c0,4.1,1.5,7.4,4.4,9.8c2.3,1.9,5,2.8,7.9,2.8c3.4,0,6.2-1.2,8.6-3.7
	c2.4-2.4,3.6-5.4,3.6-9s-1.2-6.6-3.6-9C455.4,29,452.5,27.7,449.1,27.7"/>
<polygon class="st0" points="475.2,21.7 482.3,21.7 482.3,52.3 492.6,52.3 492.6,59.1 475.2,59.1 "/>
<path class="st0" d="M92.6,19c-2.2-0.1-4.5-0.4-7-0.9C84.5,7.9,75.9,0,65.4,0c-6.3,0-11.8,2.8-15.6,7.3C47.4,6.4,46,5.8,46,5.8
	C34.7,12.3,0.3,19.2,0.3,19.2c-4.7,71,46.1,92.3,46.1,92.3C101.7,82.1,92.6,19,92.6,19z M46.5,105.9c0,0-45.8-19.2-41.5-83.1
	c0,0,30.9-6.2,41.1-12.1c0,0,1.8,0.8,4.7,1.9c2.7-5.5,8.4-9.3,15-9.3c9.2,0,16.7,7.5,16.7,16.7c0,0.7,0,1.3-0.1,1.9
	c2,0.3,3.9,0.6,5.7,0.7C88,22.7,96.2,79.4,46.5,105.9z"/>
<path class="st0" d="M53.7,42.1c0,1-0.1,1.9-0.4,2.8s-0.7,1.6-1.3,2.3s-1.2,1.2-2,1.5c-0.8,0.4-1.7,0.6-2.7,0.6s-1.9-0.2-2.7-0.6
	c-0.8-0.4-1.5-0.9-2.1-1.5c-0.6-0.7-1-1.4-1.3-2.3s-0.4-1.8-0.4-2.8s0.2-1.9,0.4-2.8c0.3-0.9,0.7-1.6,1.3-2.3s1.2-1.2,2.1-1.5
	c0.8-0.4,1.7-0.6,2.7-0.6s1.9,0.2,2.7,0.6c0.8,0.4,1.5,0.9,2,1.5c0.6,0.7,1,1.4,1.3,2.3S53.7,41.1,53.7,42.1 M51,42.1
	c0-0.6-0.1-1.2-0.2-1.8s-0.4-1.1-0.7-1.6s-0.7-0.8-1.2-1.1s-1.1-0.4-1.7-0.4c-0.7,0-1.2,0.1-1.7,0.4c-0.5,0.3-0.9,0.7-1.2,1.1
	c-0.3,0.5-0.5,1-0.7,1.6c-0.1,0.6-0.2,1.2-0.2,1.8s0.1,1.2,0.2,1.8s0.4,1.1,0.7,1.6s0.7,0.8,1.2,1.1s1.1,0.4,1.7,0.4
	c0.7,0,1.2-0.1,1.7-0.4s0.9-0.7,1.2-1.1c0.3-0.5,0.5-1,0.7-1.6S51,42.7,51,42.1"/>
<path class="st0" d="M34.2,68.3c0,0.8-0.2,1.5-0.5,2c-0.3,0.6-0.7,1-1.3,1.3c-0.5,0.3-1.1,0.6-1.8,0.7c-0.7,0.2-1.3,0.2-2,0.2
	c-0.5,0-1.1-0.1-1.8-0.2c-0.7-0.1-1.3-0.4-1.9-0.7c-0.6-0.4-1.1-0.9-1.5-1.5s-0.6-1.5-0.6-2.5h2.7c0,0.5,0.1,1,0.2,1.3
	c0.2,0.4,0.4,0.7,0.7,0.9c0.3,0.2,0.6,0.4,1,0.5s0.8,0.2,1.3,0.2c0.3,0,0.6,0,0.9-0.1s0.6-0.2,0.8-0.4c0.2-0.2,0.4-0.4,0.6-0.6
	c0.2-0.3,0.2-0.6,0.2-1s-0.1-0.7-0.2-0.9c-0.2-0.2-0.4-0.4-0.7-0.6c-0.3-0.2-0.7-0.3-1.1-0.4s-0.9-0.3-1.5-0.4
	c-0.5-0.1-1.1-0.3-1.6-0.5s-1-0.4-1.4-0.7c-0.4-0.3-0.8-0.6-1-1.1c-0.3-0.4-0.4-1-0.4-1.7s0.1-1.4,0.4-1.9s0.7-1,1.1-1.3
	c0.5-0.3,1-0.6,1.6-0.7C27,58,27.6,58,28.3,58c0.7,0,1.4,0.1,2,0.2c0.6,0.2,1.2,0.4,1.7,0.7s0.9,0.8,1.1,1.4c0.3,0.6,0.4,1.2,0.5,2
	h-2.4c0-0.4-0.1-0.8-0.2-1.1s-0.3-0.5-0.6-0.7c-0.2-0.2-0.5-0.3-0.9-0.4c-0.3-0.1-0.7-0.1-1-0.1s-0.5,0-0.8,0.1s-0.6,0.2-0.8,0.3
	c-0.2,0.1-0.5,0.3-0.6,0.5c-0.2,0.2-0.2,0.5-0.2,0.9s0.1,0.7,0.4,0.9c0.2,0.2,0.6,0.4,0.9,0.6c0.4,0.2,0.8,0.3,1.3,0.4
	s1,0.2,1.5,0.4c0.5,0.1,1,0.3,1.5,0.5s0.9,0.4,1.3,0.7c0.4,0.3,0.7,0.7,0.9,1.1C34.1,67.1,34.2,67.6,34.2,68.3"/>
<path class="st0" d="M71.6,69.7c-0.1,0.3-0.2,0.6-0.3,0.8c-0.2,0.2-0.4,0.4-0.7,0.6c-0.3,0.1-0.7,0.2-1.2,0.2h-7.5V57.6h2.7V69h4.1
	c0.5,0,0.9-0.1,1.1-0.3c0.2-0.2,0.3-0.5,0.3-0.9l1.8,0.9C71.7,69.1,71.7,69.4,71.6,69.7"/>
<path class="st0" d="M126.3,21.9l17.8,38.3H140l-6-12.6h-16.5l-6,12.6h-4.3l18.1-38.3C125.3,21.9,126.3,21.9,126.3,21.9z M125.8,30
	l-6.6,13.9h13.1L125.8,30z"/>
<path class="st0" d="M185.7,29l-3,2.3c-1.7-2.2-3.7-3.8-6-4.9s-4.9-1.7-7.7-1.7c-3.1,0-5.9,0.7-8.5,2.2s-4.6,3.4-6.1,5.9
	c-1.4,2.5-2.1,5.2-2.1,8.3c0,4.7,1.6,8.6,4.8,11.7s7.2,4.7,12.1,4.7c5.4,0,9.8-2.1,13.5-6.3l3,2.3c-1.9,2.4-4.3,4.3-7.1,5.6
	c-2.9,1.3-6,2-9.6,2c-6.7,0-12-2.2-15.8-6.7c-3.2-3.8-4.9-8.3-4.9-13.6c0-5.6,2-10.3,5.9-14.1S163,21,169,21c3.6,0,6.8,0.7,9.7,2.1
	C181.5,24.5,183.9,26.5,185.7,29"/>
<path class="st0" d="M209,21.9l17.9,38.3h-4.1l-6-12.6h-16.6l-6,12.6h-4.3L208,21.9H209z M208.5,30l-6.6,13.9H215L208.5,30z"/>
<path class="st0" d="M232.8,60.2V21.9h7.9c5.7,0,9.9,0.5,12.5,1.4c3.7,1.3,6.6,3.6,8.7,6.8s3.1,7,3.1,11.5c0,3.8-0.8,7.2-2.5,10.1
	s-3.8,5.1-6.5,6.5c-2.6,1.4-6.4,2.1-11.1,2.1L232.8,60.2L232.8,60.2z M236.5,56.6h4.4c5.3,0,9-0.3,11-1c2.9-0.9,5.1-2.6,6.8-5.1
	c1.6-2.4,2.5-5.4,2.5-8.9c0-3.7-0.9-6.8-2.7-9.5c-1.8-2.6-4.3-4.4-7.5-5.4c-2.4-0.7-6.3-1.1-11.8-1.1h-2.7L236.5,56.6L236.5,56.6z"
	/>
<polygon class="st0" points="272.5,21.9 294.4,21.9 294.4,25.7 276.3,25.7 276.3,37.7 294.3,37.7 294.3,41.4 276.3,41.4 276.3,56.4 
	294.3,56.4 294.3,60.2 272.5,60.2 "/>
<polygon class="st0" points="299.3,60.2 304.8,21.9 305.4,21.9 320.9,53.3 336.4,21.9 337,21.9 342.5,60.2 338.7,60.2 334.9,32.8 
	321.4,60.2 320.4,60.2 306.7,32.6 303,60.2 "/>
<rect x="349.4" y="21.9" class="st0" width="3.8" height="38.3"/>
<path class="st0" d="M377.7,21.9l17.9,38.3h-4.1l-6-12.6H369l-6,12.6h-4.3l18.1-38.3C376.8,21.9,377.7,21.9,377.7,21.9z M377.2,30
	l-6.6,13.9h13.1L377.2,30z"/>
<g>
	<path class="st1" d="M117.1,79.7l0.2,4.6H117c-0.1-0.8-0.3-1.4-0.6-1.9s-0.7-1-1.2-1.4c-0.4-0.3-1-0.6-1.6-0.7s-1.4-0.2-2.4-0.2
		H108v8.4h0.8c0.9,0,1.5-0.1,1.9-0.2c0.4-0.1,0.8-0.3,1-0.6c0.3-0.3,0.5-0.6,0.6-1c0.1-0.4,0.2-0.9,0.3-1.6h0.3l-0.1,7.5h-0.3
		c-0.1-0.7-0.2-1.3-0.4-1.7c-0.2-0.4-0.4-0.8-0.7-1.1c-0.3-0.3-0.6-0.5-1.1-0.7c-0.4-0.1-1-0.2-1.7-0.2h-0.8v3.2
		c0,1.3,0,2.2,0.1,2.8c0.1,0.6,0.2,1.1,0.4,1.5c0.3,0.7,0.8,1.2,1.4,1.5s1.5,0.5,2.6,0.5s2.1-0.1,2.8-0.4c0.8-0.3,1.4-0.7,1.8-1.3
		c0.3-0.4,0.6-0.9,0.8-1.4s0.4-1.2,0.6-2h0.3l-0.2,5.6h-16.7v-0.3c0.5,0,1-0.1,1.3-0.2s0.6-0.3,0.9-0.6c0.3-0.3,0.5-0.7,0.6-1.1
		c0.1-0.5,0.2-1.2,0.2-2.1V84.3c0-0.9-0.1-1.7-0.2-2.1c-0.1-0.5-0.3-0.8-0.6-1.1c-0.3-0.3-0.5-0.5-0.9-0.6c-0.3-0.1-0.8-0.2-1.3-0.2
		V80h15.4L117.1,79.7L117.1,79.7z"/>
	<path class="st1" d="M118.6,99.2h-17.2v-0.8h0.2c0.5,0,1-0.1,1.2-0.2c0.3-0.1,0.5-0.3,0.8-0.5c0.2-0.2,0.4-0.6,0.5-1
		c0.1-0.6,0.2-1.3,0.2-2V84.3c0-0.9-0.1-1.7-0.2-2c-0.1-0.5-0.3-0.7-0.5-1c-0.3-0.3-0.5-0.5-0.8-0.5c-0.3-0.1-0.8-0.2-1.2-0.2h-0.2
		v-0.8h15.4v0l0.5,0l0.2,4.9h-0.8l0-0.2c-0.1-0.7-0.3-1.3-0.6-1.8c-0.3-0.5-0.7-1-1.1-1.3c-0.3-0.2-0.9-0.6-1.5-0.6
		c-0.5-0.1-1.3-0.2-2.4-0.2h-2.9v7.9h0.5c0.7,0,1.3-0.1,1.8-0.2c0.4-0.1,0.7-0.3,0.9-0.5c0.3-0.3,0.5-0.6,0.6-0.9
		c0.1-0.4,0.2-1,0.3-1.6l0-0.2h0.8l-0.1,8h-0.8l0-0.2c-0.1-0.6-0.2-1.3-0.4-1.6c-0.2-0.4-0.4-0.8-0.7-1c-0.3-0.3-0.6-0.5-1-0.6
		c-0.3-0.1-0.9-0.2-1.6-0.2H108v2.9c0,1.3,0,2.2,0.1,2.8c0.1,0.5,0.2,1,0.4,1.4c0.3,0.6,0.7,1.1,1.3,1.4c0.6,0.3,1.5,0.5,2.5,0.5
		c1.2,0,2.1-0.1,2.7-0.4c0.8-0.3,1.3-0.7,1.7-1.2c0.3-0.4,0.6-0.9,0.8-1.4c0.2-0.4,0.4-1.1,0.6-2l0-0.2h0.8L118.6,99.2z M112.3,98.7
		h5.9l0.2-4.4c-0.1,0.5-0.3,0.9-0.4,1.2c-0.2,0.5-0.5,1-0.8,1.5c-0.4,0.6-1,1-1.9,1.4C114.5,98.5,113.6,98.7,112.3,98.7z M103,98.7
		h9.3c-1.1,0-2-0.2-2.7-0.5c-0.7-0.3-1.2-0.9-1.5-1.6c-0.2-0.4-0.3-1-0.4-1.6c-0.1-0.6-0.1-1.5-0.1-2.8v-3.4h0.2v-8.4H103
		c0,0,0,0,0,0c0.4,0.1,0.7,0.4,1,0.7c0.4,0.4,0.6,0.7,0.7,1.2c0.1,0.4,0.2,1.2,0.2,2.1v10.3c0,0.8-0.1,1.5-0.2,2.1
		c-0.1,0.5-0.4,0.9-0.7,1.2C103.7,98.3,103.4,98.5,103,98.7C103.1,98.6,103.1,98.6,103,98.7z M109.6,88.7c0.3,0,0.6,0.1,0.7,0.1
		c0.5,0.2,0.9,0.4,1.2,0.8c0.3,0.3,0.5,0.8,0.7,1.2c0.1,0.2,0.2,0.4,0.2,0.7l0.1-5.1c0,0.1-0.1,0.3-0.1,0.4
		c-0.1,0.4-0.3,0.8-0.7,1.1c-0.3,0.4-0.8,0.6-1.1,0.7C110.4,88.6,110,88.7,109.6,88.7z M114.3,80.2c0.4,0.1,0.7,0.3,1,0.5
		c0.5,0.4,0.9,0.9,1.3,1.5c0.2,0.3,0.3,0.5,0.4,0.8l-0.1-2.9H114.3z"/>
</g>
<g>
	<path class="st1" d="M120.6,98.8V93h0.3c0.4,1.5,0.9,2.6,1.4,3.5c1,1.6,2.3,2.3,3.8,2.3c1.1,0,2-0.4,2.7-1.1c0.7-0.7,1-1.6,1-2.7
		c0-0.5-0.1-1-0.2-1.5c-0.2-0.5-0.4-0.9-0.6-1.3c-0.3-0.4-0.6-0.7-1.1-1s-1.2-0.8-2.2-1.3c-0.9-0.4-1.6-0.8-2-1.1
		c-0.5-0.3-0.9-0.6-1.1-0.9c-0.8-0.9-1.2-1.9-1.2-3.2c0-0.8,0.2-1.5,0.5-2.2s0.8-1.3,1.3-1.8c1-0.9,2.2-1.4,3.5-1.4
		c0.4,0,0.8,0,1.2,0.1s0.9,0.3,1.5,0.5c0.5,0.2,0.8,0.3,1,0.4c0.2,0.1,0.3,0.1,0.4,0.1c0.3,0,0.5-0.2,0.7-0.7h0.3l0.1,5.6h-0.3
		c-0.3-0.9-0.5-1.6-0.6-2c-0.2-0.5-0.4-0.9-0.6-1.3c-0.5-0.7-1-1.3-1.5-1.6c-0.5-0.3-1.2-0.5-1.9-0.5c-1,0-1.9,0.4-2.5,1.1
		c-0.2,0.3-0.4,0.6-0.6,1c-0.1,0.4-0.2,0.8-0.2,1.2c0,1.6,1,2.8,3,3.8l2,1c1.5,0.7,2.6,1.5,3.3,2.4c0.8,1,1.1,2.1,1.1,3.4
		c0,0.9-0.2,1.7-0.5,2.5c-0.5,1.1-1.2,1.9-2.2,2.5c-1,0.6-2.1,0.9-3.4,0.9c-1.2,0-2.4-0.2-3.5-0.7c-0.6-0.2-0.9-0.4-1-0.4
		c-0.1,0-0.2-0.1-0.4-0.1c-0.4,0-0.8,0.2-0.9,0.7h-0.6C120.6,99.2,120.6,98.8,120.6,98.8z"/>
	<path class="st1" d="M127,100c-1.3,0-2.5-0.2-3.6-0.7c-0.3-0.1-0.6-0.2-0.8-0.3c-0.1,0-0.1-0.1-0.2-0.1c0,0-0.1,0-0.2-0.1
		c-0.1,0-0.1,0-0.2,0c-0.2,0-0.6,0-0.7,0.5l0,0.2h-1.1v-6.7h0.7l0,0.2c0.3,1.3,0.8,2.4,1.4,3.4c0.9,1.4,2.1,2.2,3.6,2.2
		c1,0,1.8-0.3,2.5-1c0.6-0.6,0.9-1.4,0.9-2.5c0-0.5-0.1-1-0.2-1.5c-0.2-0.5-0.4-0.9-0.6-1.2c-0.2-0.3-0.5-0.6-1-0.9
		c-0.1-0.1-0.3-0.2-0.5-0.3c-0.4-0.3-1-0.6-1.7-1c-0.8-0.4-1.6-0.8-2-1.1c-0.6-0.3-1-0.7-1.2-1c-0.8-0.9-1.2-2-1.2-3.3
		c0-0.7,0.2-1.5,0.5-2.3c0.3-0.6,0.7-1.2,1.4-1.9c1.1-1,2.3-1.5,3.7-1.5c0.4,0,0.8,0,1.3,0.1c0.3,0.1,0.6,0.2,0.9,0.3
		c0.2,0.1,0.4,0.1,0.6,0.2c0.2,0.1,0.4,0.1,0.5,0.2c0.2,0.1,0.4,0.2,0.5,0.2c0.1,0.1,0.2,0.1,0.3,0.1c0.1,0,0.3,0,0.5-0.5l0.1-0.2
		h0.7l0.1,6.1h-0.7l-0.1-0.2c-0.4-1.1-0.5-1.8-0.6-2c-0.2-0.5-0.4-0.8-0.6-1.2c-0.6-0.8-1-1.3-1.4-1.5c-0.5-0.3-1.1-0.5-1.8-0.5
		c-0.9,0-1.8,0.4-2.3,1c-0.2,0.3-0.4,0.6-0.6,0.9c-0.1,0.3-0.2,0.7-0.2,1.1c0,1.5,0.9,2.6,2.9,3.6l2,1c1.5,0.7,2.7,1.5,3.4,2.5
		c0.8,1,1.2,2.1,1.2,3.6c0,0.8-0.2,1.6-0.5,2.6c-0.5,1.2-1.3,2-2.3,2.6C129.5,99.6,128.3,100,127,100z M122.1,98.2
		c0.2,0,0.3,0,0.4,0.1c0.1,0,0.2,0.1,0.4,0.1c0.2,0.1,0.4,0.2,0.7,0.3c1,0.5,2.2,0.7,3.4,0.7c1.2,0,2.3-0.3,3.3-0.9
		c1-0.6,1.6-1.3,2.1-2.4c0.3-0.9,0.5-1.6,0.5-2.4c0-1.3-0.3-2.3-1-3.2c-0.7-0.9-1.8-1.7-3.2-2.3l-2-1c-2.1-1.1-3.1-2.3-3.1-4
		c0-0.4,0.1-0.9,0.2-1.3c0.2-0.5,0.4-0.8,0.6-1.1c0.7-0.8,1.6-1.2,2.7-1.2c0.7,0,1.5,0.2,2,0.5c0.5,0.3,0.9,0.8,1.6,1.7
		c0.2,0.4,0.4,0.8,0.6,1.4c0.1,0.2,0.2,0.7,0.4,1.4l-0.1-4.4c-0.2,0.3-0.4,0.5-0.8,0.5c-0.1,0-0.3,0-0.5-0.1
		c-0.1-0.1-0.3-0.1-0.5-0.2c-0.1-0.1-0.3-0.1-0.5-0.2c-0.2-0.1-0.4-0.1-0.6-0.2c-0.3-0.1-0.6-0.2-0.9-0.3c-0.4-0.1-0.7-0.1-1.1-0.1
		c-1.2,0-2.4,0.5-3.3,1.3c-0.6,0.6-1,1.2-1.2,1.7c-0.3,0.8-0.5,1.4-0.5,2.1c0,1.2,0.4,2.1,1.1,3c0.2,0.3,0.5,0.5,1,0.9
		c0.4,0.3,1.2,0.7,2,1.1c0.7,0.4,1.3,0.7,1.8,1c0.2,0.1,0.3,0.2,0.5,0.3c0.5,0.3,0.8,0.6,1.2,1.1c0.2,0.4,0.4,0.8,0.6,1.4
		c0.1,0.5,0.2,1.1,0.2,1.6c0,1.2-0.4,2.2-1.1,2.9c-0.8,0.8-1.7,1.2-2.9,1.2c-1.7,0-3-0.8-4-2.4c-0.5-0.9-0.9-1.9-1.2-2.9V99h0.2
		C121.2,98.5,121.6,98.2,122.1,98.2z"/>
</g>
<g>
	<path class="st1" d="M142.3,80.2c-0.6,0-1.2,0-1.9,0.1c-1.4,0.1-2.5,0.3-3.2,0.5c-0.7,0.3-1.3,0.8-1.7,1.5c-0.4,0.7-0.7,1.5-1,2.7
		h-0.3l0.3-5.2h18.9l0.2,5.2h-0.3c-0.3-1.3-0.6-2.3-1.2-2.9c-0.5-0.7-1.3-1.1-2.3-1.4c-0.9-0.2-2.3-0.4-4.4-0.4v14.1
		c0,1,0.1,1.7,0.2,2.1c0.1,0.5,0.3,0.8,0.6,1.1c0.3,0.3,0.6,0.5,0.9,0.6c0.3,0.1,0.8,0.2,1.3,0.2v0.3h-8.9v-0.3c0.5,0,1-0.1,1.3-0.2
		c0.3-0.1,0.6-0.3,0.9-0.6c0.3-0.3,0.5-0.7,0.6-1.1c0.1-0.5,0.2-1.2,0.2-2.1V80.2H142.3z"/>
	<path class="st1" d="M148.6,99h-9.4v-0.8h0.2c0.5,0,1-0.1,1.2-0.2c0.3-0.1,0.5-0.3,0.8-0.5c0.2-0.2,0.4-0.6,0.5-1
		c0.1-0.6,0.2-1.3,0.2-2v-14c-0.6,0-1.2,0-1.8,0.1c-1.7,0.1-2.7,0.4-3.2,0.5c-0.6,0.3-1.2,0.8-1.6,1.4c-0.4,0.7-0.7,1.5-1,2.6l0,0.2
		h-0.8l0.3-5.7h19.4l0.2,5.7h-0.8l0-0.2c-0.3-1.4-0.6-2.2-1.1-2.8c-0.4-0.6-1.1-1-2.2-1.3c-1.1-0.2-2.5-0.4-4.1-0.4v13.8
		c0,1.1,0.1,1.8,0.2,2c0.1,0.5,0.3,0.7,0.5,1c0.3,0.3,0.5,0.5,0.8,0.5c0.3,0.1,0.7,0.2,1.2,0.2h0.2V99z M140.8,98.5h6.2c0,0,0,0,0,0
		c-0.3-0.1-0.7-0.3-1-0.7c-0.4-0.4-0.6-0.7-0.7-1.2c-0.1-0.3-0.2-1-0.2-2.1V80h-2.4v14.4c0,0.8-0.1,1.5-0.2,2.1
		c-0.1,0.5-0.4,0.9-0.7,1.2C141.5,98.1,141.2,98.3,140.8,98.5C140.8,98.4,140.8,98.4,140.8,98.5z M134.7,80l-0.2,4
		c0.2-0.7,0.5-1.3,0.8-1.9c0.4-0.7,1-1.3,1.8-1.6c0.5-0.1,1.6-0.4,3.3-0.5c0,0,0,0,0,0H134.7z M145.4,80c1.7,0,3.2,0.1,4.5,0.4
		c1.2,0.4,2,0.8,2.4,1.5c0.5,0.5,0.7,1.1,1,2.1l-0.2-4H145.4z"/>
</g>
<g>
	<path class="st1" d="M163.1,79.7V80c-0.5,0-1,0.1-1.3,0.2c-0.3,0.1-0.6,0.3-0.9,0.6c-0.3,0.3-0.5,0.7-0.6,1.2
		c-0.1,0.5-0.1,1.3-0.1,2.4v7.9c0,1.3,0,2.2,0.1,2.8c0.1,0.6,0.3,1.1,0.6,1.6c0.4,0.7,1,1.3,1.7,1.6c0.7,0.3,1.5,0.5,2.5,0.5
		s1.9-0.1,2.8-0.4c0.9-0.3,1.6-0.7,2.2-1.2c0.4-0.3,0.6-0.7,0.8-1.1c0.2-0.4,0.3-0.9,0.3-1.5c0-0.4,0.1-1.3,0.1-2.7v-7.8
		c0-1-0.1-1.7-0.2-2.1c-0.1-0.5-0.3-0.8-0.6-1.1c-0.3-0.3-0.6-0.5-0.9-0.6c-0.3-0.1-0.8-0.2-1.3-0.2v-0.3h6.4v0.3
		c-0.5,0-1,0.1-1.3,0.2c-0.3,0.1-0.6,0.3-0.9,0.6c-0.3,0.3-0.5,0.7-0.6,1.1c-0.1,0.5-0.2,1.2-0.2,2.1v8.8c0,1.3-0.1,2.3-0.3,2.9
		c-0.2,0.6-0.6,1.2-1.2,1.7c-1.4,1.2-3.3,1.8-5.8,1.8c-2.6,0-4.6-0.6-5.8-1.7c-0.8-0.7-1.3-1.6-1.5-2.8c-0.1-0.4-0.1-1.2-0.1-2.2
		v-8.5c0-1-0.1-1.7-0.1-2.1c-0.1-0.5-0.3-0.8-0.6-1.1c-0.3-0.3-0.5-0.5-0.9-0.6c-0.3-0.1-0.8-0.2-1.3-0.2v-0.3h9L163.1,79.7
		L163.1,79.7z"/>
	<path class="st1" d="M164.4,99.5c-2.6,0-4.7-0.6-6-1.8c-0.9-0.7-1.4-1.7-1.6-2.9c-0.1-0.4-0.1-1.2-0.1-2.2v-8.5
		c0-0.6,0-1.1-0.1-1.5c0-0.3,0-0.5,0-0.6c-0.1-0.4-0.3-0.7-0.5-0.9c-0.3-0.3-0.4-0.5-0.8-0.5c-0.3-0.1-0.8-0.2-1.2-0.2h-0.2v-0.8
		h9.2v0.2h0.2v0.5h-0.2c-0.5,0-1,0.1-1.2,0.2c-0.3,0.1-0.5,0.3-0.8,0.5c-0.3,0.3-0.4,0.6-0.5,1.1c-0.1,0.5-0.1,1.3-0.1,2.4v7.9
		c0,1.3,0,2.2,0.1,2.8c0.1,0.5,0.3,1,0.6,1.5c0.4,0.7,1,1.2,1.6,1.5c0.8,0.3,1.5,0.5,2.4,0.5c1.1,0,1.9-0.1,2.7-0.4
		c0.8-0.3,1.5-0.6,2.1-1.2c0.4-0.3,0.5-0.6,0.7-1c0.2-0.4,0.3-0.8,0.3-1.4c0-0.1,0-0.3,0-0.6c0-0.5,0.1-1.2,0.1-2.1v-7.8
		c0-1.1-0.1-1.8-0.2-2c-0.1-0.5-0.3-0.7-0.5-1c-0.3-0.3-0.5-0.5-0.8-0.5c-0.3-0.1-0.7-0.2-1.2-0.2H168v-0.8h6.9v0.8h-0.2
		c-0.5,0-1,0.1-1.2,0.2c-0.3,0.1-0.5,0.3-0.8,0.5c-0.2,0.2-0.4,0.6-0.5,1c-0.1,0.6-0.2,1.3-0.2,2v8.8c0,1.4-0.1,2.4-0.3,3
		c-0.2,0.7-0.7,1.3-1.3,1.8C168.9,98.9,166.9,99.5,164.4,99.5z M155.4,80C155.4,80.1,155.4,80.1,155.4,80c0.5,0.1,0.7,0.4,1,0.7
		c0.4,0.4,0.6,0.7,0.7,1.2c0,0.2,0,0.4,0,0.6c0,0.4,0.1,0.9,0.1,1.5v8.5c0,1,0,1.8,0.1,2.1c0.2,1.1,0.7,2,1.4,2.7
		c1.2,1.1,3.1,1.6,5.6,1.6c0.1,0,0.3,0,0.4,0c-0.8,0-1.6-0.2-2.3-0.5c-0.7-0.3-1.4-0.9-1.8-1.7c-0.3-0.5-0.5-1.1-0.6-1.7
		c-0.1-0.6-0.1-1.5-0.1-2.8v-7.9c0-1.1,0-1.9,0.1-2.4c0.1-0.5,0.3-1,0.7-1.3c0.3-0.3,0.5-0.4,0.8-0.6H155.4z M169.6,80
		C169.6,80.1,169.6,80.1,169.6,80c0.4,0.1,0.7,0.3,1,0.7c0.4,0.4,0.6,0.7,0.7,1.2c0,0.2,0.1,0.5,0.2,1c0-0.4,0.1-0.7,0.2-1
		c0.1-0.5,0.4-0.9,0.7-1.2c0.3-0.3,0.7-0.5,1-0.7c0,0,0,0,0,0H169.6z"/>
</g>
<g>
	<path class="st1" d="M176,98.5c0.5,0,1-0.1,1.3-0.2c0.3-0.1,0.6-0.3,0.9-0.6c0.3-0.3,0.5-0.7,0.6-1.1c0.1-0.5,0.2-1.2,0.2-2.1V84.2
		c0-1-0.1-1.8-0.2-2.2c-0.1-0.5-0.4-0.9-0.7-1.2c-0.5-0.4-1.1-0.6-2-0.6v-0.3h7.7c1.7,0,2.8,0,3.3,0.1c2,0.1,3.6,0.7,5,1.7
		c1.3,0.9,2.3,2.1,3,3.6c0.7,1.5,1.1,3.1,1.1,4.9c0,1.3-0.2,2.5-0.6,3.6s-1,2.1-1.7,2.8c-1,1.1-2.3,1.7-3.9,2
		c-1.2,0.2-2.3,0.3-3.5,0.3h-10.3v-0.4H176z M181.9,80.2v13.9c0,0.9,0,1.6,0.2,2.1c0.1,0.5,0.3,0.9,0.6,1.2c0.6,0.7,1.6,1.1,2.9,1.1
		c1.1,0,2.1-0.2,2.9-0.6c0.8-0.4,1.5-1,2.2-1.8c0.6-0.8,1.1-1.8,1.4-2.8c0.3-1.1,0.5-2.2,0.5-3.4c0-1.3-0.2-2.6-0.6-3.8
		c-0.4-1.2-1-2.2-1.7-3.1c-1-1.2-2.3-2.1-3.7-2.5c-0.8-0.2-1.8-0.3-3-0.3L181.9,80.2L181.9,80.2z"/>
	<path class="st1" d="M186.4,99.2h-10.5v-0.7h0v-0.2c0.5,0,1-0.1,1.2-0.2c0.3-0.1,0.5-0.3,0.8-0.5c0.2-0.2,0.4-0.6,0.5-1
		c0.1-0.6,0.2-1.3,0.2-2V84.2c0-1-0.1-1.8-0.2-2.1c-0.1-0.4-0.3-0.7-0.6-1.1c-0.5-0.4-1-0.5-1.8-0.5h-0.2v-0.8h7.9
		c1.8,0,2.8,0,3.3,0.1c1.9,0.1,3.6,0.7,5.1,1.7c1.3,0.9,2.4,2.2,3.1,3.7c0.8,1.6,1.1,3.3,1.1,5c0,1.3-0.2,2.6-0.6,3.7
		c-0.4,1.1-1,2.2-1.8,2.9c-1,1.1-2.3,1.7-4,2.1C188.7,99.1,187.6,99.2,186.4,99.2z M176.9,98.7h7.7c-0.8-0.2-1.5-0.5-2-1.1
		c-0.3-0.3-0.5-0.8-0.7-1.3c-0.2-0.5-0.2-1.2-0.2-2.1V80.2h-4.3c0.3,0.1,0.6,0.3,0.8,0.5c0.4,0.4,0.7,0.9,0.8,1.3
		c0.1,0.4,0.2,1.2,0.2,2.2v10.3c0,0.8-0.1,1.5-0.2,2.1c-0.1,0.5-0.4,0.9-0.7,1.2c-0.3,0.3-0.7,0.5-1,0.7
		C177.2,98.6,177.1,98.6,176.9,98.7z M186.4,80.2c0.1,0,0.2,0,0.3,0.1c1.4,0.4,2.8,1.3,3.8,2.6c0.8,1,1.4,2.1,1.7,3.2
		c0.4,1.2,0.6,2.5,0.6,3.9c0,1.1-0.2,2.2-0.5,3.5c-0.3,1-0.8,2.1-1.4,2.9c-0.8,0.9-1.5,1.5-2.3,1.9c-0.5,0.2-1,0.4-1.7,0.5
		c1,0,1.9-0.1,2.9-0.3c1.6-0.3,2.8-0.9,3.8-1.9c0.7-0.7,1.3-1.6,1.6-2.7c0.4-1.1,0.6-2.2,0.6-3.5c0-1.7-0.4-3.2-1.1-4.8
		c-0.7-1.5-1.7-2.6-2.9-3.5c-1.4-1-3-1.6-4.9-1.7C186.9,80.2,186.7,80.2,186.4,80.2z M182.2,80.5v13.6c0,0.9,0,1.6,0.2,2
		c0.1,0.5,0.3,0.9,0.5,1.1c0.6,0.7,1.5,1,2.7,1c1.1,0,2-0.2,2.8-0.6c0.7-0.4,1.4-0.9,2.1-1.7c0.6-0.8,1.1-1.7,1.3-2.7
		c0.3-1.2,0.5-2.3,0.5-3.3c0-1.3-0.2-2.6-0.6-3.7c-0.3-1-0.9-2-1.7-3c-1-1.2-2.2-2-3.6-2.4c-0.8-0.2-1.8-0.3-2.9-0.3H182.2z"/>
</g>
<g>
	<path class="st1" d="M206.9,79.7V80c-0.5,0-1,0.1-1.3,0.2c-0.3,0.1-0.6,0.3-0.9,0.6c-0.4,0.4-0.6,0.9-0.7,1.6
		c-0.1,0.5-0.1,1.1-0.1,1.7v10.3c0,0.8,0,1.4,0.1,1.8s0.2,0.8,0.4,1.1c0.2,0.4,0.6,0.7,0.9,0.8c0.4,0.2,0.9,0.3,1.5,0.3v0.3h-8.9
		v-0.3c0.5,0,1-0.1,1.3-0.2s0.6-0.3,0.9-0.6c0.3-0.3,0.5-0.7,0.6-1.1c0.1-0.5,0.2-1.2,0.2-2.1V84.1c0-1-0.1-1.7-0.2-2.1
		c-0.1-0.5-0.3-0.8-0.6-1.1c-0.3-0.3-0.5-0.5-0.9-0.6c-0.3-0.1-0.8-0.2-1.3-0.2v-0.3h9V79.7z"/>
	<path class="st1" d="M207.1,99h-9.4v-0.8h0.2c0.5,0,1-0.1,1.2-0.2c0.3-0.1,0.5-0.3,0.8-0.5c0.2-0.2,0.4-0.6,0.5-1
		c0.1-0.6,0.2-1.3,0.2-2V84.1c0-1.1-0.1-1.8-0.2-2c-0.1-0.5-0.3-0.7-0.5-1c-0.3-0.3-0.4-0.5-0.8-0.5c-0.3-0.1-0.8-0.2-1.2-0.2h-0.2
		v-0.8h9.2v0.2h0.2v0.5h-0.2c-0.5,0-1,0.1-1.2,0.2c-0.3,0.1-0.5,0.3-0.8,0.5c-0.3,0.3-0.5,0.8-0.6,1.5c-0.1,0.5-0.1,1.1-0.1,1.7
		v10.3c0,0.8,0,1.4,0.1,1.7c0.1,0.4,0.2,0.8,0.4,1c0.2,0.4,0.5,0.6,0.8,0.7c0.4,0.2,0.9,0.3,1.4,0.3h0.2V99z M199.3,98.5h6.2
		c-0.1,0-0.2-0.1-0.3-0.1c-0.3-0.1-0.8-0.4-1-0.9c-0.2-0.3-0.3-0.7-0.4-1.1c-0.1-0.4-0.1-1-0.1-1.9V84.1c0-0.6,0-1.2,0.1-1.7
		c0.1-0.8,0.3-1.3,0.8-1.7c0.3-0.3,0.5-0.4,0.8-0.6h-6.1c0,0,0,0,0,0c0.5,0.1,0.7,0.4,1,0.7c0.3,0.3,0.5,0.6,0.7,1.2
		c0.1,0.3,0.2,1,0.2,2.1v10.3c0,0.8-0.1,1.5-0.2,2.1c-0.1,0.5-0.4,0.9-0.7,1.2C200,98.1,199.7,98.3,199.3,98.5
		C199.3,98.4,199.3,98.4,199.3,98.5z"/>
</g>
<g>
	<path class="st1" d="M208.9,89.4c0-1.6,0.3-3,1-4.4c0.7-1.3,1.6-2.5,2.9-3.5c1-0.7,2-1.3,3.1-1.7c1.1-0.4,2.2-0.6,3.4-0.6
		c1.4,0,2.8,0.3,4.2,0.9c1.3,0.6,2.5,1.5,3.5,2.7c1.6,1.9,2.5,4,2.5,6.4c0,1.2-0.2,2.3-0.6,3.5c-0.4,1.1-1.1,2.1-1.9,3
		c-1,1.1-2.2,2-3.6,2.6c-1.4,0.6-2.8,0.9-4.3,0.9s-2.9-0.3-4.2-0.9c-1.4-0.6-2.5-1.5-3.5-2.6c-0.8-0.9-1.4-1.9-1.8-3
		C209.1,91.8,208.9,90.6,208.9,89.4 M212.3,89.6c0,2.7,0.7,5,2.2,6.8c0.7,0.8,1.4,1.4,2.1,1.8c0.7,0.4,1.6,0.6,2.6,0.6
		s1.8-0.2,2.6-0.6c0.7-0.4,1.4-1,2.1-1.8c1.5-1.9,2.2-4.2,2.2-6.9c0-1.5-0.2-2.9-0.6-4.3c-0.4-1.3-1-2.5-1.7-3.4
		c-0.6-0.8-1.3-1.3-2-1.7c-0.7-0.3-1.6-0.5-2.6-0.5s-1.8,0.2-2.6,0.5c-0.7,0.3-1.4,0.9-2,1.7c-0.7,0.9-1.3,2.1-1.7,3.4
		C212.5,86.6,212.3,88.1,212.3,89.6"/>
	<path class="st1" d="M219.1,99.5c-1.5,0-3-0.3-4.3-0.9c-1.3-0.6-2.4-1.4-3.6-2.7c-0.8-0.9-1.4-2-1.8-3.1c-0.6-1.1-0.7-2.4-0.7-3.4
		c0-1.7,0.3-3.1,1-4.5c0.8-1.5,1.8-2.7,3-3.6c1.2-0.8,2.2-1.4,3.2-1.7c1.1-0.4,2.3-0.6,3.5-0.6c1.4,0,2.9,0.3,4.3,0.9
		c1.4,0.6,2.6,1.6,3.6,2.8c1.7,2,2.6,4.2,2.6,6.6c0,1.2-0.2,2.3-0.6,3.6c-0.4,1-1,2-1.9,3.1c-1.1,1.2-2.3,2.1-3.7,2.7
		C222.1,99.1,220.6,99.5,219.1,99.5z M216.6,79.8c-0.2,0.1-0.4,0.1-0.6,0.2c-0.9,0.3-1.9,0.9-3,1.7c-1.1,0.9-2.1,2-2.8,3.4
		c-0.7,1.3-1,2.7-1,4.3c0,0.9,0.1,2.2,0.7,3.2c0.4,1.1,1,2.1,1.8,3c1.1,1.2,2.2,2,3.4,2.5c0.8,0.4,1.6,0.6,2.4,0.7
		c-0.3-0.1-0.7-0.2-1-0.4c-0.7-0.4-1.4-1-2.2-1.9c-1.5-1.8-2.3-4.1-2.3-7c0-1.5,0.2-3.1,0.6-4.5c0.4-1.3,1-2.6,1.7-3.5
		C215.1,80.8,215.8,80.2,216.6,79.8C216.6,79.9,216.6,79.8,216.6,79.8z M221.4,79.7c0.2,0.1,0.4,0.1,0.5,0.2
		c0.6,0.4,1.4,0.9,2.1,1.8c0.7,0.9,1.3,2.2,1.7,3.5c0.4,1.4,0.6,2.9,0.6,4.4c0,2.8-0.7,5.1-2.3,7.1c-0.7,0.8-1.5,1.4-2.2,1.9
		c-0.3,0.1-0.5,0.2-0.8,0.3c0.7-0.1,1.5-0.4,2.2-0.7c1.3-0.6,2.5-1.4,3.5-2.5c0.9-1,1.5-2,1.8-2.9c0.4-1.2,0.6-2.3,0.6-3.4
		c0-2.2-0.8-4.3-2.4-6.2c-0.9-1.1-2.1-2-3.4-2.6C222.8,80,222.1,79.8,221.4,79.7z M219.2,79.8c-0.9,0-1.6,0.1-2.5,0.5
		c-0.6,0.3-1.3,0.9-1.9,1.6c-0.7,0.9-1.3,2.1-1.7,3.3c-0.4,1.4-0.6,2.8-0.6,4.3c0,2.7,0.7,4.9,2.1,6.6c0.7,0.8,1.4,1.4,2,1.7
		c0.6,0.4,1.5,0.6,2.5,0.6c0.9,0,1.7-0.2,2.5-0.6c0.7-0.4,1.3-1,2-1.7c1.4-1.8,2.1-4,2.1-6.7c0-1.5-0.2-2.8-0.6-4.2
		c-0.4-1.3-1-2.4-1.7-3.3c-0.6-0.8-1.4-1.3-1.9-1.6C221,80,220.1,79.8,219.2,79.8z"/>
</g>
<g>
	<path class="st1" d="M232.2,98.8V93h0.3c0.4,1.5,0.9,2.6,1.4,3.5c1,1.6,2.3,2.3,3.8,2.3c1.1,0,2-0.4,2.7-1.1c0.7-0.7,1-1.6,1-2.7
		c0-0.5-0.1-1-0.2-1.5s-0.4-0.9-0.6-1.3c-0.3-0.4-0.7-0.7-1.1-1c-0.5-0.3-1.2-0.8-2.2-1.3c-0.9-0.4-1.6-0.8-2-1.1
		c-0.5-0.3-0.9-0.6-1.1-0.9c-0.8-0.9-1.2-1.9-1.2-3.2c0-0.8,0.2-1.5,0.5-2.2c0.3-0.7,0.8-1.3,1.3-1.8c1-0.9,2.2-1.4,3.5-1.4
		c0.4,0,0.8,0,1.2,0.1s0.9,0.3,1.5,0.5c0.5,0.2,0.8,0.3,1,0.4c0.2,0.1,0.3,0.1,0.4,0.1c0.3,0,0.5-0.2,0.7-0.7h0.3l0.1,5.6h-0.3
		c-0.3-0.9-0.5-1.6-0.6-2c-0.2-0.5-0.4-0.9-0.7-1.3c-0.5-0.7-1-1.3-1.5-1.6c-0.6-0.3-1.2-0.5-1.9-0.5c-1,0-1.9,0.4-2.5,1.1
		c-0.2,0.3-0.4,0.6-0.6,1c-0.1,0.4-0.2,0.8-0.2,1.2c0,1.6,1,2.8,3,3.8l2,1c1.5,0.7,2.6,1.5,3.3,2.4c0.8,1,1.1,2.1,1.1,3.4
		c0,0.9-0.2,1.7-0.5,2.5c-0.5,1.1-1.2,1.9-2.2,2.5s-2.1,0.9-3.4,0.9c-1.2,0-2.4-0.2-3.5-0.7c-0.6-0.2-0.9-0.4-1-0.4
		s-0.2-0.1-0.4-0.1c-0.4,0-0.8,0.2-0.9,0.7h-0.5L232.2,98.8L232.2,98.8z"/>
	<path class="st1" d="M238.5,100c-1.3,0-2.5-0.2-3.6-0.7c-0.3-0.1-0.6-0.2-0.8-0.3c-0.1,0-0.1-0.1-0.2-0.1c-0.1,0-0.1,0-0.2-0.1
		c-0.1,0-0.1,0-0.2,0c-0.2,0-0.6,0-0.7,0.5l0,0.2h-1v-6.7h0.7l0,0.2c0.3,1.3,0.8,2.4,1.4,3.4c0.9,1.4,2.1,2.2,3.6,2.2
		c1,0,1.8-0.3,2.5-1c0.6-0.6,0.9-1.4,0.9-2.5c0-0.5-0.1-0.9-0.2-1.5c-0.1-0.3-0.2-0.6-0.4-0.9c-0.1-0.1-0.1-0.2-0.2-0.4
		c-0.3-0.3-0.6-0.6-1-0.9c-0.1-0.1-0.3-0.2-0.4-0.3c-0.4-0.3-1-0.6-1.7-1c-0.8-0.4-1.6-0.8-2-1.1c-0.6-0.3-1-0.7-1.2-1
		c-0.8-0.9-1.2-2-1.2-3.3c0-0.8,0.2-1.5,0.5-2.3c0.3-0.6,0.7-1.2,1.4-1.9c1.1-1,2.3-1.5,3.7-1.5c0.4,0,0.8,0,1.3,0.1
		c0.3,0.1,0.6,0.2,0.9,0.3c0.2,0.1,0.4,0.1,0.6,0.2c0.2,0.1,0.4,0.1,0.5,0.2c0.2,0.1,0.4,0.2,0.5,0.2c0.1,0.1,0.2,0.1,0.3,0.1
		c0.1,0,0.3,0,0.5-0.5l0.1-0.2h0.7l0.1,6.1H243l-0.1-0.2c-0.4-1.1-0.5-1.8-0.6-2c-0.2-0.5-0.4-0.9-0.7-1.2c-0.6-0.8-1-1.3-1.4-1.5
		c-0.6-0.3-1.2-0.5-1.8-0.5c-0.9,0-1.8,0.4-2.3,1c-0.2,0.3-0.4,0.6-0.6,0.9c-0.1,0.3-0.2,0.7-0.2,1.1c0,1.5,0.9,2.6,2.9,3.6l2,1
		c1.5,0.7,2.7,1.5,3.4,2.5c0.8,1,1.2,2.1,1.2,3.6c0,0.8-0.2,1.6-0.5,2.6c-0.5,1.2-1.3,2-2.3,2.6C241,99.6,239.8,100,238.5,100z
		 M233.6,98.2c0.2,0,0.3,0,0.4,0.1c0.1,0,0.2,0.1,0.4,0.1c0.2,0.1,0.4,0.2,0.7,0.3c1,0.5,2.2,0.7,3.4,0.7c1.2,0,2.3-0.3,3.3-0.9
		c1-0.6,1.6-1.3,2.1-2.4c0.3-0.9,0.5-1.6,0.5-2.4c0-1.3-0.3-2.3-1-3.2c-0.7-0.9-1.8-1.7-3.2-2.3l-2-1c-2.1-1.1-3.1-2.3-3.1-4
		c0-0.4,0.1-0.9,0.2-1.3c0.2-0.5,0.4-0.8,0.6-1.1c0.7-0.8,1.6-1.2,2.7-1.2c0.7,0,1.3,0.2,2,0.5c0.5,0.3,1,0.8,1.6,1.7
		c0.3,0.4,0.5,0.8,0.7,1.4c0.1,0.4,0.2,0.9,0.4,1.4l-0.1-4.4c-0.2,0.3-0.4,0.5-0.8,0.5c-0.1,0-0.3,0-0.5-0.1
		c-0.1-0.1-0.3-0.1-0.5-0.2c-0.1-0.1-0.3-0.1-0.5-0.2c-0.2-0.1-0.4-0.1-0.6-0.2c-0.3-0.1-0.6-0.2-0.9-0.3c-0.4-0.1-0.7-0.1-1.1-0.1
		c-1.2,0-2.4,0.5-3.3,1.3c-0.6,0.6-1,1.2-1.2,1.7c-0.3,0.8-0.5,1.4-0.5,2.1c0,1.2,0.4,2.1,1.1,3c0.2,0.3,0.5,0.5,1,0.9
		c0.4,0.3,1.2,0.7,2,1.1c0.7,0.4,1.3,0.7,1.8,1c0.2,0.1,0.3,0.2,0.5,0.3c0.4,0.3,0.8,0.6,1.2,1.1c0.1,0.1,0.1,0.3,0.2,0.4
		c0.2,0.3,0.4,0.6,0.4,1c0.1,0.5,0.2,1,0.2,1.5c0,1.2-0.4,2.2-1.1,2.9c-0.8,0.8-1.7,1.2-2.9,1.2c-1.7,0-3-0.8-4-2.4
		c-0.5-0.9-0.9-1.9-1.2-2.9V99h0.1C232.7,98.5,233.1,98.2,233.6,98.2z"/>
</g>
<g>
	<path class="st1" d="M262.2,79.7V80c-0.5,0-1,0.1-1.3,0.2c-0.3,0.1-0.6,0.3-0.9,0.6c-0.3,0.3-0.5,0.7-0.6,1.2s-0.1,1.3-0.1,2.4v7.9
		c0,1.3,0,2.2,0.1,2.8c0.1,0.6,0.3,1.1,0.6,1.6c0.4,0.7,1,1.3,1.7,1.6c0.7,0.3,1.5,0.5,2.5,0.5s1.9-0.1,2.8-0.4s1.6-0.7,2.2-1.2
		c0.4-0.3,0.6-0.7,0.8-1.1c0.2-0.4,0.3-0.9,0.3-1.5c0-0.4,0.1-1.3,0.1-2.7v-7.8c0-1-0.1-1.7-0.2-2.1c-0.1-0.5-0.3-0.8-0.6-1.1
		c-0.3-0.3-0.6-0.5-0.9-0.6c-0.3-0.1-0.8-0.2-1.3-0.2v-0.3h6.4v0.3c-0.5,0-1,0.1-1.3,0.2s-0.6,0.3-0.9,0.6c-0.3,0.3-0.5,0.7-0.6,1.1
		c-0.1,0.5-0.2,1.2-0.2,2.1v8.8c0,1.3-0.1,2.3-0.3,2.9c-0.2,0.6-0.6,1.2-1.2,1.7c-1.4,1.2-3.3,1.8-5.8,1.8c-2.6,0-4.6-0.6-5.8-1.7
		c-0.8-0.7-1.3-1.6-1.5-2.8c-0.1-0.4-0.1-1.2-0.1-2.2v-8.5c0-1-0.1-1.7-0.1-2.1c-0.1-0.5-0.3-0.8-0.6-1.1c-0.3-0.3-0.5-0.5-0.9-0.6
		c-0.3-0.1-0.8-0.2-1.3-0.2v-0.3h9V79.7z"/>
	<path class="st1" d="M263.5,99.5c-2.6,0-4.7-0.6-6-1.8c-0.9-0.7-1.4-1.7-1.6-2.9c-0.1-0.4-0.1-1.2-0.1-2.2v-8.5
		c0-0.6,0-1.1-0.1-1.5c0-0.3,0-0.5,0-0.6c-0.1-0.4-0.3-0.7-0.5-0.9c-0.3-0.3-0.4-0.5-0.8-0.5c-0.3-0.1-0.8-0.2-1.2-0.2H253v-0.8h9.2
		v0.2h0.2v0.5h-0.2c-0.5,0-1,0.1-1.2,0.2c-0.3,0.1-0.5,0.3-0.8,0.5c-0.3,0.3-0.4,0.6-0.5,1.1c-0.1,0.5-0.1,1.3-0.1,2.4v7.9
		c0,1.3,0,2.2,0.1,2.8c0.1,0.5,0.3,1,0.6,1.5c0.4,0.7,1,1.2,1.6,1.5c0.8,0.3,1.5,0.5,2.4,0.5c1.1,0,1.9-0.1,2.7-0.4
		c0.8-0.3,1.5-0.6,2.1-1.2c0.4-0.3,0.5-0.6,0.7-1c0.2-0.4,0.3-0.8,0.3-1.4c0-0.1,0-0.3,0-0.6c0-0.5,0.1-1.2,0.1-2.1v-7.8
		c0-1.1-0.1-1.8-0.2-2c-0.1-0.5-0.3-0.7-0.5-1c-0.3-0.3-0.5-0.5-0.8-0.5c-0.3-0.1-0.7-0.2-1.2-0.2h-0.2v-0.8h6.9v0.8h-0.2
		c-0.5,0-1,0.1-1.2,0.2c-0.3,0.1-0.5,0.3-0.8,0.5c-0.2,0.2-0.4,0.6-0.5,1c-0.1,0.6-0.2,1.3-0.2,2v8.8c0,1.4-0.1,2.4-0.3,3
		c-0.2,0.7-0.7,1.3-1.3,1.8C268,98.9,266,99.5,263.5,99.5z M254.5,80C254.6,80.1,254.6,80.1,254.5,80c0.5,0.1,0.7,0.4,1,0.7
		c0.3,0.3,0.5,0.6,0.7,1.2c0,0.2,0,0.4,0,0.6c0,0.4,0.1,0.9,0.1,1.5v8.5c0,1,0,1.8,0.1,2.1c0.2,1.1,0.7,2,1.4,2.7
		c1.2,1.1,3.1,1.6,5.6,1.6c0.1,0,0.3,0,0.4,0c-0.8,0-1.6-0.2-2.3-0.5c-0.7-0.3-1.4-0.9-1.8-1.7c-0.3-0.5-0.5-1.1-0.6-1.7
		c-0.1-0.6-0.1-1.5-0.1-2.8v-7.9c0-1.1,0-1.9,0.1-2.4c0.1-0.5,0.3-1,0.7-1.3c0.3-0.3,0.5-0.4,0.8-0.6H254.5z M268.7,80
		C268.7,80.1,268.8,80.1,268.7,80c0.4,0.1,0.7,0.3,1,0.7c0.3,0.3,0.5,0.6,0.7,1.2c0,0.2,0.1,0.5,0.2,1c0-0.3,0.1-0.7,0.2-1
		c0.1-0.5,0.4-0.9,0.7-1.2c0.3-0.3,0.7-0.5,1-0.7c0,0,0,0,0,0H268.7z"/>
</g>
<g>
	<path class="st1" d="M278.5,82.3v12.1c0,1,0,1.7,0.2,2.1c0.1,0.5,0.3,0.8,0.6,1.1c0.3,0.3,0.6,0.5,0.9,0.6c0.3,0.1,0.8,0.2,1.3,0.2
		v0.3H275v-0.3c0.5,0,1-0.1,1.3-0.2c0.3-0.1,0.6-0.3,0.9-0.6c0.3-0.3,0.5-0.7,0.6-1.1c0.1-0.5,0.2-1.2,0.2-2.1V84.1
		c0-0.9-0.1-1.6-0.2-2.1s-0.3-0.8-0.6-1.1c-0.3-0.3-0.5-0.5-0.9-0.6c-0.3-0.1-0.8-0.2-1.3-0.2v-0.3h5.4l11.4,14.5V84.2
		c0-1-0.1-1.7-0.2-2.1c-0.1-0.5-0.3-0.8-0.6-1.1c-0.3-0.3-0.6-0.5-0.9-0.6c-0.3-0.1-0.8-0.2-1.3-0.2v-0.3h6.4v0.3
		c-0.9,0-1.7,0.3-2.2,0.8c-0.3,0.3-0.5,0.7-0.6,1.1c-0.1,0.5-0.2,1.2-0.2,2.1v14.7h-0.6L278.5,82.3z"/>
	<path class="st1" d="M292.4,99.2h-1l-0.1-0.1l-12.6-16v11.4c0,1,0,1.6,0.2,2l0,0.1c0.1,0.5,0.3,0.7,0.5,1c0.3,0.3,0.5,0.5,0.8,0.5
		c0.3,0.1,0.7,0.2,1.2,0.2h0.2V99h-7v-0.8h0.2c0.5,0,1-0.1,1.2-0.2c0.3-0.1,0.5-0.3,0.8-0.5c0.2-0.2,0.4-0.6,0.5-1
		c0.1-0.6,0.2-1.3,0.2-2V84.1c0-0.7-0.1-1.4-0.2-2.1c-0.1-0.5-0.3-0.7-0.5-1c-0.3-0.3-0.4-0.5-0.8-0.5c-0.3-0.1-0.8-0.2-1.2-0.2
		h-0.2v-0.8h5.8l11,14v-9.4c0-1.1-0.1-1.8-0.2-2c-0.1-0.5-0.3-0.7-0.5-1c-0.3-0.3-0.5-0.5-0.8-0.5c-0.3-0.1-0.7-0.2-1.2-0.2h-0.2
		v-0.8h6.9v0.8h-0.2c-0.8,0-1.6,0.3-2,0.7c-0.2,0.2-0.4,0.6-0.5,1c-0.1,0.6-0.2,1.3-0.2,2V99.2z M291.7,98.7h0.2v-3.8L280.3,80h-3.9
		c0,0,0,0,0,0c0.5,0.1,0.7,0.4,1,0.7c0.4,0.4,0.6,0.7,0.7,1.2c0.1,0.7,0.2,1.4,0.2,2.1v10.3c0,0.8-0.1,1.5-0.2,2.1
		c-0.1,0.5-0.4,0.9-0.7,1.2c-0.3,0.3-0.7,0.5-1,0.7c0,0,0,0,0,0h3.8c0,0,0,0,0,0c-0.3-0.1-0.7-0.3-1-0.7c-0.4-0.4-0.6-0.7-0.7-1.2
		c-0.2-0.5-0.2-1.1-0.2-2.2V81.6L291.7,98.7z M290.1,80.2C290.1,80.2,290.1,80.2,290.1,80.2c0.4,0.1,0.7,0.3,1,0.7
		c0.4,0.4,0.6,0.7,0.7,1.2c0,0.2,0.1,0.5,0.2,1c0-0.3,0.1-0.7,0.2-1c0.1-0.5,0.4-0.9,0.7-1.2c0.3-0.3,0.7-0.5,1.1-0.7H290.1z"/>
</g>
<g>
	<path class="st1" d="M305.6,79.7V80c-0.5,0-1,0.1-1.3,0.2c-0.3,0.1-0.6,0.3-0.9,0.6c-0.4,0.4-0.6,0.9-0.7,1.6
		c-0.1,0.5-0.1,1.1-0.1,1.7v10.3c0,0.8,0,1.4,0.1,1.8s0.2,0.8,0.4,1.1c0.2,0.4,0.6,0.7,0.9,0.8c0.4,0.2,0.9,0.3,1.5,0.3v0.3h-8.9
		v-0.3c0.5,0,1-0.1,1.3-0.2c0.3-0.1,0.6-0.3,0.9-0.6c0.3-0.3,0.5-0.7,0.6-1.1c0.1-0.5,0.1-1.2,0.1-2.1V84.1c0-1,0-1.7-0.1-2.1
		c-0.1-0.5-0.3-0.8-0.6-1.1c-0.3-0.3-0.5-0.5-0.9-0.6c-0.3-0.1-0.8-0.2-1.3-0.2v-0.3h9V79.7z"/>
	<path class="st1" d="M305.7,99h-9.4v-0.8h0.2c0.5,0,1-0.1,1.2-0.2c0.3-0.1,0.5-0.3,0.8-0.5c0.2-0.2,0.4-0.6,0.5-1
		c0.1-0.5,0.1-1.2,0.1-2V84.1c0-1,0-1.7-0.1-2c-0.1-0.5-0.3-0.7-0.5-1c-0.3-0.3-0.5-0.5-0.8-0.5c-0.3-0.1-0.8-0.2-1.2-0.2h-0.2v-0.8
		h9.2v0.2h0.2v0.5h-0.2c-0.5,0-1,0.1-1.2,0.2c-0.3,0.1-0.5,0.3-0.8,0.5c-0.3,0.3-0.5,0.8-0.6,1.5c-0.1,0.5-0.1,1.1-0.1,1.7v10.3
		c0,0.8,0,1.4,0.1,1.7c0.1,0.4,0.2,0.8,0.4,1c0.2,0.4,0.5,0.6,0.8,0.7c0.4,0.2,0.9,0.3,1.4,0.3h0.2V99z M297.9,98.5h6.2
		c-0.1,0-0.2-0.1-0.3-0.1c-0.3-0.1-0.8-0.4-1-0.9c-0.2-0.3-0.3-0.7-0.4-1.1c-0.1-0.4-0.1-1-0.1-1.9V84.1c0-0.6,0-1.2,0.1-1.7
		c0.1-0.8,0.3-1.3,0.8-1.7c0.3-0.3,0.5-0.4,0.8-0.6h-6.1c0,0,0,0,0,0c0.4,0.1,0.7,0.4,1,0.7c0.3,0.3,0.5,0.6,0.7,1.2
		c0.1,0.4,0.1,1.1,0.1,2.1v10.3c0,0.9,0,1.6-0.1,2.1c-0.1,0.5-0.4,0.9-0.7,1.2C298.6,98.1,298.3,98.3,297.9,98.5
		C297.9,98.4,297.9,98.4,297.9,98.5z"/>
</g>
<g>
	<path class="st1" d="M305.8,79.7h9.2V80c-0.7,0.1-1.2,0.2-1.5,0.3c-0.3,0.1-0.5,0.4-0.7,0.6c-0.2,0.3-0.3,0.6-0.3,1
		c0,0.2,0,0.5,0.1,0.6c0,0.2,0.2,0.6,0.4,1.2l4.1,11.3l4-9.9c0.6-1.4,0.8-2.4,0.8-3c0-0.4-0.1-0.7-0.2-1s-0.3-0.5-0.4-0.7
		c-0.2-0.2-0.4-0.3-0.6-0.3c-0.2-0.1-0.5-0.1-0.9-0.1v-0.3h6.2V80c-0.5,0-1,0.2-1.3,0.4c-0.4,0.2-0.7,0.5-1.1,0.9
		c-0.2,0.3-0.5,0.7-0.7,1.2c-0.3,0.5-0.6,1.3-1.1,2.4l-5.7,13.8h-0.6l-5.6-14.3c-0.7-1.9-1.3-3.1-1.7-3.6c-0.3-0.3-0.6-0.5-1-0.7
		c-0.4-0.1-0.9-0.2-1.5-0.2L305.8,79.7L305.8,79.7L305.8,79.7z"/>
	<path class="st1" d="M316.2,99h-0.9l-0.1-0.2l-5.6-14.3c-0.6-1.7-1.2-3-1.7-3.5c-0.2-0.2-0.5-0.4-0.9-0.6c-0.3-0.1-0.8-0.2-1.4-0.2
		h-0.2v-0.7h9.8v0.8l-0.2,0c-0.7,0.1-1.2,0.2-1.5,0.3c-0.2,0.1-0.3,0.2-0.4,0.4c-0.1,0.1-0.1,0.1-0.2,0.2c-0.2,0.2-0.2,0.5-0.2,0.8
		c0,0.1,0,0.4,0,0.4l0.1,0.1l0,0.1c0,0.1,0.1,0.3,0.2,0.5c0.1,0.2,0.1,0.4,0.2,0.6l3.9,10.7l3.8-9.3c0.7-1.6,0.8-2.5,0.8-2.9
		c0-0.4-0.1-0.6-0.2-0.9c-0.1-0.2-0.1-0.3-0.2-0.4c-0.1-0.1-0.1-0.1-0.1-0.2c-0.1-0.1-0.3-0.2-0.4-0.2l-0.1,0
		c-0.1-0.1-0.4-0.1-0.8-0.1h-0.2v-0.8h6.7v0.8H326c-0.5,0-0.9,0.2-1.2,0.4c-0.4,0.2-0.7,0.5-1.1,0.9l-0.1,0.1
		c-0.2,0.3-0.4,0.6-0.6,1c-0.2,0.3-0.4,0.8-0.6,1.4c-0.1,0.3-0.3,0.7-0.5,1.1L316.2,99z M315.6,98.5h0.3l1.1-2.8l-4.3-11.9
		c-0.1-0.2-0.2-0.4-0.2-0.6c-0.1-0.3-0.2-0.4-0.2-0.6c-0.1-0.2-0.1-0.4-0.1-0.7c0-0.4,0.1-0.8,0.3-1.1c0.1-0.1,0.1-0.1,0.2-0.2
		c0.2-0.2,0.4-0.4,0.7-0.5c0.1,0,0.3-0.1,0.4-0.1h-6.4c0.4,0.2,0.7,0.4,0.9,0.7c0.5,0.6,1.1,1.9,1.8,3.7L315.6,98.5z M321.1,80
		c0.1,0.1,0.2,0.2,0.4,0.3l0,0.1c0,0.1,0.1,0.1,0.1,0.2c0.1,0.1,0.2,0.3,0.3,0.5c0.1,0.3,0.2,0.6,0.2,1.1s-0.1,1.4-0.8,3.1l-3.4,8.5
		l3.7-8.9c0.2-0.4,0.3-0.7,0.5-1.1c0.3-0.6,0.4-1,0.7-1.4c0.2-0.4,0.4-0.8,0.6-1.1l0.1-0.1c0.4-0.4,0.8-0.8,1.2-1
		c0.1-0.1,0.3-0.2,0.4-0.2H321.1z"/>
</g>
<g>
	<path class="st1" d="M341.3,79.7l0.2,4.6h-0.3c-0.1-0.8-0.3-1.4-0.6-1.9s-0.7-1-1.2-1.4c-0.4-0.3-1-0.6-1.6-0.7
		c-0.6-0.1-1.4-0.2-2.4-0.2h-3.2v8.4h0.8c0.8,0,1.5-0.1,1.9-0.2c0.4-0.1,0.8-0.3,1-0.6c0.3-0.3,0.5-0.6,0.6-1s0.2-0.9,0.3-1.6h0.3
		l-0.1,7.5h-0.3c-0.1-0.7-0.2-1.3-0.4-1.7c-0.2-0.4-0.4-0.8-0.7-1.1c-0.3-0.3-0.6-0.5-1.1-0.7c-0.4-0.1-1-0.2-1.7-0.2h-0.8v3.2
		c0,1.3,0,2.2,0.1,2.8c0.1,0.6,0.2,1.1,0.4,1.5c0.3,0.7,0.8,1.2,1.4,1.5c0.6,0.3,1.5,0.5,2.6,0.5s2.1-0.1,2.8-0.4
		c0.8-0.3,1.4-0.7,1.8-1.3c0.3-0.4,0.6-0.9,0.8-1.4c0.2-0.5,0.4-1.2,0.6-2h0.3l-0.2,5.6H326v-0.3c0.5,0,1-0.1,1.3-0.2
		c0.3-0.1,0.6-0.3,0.9-0.6c0.3-0.3,0.5-0.7,0.6-1.1c0.1-0.5,0.2-1.2,0.2-2.1V84.3c0-0.9-0.1-1.7-0.2-2.1c-0.1-0.5-0.3-0.8-0.6-1.1
		c-0.3-0.3-0.5-0.5-0.9-0.6c-0.3-0.1-0.8-0.2-1.3-0.2V80h15.4L341.3,79.7L341.3,79.7z"/>
	<path class="st1" d="M342.9,99.2h-17.2v-0.8h0.2c0.5,0,1-0.1,1.2-0.2c0.3-0.1,0.5-0.3,0.8-0.5c0.2-0.2,0.4-0.6,0.5-1
		c0.1-0.6,0.2-1.3,0.2-2V84.3c0-0.9-0.1-1.7-0.2-2c-0.1-0.5-0.3-0.7-0.5-1c-0.3-0.3-0.5-0.5-0.8-0.5c-0.3-0.1-0.8-0.2-1.2-0.2h-0.2
		v-0.8h15.4v0l0.5,0l0.2,4.9H341l0-0.2c-0.1-0.7-0.3-1.3-0.6-1.8c-0.3-0.5-0.7-1-1.1-1.3c-0.3-0.2-0.9-0.5-1.5-0.6
		c-0.8-0.1-1.6-0.2-2.4-0.2h-2.9v7.9h0.5c0.8,0,1.5-0.1,1.8-0.2c0.4-0.1,0.7-0.3,0.9-0.5c0.3-0.3,0.5-0.6,0.6-0.9
		c0.1-0.4,0.2-1,0.3-1.6l0-0.2h0.8l-0.1,8h-0.8l0-0.2c-0.1-0.6-0.2-1.3-0.4-1.6c-0.2-0.4-0.4-0.8-0.7-1c-0.3-0.3-0.6-0.5-1-0.6
		c-0.3-0.1-0.9-0.2-1.6-0.2h-0.5v2.9c0,1.3,0,2.2,0.1,2.8c0.1,0.5,0.2,1,0.4,1.4c0.3,0.6,0.7,1.1,1.3,1.4c0.6,0.3,1.5,0.5,2.5,0.5
		c1.2,0,2.1-0.1,2.7-0.4c0.8-0.3,1.3-0.7,1.7-1.2c0.3-0.4,0.6-0.9,0.8-1.4c0.2-0.4,0.4-1.1,0.6-2l0-0.2h0.8L342.9,99.2z M336.6,98.7
		h5.9l0.2-4.4c-0.1,0.5-0.3,0.9-0.4,1.2c-0.2,0.5-0.5,1-0.8,1.5c-0.4,0.6-1,1-1.9,1.4C338.8,98.5,337.8,98.7,336.6,98.7z
		 M327.3,98.7h9.3c-1.1,0-2-0.2-2.7-0.5c-0.7-0.3-1.2-0.9-1.5-1.6c-0.2-0.4-0.3-1-0.4-1.6c-0.1-0.6-0.1-1.5-0.1-2.8v-3.4h0.2v-8.4
		h-4.7c0,0,0,0,0,0c0.4,0.1,0.7,0.4,1,0.7c0.3,0.3,0.5,0.6,0.7,1.2c0.1,0.4,0.2,1.2,0.2,2.1v10.3c0,0.8-0.1,1.5-0.2,2.1
		c-0.1,0.5-0.4,0.9-0.7,1.2C328,98.3,327.7,98.5,327.3,98.7C327.3,98.6,327.3,98.6,327.3,98.7z M333.9,88.7c0.3,0,0.6,0.1,0.8,0.1
		c0.5,0.2,0.9,0.4,1.2,0.8c0.3,0.3,0.5,0.8,0.7,1.2c0.1,0.2,0.2,0.4,0.2,0.7l0.1-5.1c0,0.1-0.1,0.3-0.1,0.4
		c-0.1,0.4-0.3,0.8-0.7,1.1c-0.3,0.4-0.8,0.6-1.1,0.7C334.7,88.6,334.3,88.7,333.9,88.7z M338.6,80.2c0.4,0.1,0.7,0.3,1,0.5
		c0.5,0.4,0.9,0.9,1.3,1.5c0.2,0.3,0.3,0.5,0.4,0.8l-0.1-2.9H338.6z"/>
</g>
<g>
	<path class="st1" d="M350.1,89.5v5c0,1,0.1,1.7,0.2,2.1c0.1,0.5,0.3,0.8,0.6,1.1c0.3,0.3,0.5,0.5,0.9,0.6c0.3,0.1,0.8,0.2,1.3,0.2
		v0.3h-8.9v-0.3c0.5,0,1-0.1,1.3-0.2s0.6-0.3,0.9-0.6c0.3-0.3,0.5-0.7,0.6-1.1c0.1-0.5,0.1-1.2,0.1-2.1V84.2c0-1-0.1-1.7-0.1-2.1
		c-0.1-0.5-0.3-0.8-0.6-1.1c-0.3-0.3-0.5-0.5-0.9-0.6c-0.3-0.1-0.8-0.2-1.3-0.2v-0.3h6.7c1.1,0,1.9,0,2.2,0c1.4,0.1,2.6,0.3,3.4,0.6
		c0.9,0.4,1.6,0.9,2.1,1.7c0.5,0.7,0.8,1.6,0.8,2.6c0,1.5-0.5,2.6-1.7,3.5c-0.3,0.3-0.7,0.5-1.1,0.6c-0.4,0.2-0.9,0.3-1.6,0.5
		c0.6,0.2,1,0.5,1.2,0.7c0.2,0.2,0.4,0.4,0.6,0.7c0.2,0.3,0.4,0.8,0.8,1.6c0.8,1.7,1.5,3,1.9,3.7c0.4,0.8,0.8,1.4,1.1,1.7
		c0.2,0.3,0.5,0.5,0.7,0.6s0.5,0.2,0.9,0.2v0.3h-4.6c-0.2-0.5-0.4-0.8-0.4-1l-1-2.2c-0.6-1.3-1.2-2.5-1.8-3.5
		c-0.6-1-1.1-1.7-1.6-2.1c-0.2-0.2-0.5-0.3-0.8-0.4s-0.6-0.1-1.1-0.1L350.1,89.5L350.1,89.5z M350.1,89.2h0.5c1.2,0,2-0.1,2.5-0.2
		c0.5-0.1,1-0.4,1.4-0.8c1-0.9,1.5-2.1,1.5-3.5c0-0.7-0.1-1.4-0.4-2.1c-0.3-0.6-0.7-1.2-1.2-1.6c-0.4-0.3-0.9-0.5-1.4-0.7
		c-0.5-0.1-1.3-0.2-2.3-0.2h-0.6V89.2z"/>
	<path class="st1" d="M362.5,99.2h-5l-0.1-0.2c-0.1-0.2-0.1-0.3-0.2-0.5c-0.1-0.2-0.2-0.4-0.2-0.6l-1-2.2c-0.7-1.5-1.2-2.6-1.8-3.5
		c-0.6-1.1-1.1-1.7-1.5-2c-0.2-0.2-0.5-0.3-0.7-0.4c-0.3-0.1-0.5-0.1-1-0.1l-0.5-0.1v4.7c0,1.1,0.1,1.8,0.2,2c0.1,0.5,0.3,0.7,0.5,1
		c0.3,0.3,0.5,0.5,0.8,0.5c0.3,0.1,0.7,0.2,1.2,0.2h0.2V99H344v-0.8h0.2c0.5,0,1-0.1,1.2-0.2c0.3-0.1,0.5-0.3,0.8-0.5
		c0.2-0.2,0.4-0.6,0.5-1c0.1-0.5,0.1-1.2,0.1-2V84.2c0-0.6,0-1.1-0.1-1.5c0-0.3,0-0.5,0-0.6c-0.1-0.4-0.3-0.7-0.5-0.9
		c-0.3-0.3-0.5-0.5-0.8-0.5c-0.3-0.1-0.7-0.2-1.2-0.2H344v-0.8h9.1c1.5,0.1,2.7,0.3,3.5,0.6c1.1,0.5,1.7,1,2.2,1.8
		c0.5,0.8,0.8,1.7,0.8,2.7c0,1.6-0.6,2.8-1.8,3.7c-0.3,0.3-0.7,0.5-1.2,0.6c-0.2,0.1-0.5,0.2-0.9,0.3c0.3,0.2,0.5,0.4,0.6,0.5
		c0.2,0.2,0.4,0.4,0.6,0.7c0.1,0.2,0.3,0.5,0.4,0.8c0.1,0.2,0.2,0.5,0.4,0.8c0.9,1.9,1.6,3.2,1.9,3.7c0.4,0.7,0.8,1.4,1.1,1.6
		c0.2,0.3,0.5,0.5,0.6,0.6c0.2,0.1,0.4,0.2,0.8,0.2h0.2V99.2z M357.8,98.7h3.5c0,0,0,0-0.1,0c-0.2-0.1-0.5-0.3-0.8-0.7
		c-0.3-0.3-0.7-0.9-1.1-1.7c-0.3-0.5-1-1.8-1.9-3.7c-0.1-0.3-0.3-0.6-0.4-0.8c-0.2-0.4-0.3-0.6-0.4-0.8c-0.2-0.3-0.4-0.5-0.6-0.7
		c-0.1-0.1-0.5-0.4-1.1-0.6l-0.8-0.3l0.8-0.2c0.2-0.1,0.4-0.1,0.5-0.1c0.4-0.1,0.8-0.2,1-0.3c0.4-0.1,0.8-0.3,1-0.6
		c1.1-0.9,1.6-1.9,1.6-3.3c0-0.9-0.3-1.8-0.8-2.5c-0.4-0.7-1.1-1.2-2-1.6c-0.7-0.3-1.7-0.5-3.1-0.6c0.4,0.2,0.9,0.4,1.2,0.6
		c0.5,0.4,0.9,0.9,1.3,1.7c0.3,0.7,0.4,1.4,0.4,2.2c0,1.5-0.5,2.8-1.6,3.7c-0.4,0.4-1,0.8-1.5,0.9c-0.4,0.1-0.8,0.1-1.3,0.2
		c0.1,0,0.1,0,0.2,0.1c0.3,0.1,0.7,0.2,0.9,0.5c0.5,0.4,1,1,1.6,2.1c0.5,0.9,1.1,2,1.8,3.5l1,2.3c0,0.1,0.1,0.2,0.2,0.4
		C357.7,98.4,357.7,98.5,357.8,98.7z M345.6,98.5h6.2c0,0,0,0,0,0c-0.4-0.1-0.7-0.4-1-0.7c-0.4-0.4-0.6-0.7-0.7-1.2
		c-0.1-0.3-0.2-1-0.2-2.1V80.2h-4.3c0,0,0,0,0,0c0.4,0.1,0.7,0.4,1,0.7c0.4,0.4,0.6,0.7,0.7,1.2c0,0.2,0,0.4,0,0.6
		c0,0.4,0.1,0.9,0.1,1.5v10.3c0,0.9,0,1.6-0.1,2.1c-0.1,0.5-0.4,0.9-0.7,1.2C346.3,98.2,346,98.4,345.6,98.5
		C345.6,98.5,345.6,98.5,345.6,98.5z M350.4,89h0.2c1.2,0,2-0.1,2.4-0.2c0.4-0.1,0.9-0.4,1.3-0.7c0.9-0.9,1.4-2,1.4-3.3
		c0-0.8-0.1-1.4-0.4-2c-0.3-0.7-0.7-1.2-1.1-1.5c-0.4-0.3-0.8-0.5-1.3-0.7c-0.3-0.1-1.1-0.2-2.2-0.2h-0.4V89z"/>
</g>
<g>
	<path class="st1" d="M363.3,98.8V93h0.3c0.4,1.5,0.9,2.6,1.4,3.5c1,1.6,2.3,2.3,3.8,2.3c1.1,0,2-0.4,2.7-1.1c0.7-0.7,1-1.6,1-2.7
		c0-0.5-0.1-1-0.2-1.5c-0.2-0.5-0.4-0.9-0.6-1.3c-0.3-0.4-0.6-0.7-1.1-1c-0.5-0.3-1.2-0.8-2.2-1.3c-0.9-0.4-1.6-0.8-2-1.1
		c-0.5-0.3-0.9-0.6-1.1-0.9c-0.8-0.9-1.2-1.9-1.2-3.2c0-0.8,0.2-1.5,0.5-2.2s0.8-1.3,1.3-1.8c1-0.9,2.2-1.4,3.5-1.4
		c0.4,0,0.8,0,1.2,0.1s0.9,0.3,1.5,0.5c0.5,0.2,0.8,0.3,1,0.4s0.3,0.1,0.4,0.1c0.3,0,0.5-0.2,0.7-0.7h0.3l0.1,5.6h-0.3
		c-0.3-0.9-0.5-1.6-0.7-2c-0.2-0.5-0.4-0.9-0.6-1.3c-0.5-0.7-1-1.3-1.5-1.6c-0.5-0.3-1.2-0.5-1.9-0.5c-1,0-1.9,0.4-2.5,1.1
		c-0.2,0.3-0.4,0.6-0.6,1c-0.1,0.4-0.2,0.8-0.2,1.2c0,1.6,1,2.8,3,3.8l2,1c1.5,0.7,2.6,1.5,3.3,2.4c0.8,1,1.1,2.1,1.1,3.4
		c0,0.9-0.2,1.7-0.5,2.5c-0.5,1.1-1.2,1.9-2.2,2.5s-2.1,0.9-3.4,0.9c-1.2,0-2.4-0.2-3.5-0.7c-0.6-0.2-0.9-0.4-1-0.4
		s-0.2-0.1-0.4-0.1c-0.4,0-0.8,0.2-0.9,0.7h-0.5L363.3,98.8L363.3,98.8z"/>
	<path class="st1" d="M369.6,100c-1.3,0-2.5-0.2-3.6-0.7c-0.3-0.1-0.6-0.2-0.7-0.3c-0.1,0-0.1-0.1-0.2-0.1c-0.1,0-0.1,0-0.2-0.1
		c-0.1,0-0.1,0-0.2,0c-0.2,0-0.6,0-0.7,0.5l0,0.2h-1v-6.7h0.7l0,0.2c0.3,1.3,0.8,2.4,1.4,3.4c0.9,1.4,2.1,2.2,3.6,2.2
		c1,0,1.8-0.3,2.5-1c0.6-0.6,0.9-1.4,0.9-2.5c0-0.5-0.1-0.9-0.2-1.4c-0.2-0.5-0.4-0.9-0.6-1.2c-0.2-0.3-0.5-0.6-1-0.9
		c-0.1-0.1-0.3-0.2-0.5-0.3c-0.4-0.3-1-0.6-1.7-1c-0.8-0.4-1.6-0.8-2-1.1c-0.6-0.3-1-0.7-1.2-1c-0.8-0.9-1.2-2-1.2-3.3
		c0-0.7,0.2-1.5,0.5-2.3c0.3-0.6,0.7-1.2,1.4-1.9c1.1-1,2.3-1.5,3.7-1.5c0.4,0,0.8,0,1.3,0.1c0.3,0.1,0.6,0.2,0.9,0.3
		c0.2,0.1,0.4,0.1,0.6,0.2c0.2,0.1,0.4,0.1,0.5,0.2c0.2,0.1,0.4,0.2,0.5,0.2c0.1,0.1,0.2,0.1,0.3,0.1c0.1,0,0.3,0,0.5-0.5l0.1-0.2
		h0.7l0.1,6.1h-0.7l-0.1-0.2c-0.1-0.2-0.2-0.5-0.2-0.7c-0.2-0.6-0.3-1-0.5-1.3c-0.2-0.5-0.4-0.9-0.6-1.3c-0.6-0.8-1-1.3-1.4-1.5
		c-0.5-0.3-1.1-0.5-1.8-0.5c-0.9,0-1.8,0.4-2.3,1c-0.2,0.3-0.4,0.6-0.6,0.9c-0.1,0.3-0.2,0.7-0.2,1.1c0,1.5,0.9,2.6,2.9,3.6l2,1
		c1.5,0.7,2.7,1.5,3.4,2.5c0.8,1,1.2,2.1,1.2,3.6c0,0.8-0.2,1.6-0.5,2.6c-0.5,1.2-1.3,2-2.3,2.6C372.1,99.6,371,100,369.6,100z
		 M364.7,98.2c0.2,0,0.3,0,0.4,0.1c0.1,0,0.2,0.1,0.4,0.1c0.2,0.1,0.4,0.2,0.7,0.3c1,0.5,2.2,0.7,3.4,0.7c1.2,0,2.3-0.3,3.3-0.9
		c1-0.6,1.6-1.3,2.1-2.4c0.3-0.9,0.5-1.6,0.5-2.4c0-1.3-0.3-2.4-1-3.2c-0.7-0.9-1.8-1.7-3.2-2.3l-2-1c-2.1-1.1-3.1-2.3-3.1-4
		c0-0.4,0.1-0.9,0.2-1.3c0.2-0.5,0.4-0.8,0.6-1.1c0.7-0.8,1.6-1.2,2.7-1.2c0.7,0,1.5,0.2,2,0.5c0.5,0.3,0.9,0.8,1.6,1.7
		c0.2,0.4,0.4,0.8,0.6,1.4c0.1,0.3,0.3,0.8,0.5,1.3c0,0,0,0,0,0.1l-0.1-4.5c-0.2,0.3-0.4,0.5-0.8,0.5c-0.1,0-0.3,0-0.5-0.1
		c-0.1-0.1-0.3-0.1-0.5-0.2c-0.1-0.1-0.3-0.1-0.5-0.2c-0.2-0.1-0.4-0.1-0.6-0.2c-0.3-0.1-0.6-0.2-0.9-0.3c-0.4-0.1-0.7-0.1-1.1-0.1
		c-1.2,0-2.4,0.5-3.3,1.3c-0.6,0.6-1,1.2-1.2,1.7c-0.3,0.8-0.5,1.4-0.5,2.1c0,1.2,0.4,2.1,1.1,3c0.2,0.3,0.5,0.5,1,0.9
		c0.4,0.3,1.2,0.7,2,1.1c0.7,0.4,1.3,0.7,1.8,1c0.2,0.1,0.3,0.2,0.5,0.3c0.5,0.3,0.8,0.6,1.2,1.1c0.2,0.4,0.4,0.9,0.6,1.4
		c0.1,0.6,0.2,1.1,0.2,1.6c0,1.2-0.4,2.2-1.1,2.9c-0.8,0.8-1.7,1.2-2.9,1.2c-1.7,0-3-0.8-4-2.4c-0.5-0.9-0.9-1.9-1.2-2.9V99h0.1
		C363.8,98.5,364.2,98.2,364.7,98.2z"/>
</g>
<g>
	<path class="st1" d="M386.4,79.7V80c-0.5,0-1,0.1-1.3,0.2c-0.3,0.1-0.6,0.3-0.9,0.6c-0.4,0.4-0.6,0.9-0.7,1.6
		c-0.1,0.5-0.1,1.1-0.1,1.7v10.3c0,0.8,0,1.4,0.1,1.8s0.2,0.8,0.4,1.1c0.2,0.4,0.6,0.7,0.9,0.8c0.4,0.2,0.9,0.3,1.5,0.3v0.3h-8.9
		v-0.3c0.5,0,1-0.1,1.3-0.2s0.6-0.3,0.9-0.6c0.3-0.3,0.5-0.7,0.6-1.1c0.1-0.5,0.2-1.2,0.2-2.1V84.1c0-1-0.1-1.7-0.2-2.1
		c-0.1-0.5-0.3-0.8-0.6-1.1c-0.3-0.3-0.5-0.5-0.9-0.6c-0.3-0.1-0.8-0.2-1.3-0.2v-0.3h9V79.7z"/>
	<path class="st1" d="M386.6,99h-9.4v-0.8h0.2c0.5,0,1-0.1,1.2-0.2c0.3-0.1,0.5-0.3,0.8-0.5c0.2-0.2,0.4-0.6,0.5-1
		c0.1-0.6,0.2-1.3,0.2-2V84.1c0-1.1-0.1-1.8-0.2-2c-0.1-0.5-0.3-0.7-0.5-1c-0.3-0.3-0.4-0.5-0.8-0.5c-0.3-0.1-0.8-0.2-1.2-0.2h-0.2
		v-0.8h9.2v0.2h0.2v0.5h-0.2c-0.5,0-1,0.1-1.2,0.2c-0.3,0.1-0.5,0.3-0.8,0.5c-0.3,0.3-0.5,0.8-0.6,1.5c-0.1,0.5-0.1,1.1-0.1,1.7
		v10.3c0,0.8,0,1.4,0.1,1.7c0.1,0.4,0.2,0.8,0.4,1c0.2,0.4,0.5,0.6,0.8,0.7c0.4,0.2,0.9,0.3,1.4,0.3h0.2V99z M378.8,98.5h6.2
		c-0.1,0-0.2-0.1-0.3-0.1c-0.3-0.1-0.8-0.4-1-0.9c-0.2-0.3-0.3-0.7-0.4-1.2c-0.1-0.4-0.1-1-0.1-1.9V84.1c0-0.6,0-1.2,0.1-1.7
		c0.1-0.8,0.3-1.3,0.8-1.7c0.3-0.3,0.5-0.4,0.8-0.6h-6.1c0,0,0,0,0,0c0.5,0.1,0.7,0.4,1,0.7c0.4,0.4,0.6,0.7,0.7,1.2
		c0.1,0.3,0.2,1,0.2,2.1v10.3c0,0.8-0.1,1.5-0.2,2.1c-0.1,0.5-0.4,0.9-0.7,1.2C379.5,98.1,379.1,98.3,378.8,98.5
		C378.8,98.4,378.8,98.4,378.8,98.5z"/>
</g>
<g>
	<path class="st1" d="M395.3,80.2c-0.6,0-1.2,0-1.9,0.1c-1.4,0.1-2.5,0.3-3.2,0.5c-0.7,0.3-1.3,0.8-1.7,1.5c-0.4,0.7-0.7,1.5-1,2.7
		h-0.3l0.3-5.2h18.9l0.2,5.2h-0.3c-0.3-1.3-0.6-2.3-1.2-2.9c-0.5-0.7-1.3-1.1-2.3-1.4c-0.9-0.2-2.3-0.4-4.4-0.4v14.1
		c0,1,0.1,1.7,0.2,2.1c0.1,0.5,0.3,0.8,0.6,1.1c0.3,0.3,0.6,0.5,0.9,0.6c0.3,0.1,0.8,0.2,1.3,0.2v0.3h-8.9v-0.3c0.5,0,1-0.1,1.3-0.2
		c0.3-0.1,0.6-0.3,0.9-0.6c0.3-0.3,0.5-0.7,0.6-1.1c0.1-0.5,0.2-1.2,0.2-2.1V80.2H395.3z"/>
	<path class="st1" d="M401.7,99h-9.4v-0.8h0.2c0.5,0,1-0.1,1.2-0.2c0.3-0.1,0.5-0.3,0.8-0.5c0.2-0.2,0.4-0.6,0.5-1
		c0.1-0.6,0.2-1.3,0.2-2v-14c-0.6,0-1.2,0-1.8,0.1c-1.2,0.1-2.4,0.3-3.2,0.5c-0.6,0.3-1.2,0.8-1.6,1.4c-0.4,0.7-0.7,1.5-1,2.6l0,0.2
		H387l0.3-5.7h19.4l0.2,5.7h-0.8l0-0.2c-0.3-1.4-0.6-2.2-1.1-2.8c-0.4-0.6-1.1-1-2.2-1.3c-1.1-0.2-2.5-0.4-4.1-0.4v13.8
		c0,1.1,0.1,1.8,0.2,2c0.1,0.5,0.3,0.7,0.5,1c0.3,0.3,0.5,0.5,0.8,0.5c0.3,0.1,0.7,0.2,1.2,0.2h0.2V99z M393.9,98.5h6.2c0,0,0,0,0,0
		c-0.3-0.1-0.7-0.3-1-0.7c-0.4-0.4-0.6-0.7-0.7-1.2c-0.1-0.3-0.2-1-0.2-2.1V80h-2.4v14.4c0,0.8-0.1,1.5-0.2,2.1
		c-0.1,0.5-0.4,0.9-0.7,1.2C394.6,98.1,394.2,98.3,393.9,98.5C393.9,98.4,393.9,98.4,393.9,98.5z M387.8,80l-0.2,4
		c0.2-0.7,0.5-1.3,0.8-1.9c0.4-0.7,1-1.3,1.8-1.6c0.5-0.1,1.6-0.4,3.3-0.5c0,0,0,0,0,0H387.8z M398.4,80c1.7,0,3.2,0.1,4.5,0.4
		c1.2,0.4,2,0.8,2.4,1.5c0.5,0.5,0.7,1.1,1,2.1l-0.2-4H398.4z"/>
</g>
<g>
	<path class="st1" d="M426.9,98.8h-9.2v-0.3c0.8-0.1,1.4-0.2,1.7-0.4c0.6-0.4,0.9-0.9,0.9-1.5c0-0.4-0.1-0.9-0.4-1.5l-0.2-0.6
		l-1.3-3.3h-6.2l-0.7,1.9l-0.4,0.9c-0.4,1-0.6,1.8-0.6,2.4c0,0.3,0.1,0.7,0.2,1c0.2,0.3,0.4,0.5,0.6,0.7c0.4,0.2,0.8,0.4,1.4,0.4
		v0.3h-6.3v-0.3c0.5,0,0.9-0.2,1.3-0.4c0.4-0.2,0.7-0.6,1.1-1c0.3-0.4,0.6-0.9,0.9-1.5s0.7-1.5,1.1-2.7l5.1-13.2h0.8l6.1,14.7
		c0.5,1.1,0.8,1.9,1.1,2.4c0.3,0.5,0.6,0.8,0.9,1.1c0.2,0.2,0.5,0.3,0.8,0.4c0.3,0.1,0.7,0.2,1.3,0.2L426.9,98.8L426.9,98.8z
		 M418.1,90.6l-2.9-7.2l-2.8,7.2H418.1z"/>
	<path class="st1" d="M427.1,99h-9.7v-0.8l0.2,0c0.6-0.1,1.3-0.2,1.6-0.4c0.5-0.4,0.8-0.8,0.8-1.3c0-0.4-0.1-0.9-0.4-1.4l-0.2-0.6
		l-1.2-3.1h-5.9l-0.6,1.7l-0.4,0.9c-0.4,1-0.6,1.7-0.6,2.3c0,0.2,0.1,0.5,0.2,0.9c0.2,0.3,0.3,0.4,0.5,0.6c0.4,0.2,0.7,0.4,1.3,0.4
		h0.2V99h-6.8v-0.8h0.2c0.4,0,0.8-0.2,1.2-0.4c0.3-0.1,0.5-0.4,0.7-0.6c0.1-0.1,0.2-0.2,0.3-0.3c0.3-0.4,0.6-0.8,0.9-1.4
		c0.3-0.5,0.7-1.4,1.1-2.7l5.2-13.4h1.1l0.1,0.2l6.1,14.7c0.2,0.4,0.3,0.7,0.5,1c0.2,0.6,0.4,1,0.6,1.3c0.3,0.5,0.6,0.8,0.9,1
		c0.2,0.2,0.4,0.3,0.7,0.3c0.3,0.1,0.6,0.2,1.2,0.2h0.2V99z M418.9,98.5h6.6c0,0,0,0,0,0c-0.3-0.1-0.7-0.2-0.9-0.5
		c-0.3-0.3-0.6-0.6-0.9-1.1c-0.2-0.3-0.4-0.8-0.7-1.4c-0.1-0.3-0.3-0.7-0.5-1l-6-14.6h-0.5l-5,13c-0.4,1.2-0.8,2.2-1.1,2.7
		c-0.3,0.6-0.6,1.1-0.9,1.5c-0.1,0.1-0.2,0.2-0.3,0.3c-0.3,0.3-0.5,0.6-0.9,0.7c-0.2,0.1-0.3,0.2-0.5,0.2h4.3
		c-0.2-0.1-0.3-0.1-0.5-0.2l-0.1,0c-0.2-0.2-0.4-0.4-0.6-0.7l0-0.1c-0.1-0.2-0.2-0.7-0.2-1.1c0-0.6,0.2-1.5,0.6-2.5l0.4-0.9l0.8-2
		h6.5l1.4,3.5l0.2,0.6c0.3,0.5,0.4,1.1,0.4,1.6c0,0.7-0.3,1.3-1,1.7C419.4,98.4,419.2,98.5,418.9,98.5z M418.5,90.8H412l3.2-8.1
		L418.5,90.8z M412.8,90.3h5l-2.5-6.3L412.8,90.3z"/>
</g>
<g>
	<path class="st1" d="M433.3,89.5v5c0,1,0.1,1.7,0.2,2.1c0.1,0.5,0.3,0.8,0.6,1.1c0.3,0.3,0.5,0.5,0.9,0.6c0.3,0.1,0.8,0.2,1.3,0.2
		v0.3h-8.9v-0.3c0.5,0,1-0.1,1.3-0.2s0.6-0.3,0.9-0.6c0.3-0.3,0.5-0.7,0.6-1.1c0.1-0.5,0.2-1.2,0.2-2.1V84.2c0-1-0.1-1.7-0.2-2.1
		c-0.1-0.5-0.3-0.8-0.6-1.1c-0.3-0.3-0.5-0.5-0.9-0.6c-0.3-0.1-0.8-0.2-1.3-0.2v-0.3h6.7c1.1,0,1.9,0,2.2,0c1.4,0.1,2.6,0.3,3.4,0.6
		c0.9,0.4,1.6,0.9,2.1,1.7c0.5,0.7,0.8,1.6,0.8,2.6c0,1.5-0.5,2.6-1.7,3.5c-0.3,0.3-0.7,0.5-1.1,0.6c-0.4,0.2-0.9,0.3-1.6,0.5
		c0.6,0.2,1,0.5,1.2,0.7s0.4,0.4,0.6,0.7c0.2,0.3,0.4,0.8,0.8,1.6c0.8,1.7,1.5,3,1.9,3.7c0.4,0.8,0.8,1.4,1.1,1.7
		c0.2,0.3,0.5,0.5,0.7,0.6c0.2,0.1,0.5,0.2,0.9,0.2v0.3h-4.6c-0.2-0.5-0.4-0.8-0.5-1l-1-2.2c-0.6-1.3-1.2-2.5-1.8-3.5
		c-0.6-1-1.1-1.7-1.6-2.1c-0.2-0.2-0.5-0.3-0.8-0.4s-0.6-0.1-1.1-0.1L433.3,89.5L433.3,89.5z M433.3,89.2h0.5c1.2,0,2-0.1,2.5-0.2
		s1-0.4,1.4-0.8c1-0.9,1.5-2.1,1.5-3.5c0-0.7-0.1-1.4-0.4-2.1c-0.3-0.6-0.7-1.2-1.2-1.6c-0.4-0.3-0.9-0.5-1.4-0.7
		c-0.5-0.1-1.3-0.2-2.3-0.2h-0.6V89.2z"/>
	<path class="st1" d="M445.6,99.2h-5l-0.1-0.2c-0.1-0.3-0.3-0.6-0.4-0.8c0-0.1-0.1-0.1-0.1-0.2l-1-2.2c-0.7-1.4-1.3-2.6-1.8-3.5
		c-0.6-1.1-1.1-1.7-1.5-2c-0.2-0.2-0.5-0.3-0.7-0.4c-0.3-0.1-0.5-0.1-1-0.1l-0.4-0.1v4.7c0,1.1,0.1,1.8,0.2,2c0.1,0.5,0.3,0.7,0.5,1
		c0.3,0.3,0.5,0.5,0.8,0.5c0.3,0.1,0.7,0.2,1.2,0.2h0.2V99h-9.4v-0.8h0.2c0.5,0,1-0.1,1.2-0.2c0.3-0.1,0.5-0.3,0.8-0.5
		c0.2-0.2,0.4-0.6,0.5-1c0.1-0.6,0.2-1.3,0.2-2V84.2c0-1.1-0.1-1.8-0.2-2c-0.1-0.5-0.3-0.7-0.5-1c-0.3-0.3-0.5-0.5-0.8-0.5
		c-0.3-0.1-0.8-0.2-1.2-0.2h-0.2v-0.8h9.1c1.5,0.1,2.7,0.3,3.5,0.6c1.1,0.5,1.7,1,2.2,1.8c0.5,0.8,0.8,1.7,0.8,2.7
		c0,1.6-0.6,2.8-1.8,3.7c-0.3,0.3-0.7,0.5-1.2,0.6c-0.2,0.1-0.5,0.2-0.9,0.3c0.3,0.2,0.5,0.4,0.6,0.5c0.2,0.2,0.4,0.4,0.6,0.7
		c0.1,0.2,0.3,0.5,0.4,0.8c0.1,0.2,0.2,0.5,0.4,0.8c0.9,1.9,1.6,3.2,1.9,3.7c0.4,0.7,0.8,1.4,1.1,1.6c0.2,0.3,0.5,0.5,0.6,0.6
		c0.2,0.1,0.4,0.2,0.8,0.2h0.2V99.2z M441,98.7h3.5c0,0,0,0-0.1,0c-0.2-0.1-0.5-0.3-0.8-0.7c-0.3-0.3-0.7-0.9-1.1-1.7
		c-0.3-0.5-1-1.8-1.9-3.7c-0.2-0.3-0.3-0.6-0.4-0.8c-0.2-0.4-0.3-0.6-0.4-0.8c-0.2-0.3-0.4-0.5-0.6-0.7c-0.1-0.1-0.5-0.4-1.1-0.6
		l-0.8-0.3l0.8-0.2c0.2-0.1,0.4-0.1,0.5-0.1c0.4-0.1,0.8-0.2,1-0.3c0.4-0.1,0.8-0.3,1-0.6c1.1-0.9,1.6-1.9,1.6-3.3
		c0-0.9-0.3-1.8-0.8-2.5c-0.4-0.7-1.1-1.2-2-1.6c-0.7-0.3-1.7-0.5-3.1-0.6c0.4,0.2,0.9,0.4,1.2,0.6c0.5,0.4,0.9,0.9,1.3,1.7
		c0.3,0.7,0.4,1.4,0.4,2.2c0,1.5-0.5,2.8-1.6,3.7c-0.4,0.4-1,0.8-1.5,0.9c-0.4,0.1-0.8,0.1-1.3,0.2c0.1,0,0.1,0,0.2,0
		c0.3,0.1,0.7,0.2,0.9,0.5c0.5,0.4,1,1,1.6,2.1c0.5,0.9,1.1,2.1,1.8,3.5l1,2.2c0,0,0.1,0.1,0.1,0.2C440.7,98.1,440.8,98.4,441,98.7z
		 M428.7,98.5h6.2c0,0,0,0,0,0c-0.4-0.1-0.7-0.4-1-0.7c-0.4-0.4-0.6-0.7-0.7-1.2c-0.1-0.3-0.2-1-0.2-2.1V80.2h-4.3c0,0,0,0,0,0
		c0.4,0.1,0.7,0.4,1,0.7c0.4,0.4,0.6,0.7,0.7,1.2c0.1,0.3,0.2,1,0.2,2.1v10.3c0,0.8-0.1,1.5-0.2,2.1c-0.1,0.5-0.4,0.9-0.7,1.2
		C429.4,98.2,429.1,98.4,428.7,98.5C428.8,98.5,428.7,98.5,428.7,98.5z M433.5,89h0.2c1.2,0,2-0.1,2.4-0.2c0.4-0.1,0.9-0.4,1.3-0.7
		c0.9-0.9,1.4-2,1.4-3.3c0-0.8-0.1-1.4-0.4-2c-0.3-0.7-0.7-1.2-1.1-1.5c-0.4-0.3-0.8-0.5-1.3-0.7c-0.3-0.1-1.1-0.2-2.2-0.2h-0.3V89z
		"/>
</g>
<g>
	<path class="st1" d="M454.8,79.7V80c-0.5,0-1,0.1-1.3,0.2c-0.3,0.1-0.6,0.3-0.9,0.6c-0.4,0.4-0.6,0.9-0.7,1.6
		c-0.1,0.5-0.1,1.1-0.1,1.7v10.3c0,0.8,0,1.4,0.1,1.8s0.2,0.8,0.4,1.1c0.2,0.4,0.6,0.7,0.9,0.8c0.4,0.2,0.9,0.3,1.5,0.3v0.3h-8.9
		v-0.3c0.5,0,1-0.1,1.3-0.2s0.6-0.3,0.9-0.6c0.3-0.3,0.5-0.7,0.6-1.1c0.1-0.5,0.2-1.2,0.2-2.1V84.1c0-1-0.1-1.7-0.2-2.1
		c-0.1-0.5-0.3-0.8-0.6-1.1c-0.3-0.3-0.5-0.5-0.9-0.6c-0.3-0.1-0.8-0.2-1.3-0.2v-0.3h9V79.7z"/>
	<path class="st1" d="M454.9,99h-9.4v-0.8h0.2c0.5,0,1-0.1,1.2-0.2c0.3-0.1,0.5-0.3,0.8-0.5c0.2-0.2,0.4-0.6,0.5-1
		c0.1-0.6,0.2-1.3,0.2-2V84.1c0-1.1-0.1-1.8-0.2-2c-0.1-0.5-0.3-0.7-0.5-1c-0.3-0.3-0.4-0.5-0.8-0.5c-0.3-0.1-0.8-0.2-1.2-0.2h-0.2
		v-0.8h9.2v0.2h0.2v0.5h-0.2c-0.5,0-1,0.1-1.2,0.2c-0.3,0.1-0.5,0.3-0.8,0.5c-0.3,0.3-0.5,0.8-0.6,1.5c-0.1,0.5-0.1,1.1-0.1,1.7
		v10.3c0,0.8,0,1.4,0.1,1.7c0.1,0.4,0.2,0.8,0.4,1c0.2,0.4,0.5,0.6,0.8,0.7c0.4,0.2,0.9,0.3,1.4,0.3h0.2V99z M447.1,98.5h6.2
		c-0.1,0-0.2-0.1-0.3-0.1c-0.3-0.1-0.8-0.4-1-0.9c-0.2-0.3-0.3-0.7-0.4-1.1c-0.1-0.4-0.1-1-0.1-1.9V84.1c0-0.6,0-1.2,0.1-1.7
		c0.1-0.8,0.3-1.3,0.8-1.7c0.3-0.3,0.5-0.4,0.8-0.6h-6.1c0,0,0,0,0,0c0.5,0.1,0.7,0.4,1,0.7c0.3,0.3,0.5,0.6,0.7,1.2
		c0.1,0.3,0.2,1,0.2,2.1v10.3c0,0.7-0.1,1.5-0.2,2.1c-0.1,0.5-0.4,0.9-0.7,1.2C447.8,98.1,447.5,98.3,447.1,98.5
		C447.1,98.4,447.1,98.4,447.1,98.5z"/>
</g>
<g>
	<path class="st1" d="M456.8,89.4c0-1.6,0.3-3,1-4.4c0.7-1.3,1.6-2.5,2.9-3.5c1-0.7,2-1.3,3.1-1.7c1.1-0.4,2.2-0.6,3.4-0.6
		c1.4,0,2.8,0.3,4.2,0.9c1.3,0.6,2.5,1.5,3.5,2.7c1.6,1.9,2.5,4,2.5,6.4c0,1.2-0.2,2.3-0.6,3.5c-0.4,1.1-1.1,2.1-1.9,3
		c-1,1.1-2.2,2-3.6,2.6c-1.4,0.6-2.8,0.9-4.3,0.9c-1.5,0-2.9-0.3-4.3-0.9s-2.5-1.5-3.5-2.6c-0.8-0.9-1.4-1.9-1.8-3
		C457,91.8,456.8,90.6,456.8,89.4 M460.2,89.6c0,2.7,0.7,5,2.2,6.8c0.7,0.8,1.4,1.4,2.1,1.8c0.7,0.4,1.6,0.6,2.6,0.6
		s1.8-0.2,2.6-0.6c0.7-0.4,1.5-1,2.1-1.8c1.5-1.9,2.2-4.2,2.2-6.9c0-1.5-0.2-2.9-0.6-4.3c-0.4-1.3-1-2.5-1.7-3.4
		c-0.6-0.8-1.3-1.3-2-1.7c-0.7-0.3-1.6-0.5-2.6-0.5s-1.8,0.2-2.6,0.5c-0.7,0.3-1.4,0.9-2,1.7c-0.7,0.9-1.3,2.1-1.7,3.4
		C460.4,86.6,460.2,88.1,460.2,89.6"/>
	<path class="st1" d="M467,99.5c-1.5,0-3-0.3-4.4-0.9c-1.3-0.6-2.4-1.4-3.6-2.7c-0.8-0.9-1.4-2-1.9-3.1c-0.4-0.9-0.6-2.1-0.6-3.4
		c0-1.7,0.3-3.1,1-4.5c0.8-1.5,1.8-2.7,3-3.6c1.2-0.8,2.2-1.4,3.2-1.7c1.1-0.4,2.3-0.6,3.5-0.6c1.4,0,2.9,0.3,4.3,0.9
		c1.4,0.6,2.6,1.6,3.6,2.8c1.7,2,2.6,4.2,2.6,6.6c0,1.2-0.2,2.3-0.6,3.6c-0.4,1-1,2-1.9,3.1c-1.1,1.2-2.3,2.1-3.7,2.7
		C469.9,99.1,468.5,99.5,467,99.5z M464.5,79.8c-0.2,0.1-0.4,0.1-0.6,0.2c-0.9,0.3-1.9,0.9-3,1.7c-1.1,0.9-2,2-2.8,3.4
		c-0.7,1.3-1,2.7-1,4.3c0,1.2,0.2,2.4,0.6,3.2c0.4,1.1,1,2.1,1.8,2.9c1.1,1.2,2.2,2,3.4,2.5c0.8,0.4,1.7,0.6,2.5,0.7
		c-0.4-0.1-0.7-0.2-1-0.4c-0.7-0.4-1.4-1-2.2-1.9c-1.5-1.8-2.3-4.1-2.3-7c0-1.6,0.2-3.1,0.6-4.5c0.4-1.3,1-2.6,1.7-3.5
		c0.6-0.8,1.4-1.5,2.1-1.8C464.4,79.9,464.4,79.8,464.5,79.8z M469.2,79.7c0.2,0.1,0.4,0.1,0.5,0.2c0.6,0.4,1.4,0.9,2.1,1.8
		c0.7,0.9,1.3,2.2,1.7,3.5c0.4,1.4,0.6,2.9,0.6,4.4c0,2.8-0.7,5.1-2.3,7.1c-0.7,0.9-1.6,1.5-2.2,1.9c-0.3,0.1-0.5,0.2-0.8,0.3
		c0.7-0.1,1.5-0.4,2.2-0.7c1.3-0.6,2.5-1.4,3.5-2.5c0.9-1,1.5-2,1.8-2.9c0.4-1.2,0.6-2.3,0.6-3.4c0-2.2-0.8-4.3-2.4-6.2
		c-1-1.1-2.1-2-3.4-2.6C470.6,80,469.9,79.8,469.2,79.7z M467.1,79.8c-0.9,0-1.6,0.1-2.5,0.5c-0.6,0.3-1.3,0.9-1.9,1.6
		c-0.7,0.9-1.3,2.1-1.7,3.3c-0.4,1.4-0.6,2.8-0.6,4.3c0,2.7,0.7,4.9,2.1,6.6c0.7,0.8,1.4,1.4,2,1.7c0.6,0.4,1.5,0.6,2.5,0.6
		c0.9,0,1.7-0.2,2.5-0.6c0.6-0.3,1.4-0.9,2-1.7c1.4-1.8,2.1-4,2.1-6.8c0-1.5-0.2-2.8-0.6-4.2c-0.4-1.3-1-2.4-1.7-3.3
		c-0.6-0.8-1.4-1.3-1.9-1.6C468.8,80,468,79.8,467.1,79.8z"/>
</g>
<g>
	<path class="st1" d="M480,98.8V93h0.3c0.4,1.5,0.9,2.6,1.4,3.5c1,1.6,2.3,2.3,3.8,2.3c1.1,0,2-0.4,2.7-1.1s1-1.6,1-2.7
		c0-0.5-0.1-1-0.2-1.5s-0.4-0.9-0.6-1.3c-0.3-0.4-0.6-0.7-1.1-1c-0.5-0.3-1.2-0.8-2.2-1.3c-0.9-0.4-1.6-0.8-2-1.1
		c-0.5-0.3-0.8-0.6-1.1-0.9c-0.8-0.9-1.2-1.9-1.2-3.2c0-0.8,0.2-1.5,0.5-2.2c0.3-0.7,0.8-1.3,1.3-1.8c1-0.9,2.2-1.4,3.5-1.4
		c0.4,0,0.8,0,1.2,0.1c0.4,0.1,0.9,0.3,1.5,0.5c0.5,0.2,0.8,0.3,1,0.4c0.2,0.1,0.3,0.1,0.4,0.1c0.3,0,0.5-0.2,0.7-0.7h0.3l0.1,5.6
		H491c-0.3-0.9-0.5-1.6-0.6-2c-0.2-0.5-0.4-0.9-0.7-1.3c-0.5-0.7-1-1.3-1.5-1.6c-0.5-0.3-1.2-0.5-1.9-0.5c-1,0-1.9,0.4-2.5,1.1
		c-0.2,0.3-0.4,0.6-0.6,1c-0.1,0.4-0.2,0.8-0.2,1.2c0,1.6,1,2.8,3,3.8l2,1c1.5,0.7,2.6,1.5,3.3,2.4c0.8,1,1.1,2.1,1.1,3.4
		c0,0.9-0.2,1.7-0.5,2.5c-0.5,1.1-1.2,1.9-2.2,2.5s-2.1,0.9-3.4,0.9c-1.2,0-2.4-0.2-3.5-0.7c-0.6-0.2-0.9-0.4-1-0.4
		s-0.2-0.1-0.4-0.1c-0.4,0-0.8,0.2-0.9,0.7H480L480,98.8L480,98.8z"/>
	<path class="st1" d="M486.3,100c-1.3,0-2.5-0.2-3.6-0.7c-0.3-0.1-0.6-0.2-0.7-0.3c-0.1,0-0.1-0.1-0.2-0.1c-0.1,0-0.1,0-0.2-0.1
		c-0.1,0-0.1,0-0.2,0c-0.2,0-0.6,0-0.7,0.5l0,0.2h-1v-6.7h0.7l0,0.2c0.3,1.3,0.8,2.4,1.4,3.4c0.9,1.4,2.1,2.2,3.6,2.2
		c1,0,1.8-0.3,2.5-1c0.6-0.6,0.9-1.5,0.9-2.5c0-0.5-0.1-0.9-0.2-1.4c-0.1-0.3-0.2-0.6-0.4-0.9c-0.1-0.1-0.1-0.2-0.2-0.3
		c-0.2-0.3-0.5-0.6-1-0.9c-0.1-0.1-0.3-0.2-0.5-0.3c-0.4-0.3-1-0.6-1.7-1c-0.8-0.4-1.6-0.8-2-1.1c-0.5-0.3-0.8-0.6-1.1-0.9
		c-0.9-1-1.3-2.1-1.3-3.4c0-0.7,0.2-1.5,0.5-2.3c0.3-0.6,0.7-1.2,1.4-1.9c1.1-1,2.3-1.5,3.7-1.5c0.4,0,0.8,0,1.3,0.1
		c0.3,0.1,0.6,0.2,0.9,0.3c0.2,0.1,0.4,0.1,0.6,0.2c0.2,0.1,0.4,0.1,0.5,0.2c0.2,0.1,0.4,0.2,0.5,0.2c0.1,0.1,0.2,0.1,0.3,0.1
		c0.1,0,0.3,0,0.5-0.5l0.1-0.2h0.7l0.1,6.1h-0.7l-0.1-0.2c-0.4-1.1-0.5-1.8-0.6-2c-0.2-0.5-0.4-0.9-0.7-1.2c-0.6-0.8-1-1.3-1.4-1.5
		c-0.5-0.3-1.1-0.5-1.8-0.5c-0.9,0-1.8,0.4-2.3,1c-0.2,0.3-0.4,0.6-0.6,0.9c-0.1,0.3-0.2,0.7-0.2,1.1c0,1.5,0.9,2.6,2.9,3.6l2,1
		c1.5,0.7,2.7,1.5,3.4,2.5c0.8,1,1.2,2.1,1.2,3.6c0,0.8-0.2,1.6-0.5,2.6c-0.5,1.2-1.3,2-2.3,2.6C488.7,99.6,487.6,100,486.3,100z
		 M481.4,98.2c0.2,0,0.3,0,0.4,0.1c0.1,0,0.2,0.1,0.4,0.1c0.2,0.1,0.4,0.2,0.7,0.3c1,0.5,2.2,0.7,3.4,0.7c1.2,0,2.3-0.3,3.3-0.9
		c1-0.6,1.6-1.3,2.1-2.4c0.3-0.9,0.5-1.6,0.5-2.4c0-1.3-0.3-2.3-1-3.2c-0.7-0.9-1.8-1.7-3.2-2.3l-2-1c-2.1-1.1-3.1-2.3-3.1-4
		c0-0.4,0.1-0.9,0.2-1.3c0.2-0.5,0.4-0.8,0.6-1.1c0.7-0.8,1.6-1.2,2.7-1.2c0.7,0,1.5,0.2,2,0.5c0.5,0.3,0.9,0.8,1.6,1.7
		c0.3,0.4,0.5,0.8,0.7,1.4c0.1,0.4,0.2,0.9,0.4,1.4l-0.1-4.4c-0.2,0.3-0.4,0.5-0.8,0.5c-0.1,0-0.3,0-0.5-0.1
		c-0.1-0.1-0.3-0.1-0.5-0.2c-0.1-0.1-0.3-0.1-0.5-0.2c-0.2-0.1-0.4-0.1-0.6-0.2c-0.3-0.1-0.6-0.2-0.9-0.3c-0.4-0.1-0.7-0.1-1.1-0.1
		c-1.2,0-2.4,0.5-3.3,1.3c-0.6,0.6-1,1.2-1.2,1.7c-0.3,0.8-0.5,1.4-0.5,2.1c0,1.2,0.4,2.1,1.1,3c0.3,0.3,0.6,0.6,1,0.9
		c0.4,0.3,1.2,0.7,2,1.1c0.7,0.4,1.3,0.7,1.8,1c0.2,0.1,0.3,0.2,0.5,0.3c0.5,0.3,0.8,0.6,1.2,1.1c0.1,0.1,0.1,0.3,0.2,0.4
		c0.2,0.3,0.4,0.6,0.4,1c0.1,0.5,0.2,1,0.2,1.5c0,1.2-0.4,2.2-1.1,2.9c-0.8,0.8-1.7,1.2-2.9,1.2c-1.7,0-3-0.8-4-2.4
		c-0.5-0.9-0.9-1.9-1.2-2.9V99h0.1C480.4,98.5,480.8,98.2,481.4,98.2z"/>
</g>
<g>
	<path class="st0" d="M44.2,85.7c-0.1,0-0.2,0-0.2,0.1c-0.1,0.1-0.1,0.2-0.1,0.5V88c0,0.3,0.1,0.5,0.3,0.5c0.1,0,0.3-0.1,0.4-0.2
		v-2.1C44.6,85.9,44.5,85.7,44.2,85.7z"/>
	<path class="st0" d="M9.2,25.7c-0.8,11.9,0.4,22.1,2.7,30.8L44,16C33.2,20.8,9.2,25.7,9.2,25.7z"/>
	<path class="st0" d="M32.2,90.6c7.7,7,14.3,9.8,14.3,9.8c5.7-3,10.5-6.5,14.6-10.2L46.9,71.8L32.2,90.6z M41.7,90.6h-2.9v-0.2h0.6
		V86h-0.6v-0.2h0.5c0.3,0,0.5,0,0.8-0.1c0.3,0,0.7-0.1,1-0.3v4.9h0.6C41.7,90.3,41.7,90.6,41.7,90.6z M46.1,89.5
		c-0.3,0.4-0.6,0.7-1.1,0.9c-0.4,0.2-0.9,0.3-1.4,0.3s-0.9-0.1-1.1-0.3c-0.3-0.2-0.4-0.4-0.4-0.7c0-0.2,0.1-0.4,0.2-0.5
		s0.3-0.2,0.5-0.2s0.4,0.1,0.5,0.2s0.2,0.3,0.2,0.5c0,0.3-0.1,0.5-0.4,0.6c0.2,0.1,0.4,0.1,0.6,0.1s0.4,0,0.5-0.1
		c0.2-0.1,0.3-0.1,0.3-0.2s0.1-0.2,0.1-0.4v-1.2c-0.1,0.1-0.3,0.1-0.4,0.2c-0.1,0-0.3,0-0.5,0c-0.5,0-0.9-0.1-1.3-0.4
		c-0.3-0.3-0.5-0.6-0.5-1.1s0.2-0.9,0.6-1.2c0.4-0.3,0.9-0.5,1.5-0.5s1,0.1,1.4,0.4c0.3,0.3,0.6,0.6,0.7,1c0.1,0.3,0.2,0.7,0.2,1.1
		C46.4,88.6,46.3,89.1,46.1,89.5z M52.1,90.5c0.2,0,0.3,0,0.4-0.1s0.2-0.1,0.2-0.2s0-0.2,0-0.3V88c0-0.3-0.1-0.5-0.4-0.5
		c-0.2,0-0.5,0.1-0.8,0.3l0.2-2.2c0.4,0.1,0.9,0.1,1.4,0.1c0.6,0,1.2,0,1.6-0.2c-0.2,0.9-0.8,1.4-1.8,1.4h-1.2l-0.1,0.6
		c0.3-0.1,0.7-0.2,1-0.2c0.6,0,1,0.2,1.4,0.5s0.5,0.7,0.5,1.2c0,0.6-0.2,1-0.7,1.3c-0.4,0.3-1,0.5-1.7,0.5c-0.5,0-0.9-0.1-1.2-0.3
		c-0.3-0.2-0.4-0.4-0.4-0.7c0-0.2,0.1-0.4,0.2-0.5s0.3-0.2,0.5-0.2s0.4,0.1,0.5,0.2s0.2,0.3,0.2,0.5c0,0.4-0.2,0.6-0.7,0.7l0,0
		C51.6,90.5,51.8,90.5,52.1,90.5z M47.2,85.5c0,0.1,0,0.2,0,0.3v0.1c0.3-0.2,0.8-0.3,1.3-0.3c0.3,0,0.6,0,1,0.1s0.6,0.1,0.8,0.1
		c0.3,0,0.6-0.1,0.7-0.2l0.1,0.1c-0.3,0.3-0.6,0.7-0.9,1.3c-0.3,0.6-0.4,1.3-0.4,2.1v0.1c0,0.3,0,0.6-0.1,0.8
		c-0.1,0.2-0.2,0.4-0.3,0.6c-0.2,0.1-0.4,0.2-0.7,0.2s-0.5-0.1-0.7-0.3s-0.3-0.4-0.3-0.7c0-0.3,0.1-0.7,0.3-1s0.5-0.8,1-1.3
		c0.4-0.3,0.6-0.6,0.8-0.7c0.1-0.1,0.3-0.3,0.4-0.5l0,0c-0.2,0.2-0.5,0.4-0.8,0.5C49,86.9,48.6,87,48.2,87h-0.7
		c-0.2,0-0.4,0-0.5,0.1s-0.2,0.2-0.3,0.4h-0.2c0.2-0.5,0.3-1.1,0.3-1.6c0-0.1,0-0.2,0-0.3L47.2,85.5L47.2,85.5z"/>
	<path class="st0" d="M83.9,25.5c-9.1-0.6-21.8-4.7-29.9-7.7c-1.5-0.6-1.2,2.2-1.2,2.2L81,57.3C86,40.1,83.9,25.5,83.9,25.5z"/>
</g>
<path class="st2" d="M48.4,66.3L66.2,44l13.3,17.6c0.3-0.8,0.5-1.6,0.8-2.3L47.4,15.4c-0.3-0.1-0.5-0.2-0.7-0.3L12.4,59.2
	c0.3,0.9,0.6,1.8,0.9,2.7l14.1-18.3l18.1,22.7L28.9,87.5c0.6,0.6,1.2,1.3,1.8,1.8l16.2-20.4l15.4,20c0.6-0.6,1.3-1.2,1.9-1.9
	L48.4,66.3z M46.9,64.7l-18-22.4l18-23.4l17.7,23.4L46.9,64.7z"/>
<path class="st1" d="M79.7,20.1c0,7.6-6.2,13.7-13.7,13.7c-1,0-2-0.1-2.9-0.3c-2.4-3.1-10.7-14.1-10.9-14.3
	C52.7,12,58.6,6.3,65.9,6.3C73.5,6.3,79.7,12.5,79.7,20.1"/>
</svg>
